<svg width="570" height="302" viewBox="0 0 570 302" fill="none" xmlns="http://www.w3.org/2000/svg">
<g style="mix-blend-mode:difference">
<path d="M374.634 118.51C376.275 117.144 377.213 114.998 377.467 112.052C377.721 109.105 377.115 107.076 375.65 105.984C374.185 104.891 371.469 104.345 367.562 104.345H358.381L356.954 120.578H365.902C370.082 120.578 372.993 119.895 374.634 118.549V118.51ZM311.632 110.12L303.329 126.041H317.063L311.632 110.12ZM431.6 133.553C434.862 130.724 436.718 126.626 437.187 121.241C437.656 115.856 436.523 111.72 433.769 108.813C431.014 105.906 426.521 104.462 420.289 104.462H413.471L410.56 137.767H418.335C423.942 137.767 428.357 136.362 431.62 133.533L431.6 133.553ZM467.038 19.6671C462.466 19.6671 458.442 21.384 455.004 24.8375C451.565 28.2909 449.631 32.4468 449.202 37.344C448.772 42.2218 449.983 46.3776 452.816 49.8115C458.833 57.0501 469.655 56.0941 475.965 49.8115C479.404 46.3971 481.338 42.2413 481.767 37.344C482.197 32.4663 480.986 28.2909 478.153 24.8375C475.321 21.384 471.609 19.6671 467.038 19.6671ZM401.906 20.9158H395.068L392.158 54.221H399.933C405.539 54.221 409.955 52.8162 413.217 49.9871C416.479 47.158 418.335 43.0607 418.804 37.6757C419.273 32.2907 418.14 28.1543 415.385 25.2472C412.631 22.3401 408.138 20.8963 401.906 20.8963V20.9158ZM13.8898 0L7.15 77.0098H562.86L569.599 0H13.8898ZM44.3849 28.8372C45.7328 29.7738 48.9757 30.8859 54.055 32.1736C59.1538 33.4613 63.0218 35.3734 65.6787 37.9293C68.3355 40.4853 69.449 44.2314 69.0192 49.1482C68.5895 54.0649 66.4015 58.0452 62.4358 61.1084C56.9072 65.3813 49.5032 66.3373 42.7439 65.3618C35.8673 64.3667 29.7332 60.9523 24.8688 56.055L32.9565 47.119C36.0236 50.0261 39.54 52.6601 43.5839 54.0259C46.8463 55.1185 51.1442 55.5282 54.1136 53.4406C55.4811 52.4845 56.243 51.1773 56.3798 49.5189C56.5165 47.8799 55.9499 46.5727 54.6801 45.5972C53.4103 44.6216 50.7926 43.6461 46.8464 42.651C40.595 41.1291 36.1018 39.1585 33.3472 36.7392C30.6123 34.3003 29.4597 30.4957 29.909 25.2862C30.3583 20.0963 32.5854 16.077 36.5706 13.248C43.8183 8.11657 53.6252 8.01901 61.7716 10.8871C65.327 12.1358 68.3551 13.9113 70.8752 16.2136L63.9009 25.1497C61.0683 22.8474 57.8058 21.0719 54.2308 20.2524C51.1832 19.55 47.2957 19.1598 44.6584 21.1889C43.3886 22.1645 42.7048 23.4327 42.5485 25.0326C42.4118 26.6325 43.0174 27.9007 44.3653 28.8372H44.3849ZM119.499 21.1499H92.1885L91.1922 32.4272H115.748L114.83 42.8461H90.274L89.2777 54.221H117.448L116.491 65.0301H76.0716L80.8774 10.2433H120.437L119.48 21.1304L119.499 21.1499ZM158.356 65.0496L147.728 47.5678H139.25L137.726 65.0496H125.477L130.283 10.2628H151.088C159.625 10.2628 165.564 11.7066 168.963 14.5747C172.343 17.4428 173.769 22.0669 173.203 28.447C172.441 37.227 168.455 42.9046 161.266 45.4606L173.437 65.0496H158.356ZM194.614 65.0496L177.364 10.2628H190.628L201.549 45.1484L218.584 10.2628H231.848L204.987 65.0496H194.614ZM243.824 65.0496H231.575L236.381 10.2628H248.63L243.824 65.0496ZM270.685 49.6164C277.952 57.5769 290.436 54.3381 296.883 47.0995L304.033 55.177C298.172 61.1669 290.651 65.3618 282.153 65.6544C274.26 65.9276 266.407 63.5277 260.917 57.6744C250.095 46.1435 253.474 27.1593 264.629 17.1501C270.939 11.492 279.027 8.60434 287.505 9.03358C295.456 9.44331 302.528 13.0528 307.49 19.2573L299.129 27.8812C296.316 23.9595 292.233 21.306 287.369 20.7792C282.192 20.2134 277.073 21.8133 273.108 25.1887C269.572 28.1934 267.579 32.2516 267.13 37.344C266.68 42.4364 267.872 46.5337 270.685 49.6164ZM354.259 21.1694H326.948L325.951 32.4468H350.508L349.59 42.8656H325.033L324.037 54.2405H352.207L351.27 65.0496H310.85L315.656 10.2628H355.216L354.259 21.1499V21.1694ZM431.17 37.4025C430.428 45.9288 427.283 52.6601 421.754 57.6354C416.225 62.5912 408.216 65.0886 397.745 65.0886H378.991L383.796 10.3018H403.176C412.963 10.3018 420.25 12.6821 425.075 17.4818C429.881 22.262 431.932 28.9153 431.17 37.4221V37.4025ZM494.27 37.3245C493.567 45.363 490.207 52.0943 484.19 57.4989C472.957 67.586 454.027 69.0298 443.224 57.4989C432.401 45.9679 435.566 27.1983 446.76 17.1306C457.993 7.04347 476.923 5.59966 487.726 17.1306C492.805 22.5352 494.973 29.2665 494.27 37.3245ZM548.931 56.6013C537.971 67.7226 517.068 69.5566 505.952 57.694C500.951 52.3675 498.802 45.6362 499.525 37.5196C500.307 28.5055 504.878 20.5841 512.106 15.16C519.373 9.71647 528.809 7.74586 537.659 9.79451C542.465 10.9066 546.84 13.3455 550.396 16.7794L543.246 25.9496C540.98 23.8034 538.831 22.3401 536.838 21.5206C530.489 18.9452 523.046 20.4865 518.045 25.0521C511.54 30.9834 509.488 43.0998 515.662 49.9871C520.956 55.8794 530.372 55.8404 537.014 52.2114L538.323 37.1684H550.65L548.95 56.6013H548.931ZM150.795 20.7792H141.614L140.187 37.0123H149.135C153.315 37.0123 156.226 36.3294 157.867 34.9832C159.508 33.6174 160.446 31.4712 160.719 28.525C160.973 25.5789 160.368 23.5498 158.903 22.4571C157.437 21.3645 154.722 20.8182 150.815 20.8182L150.795 20.7792ZM263.184 133.572C266.446 130.743 268.302 126.646 268.771 121.261C269.24 115.876 268.107 111.739 265.352 108.832C262.597 105.925 258.104 104.481 251.872 104.481H245.055L242.144 137.787H249.919C255.506 137.787 259.941 136.382 263.203 133.553L263.184 133.572ZM546.059 93.7112L542.855 84.2874H538.89L536.78 99.3109H539.319L540.98 87.5848L544.731 98.0036H546.157L552.877 87.5848L551.216 99.3109H553.756L555.866 84.2874H551.939L546.079 93.7112H546.059ZM136.163 110.139L127.861 126.06H141.594L136.163 110.139ZM512.302 160.77L519.041 83.7606H6.73977L0 160.77H512.302ZM482.041 129.143C480.771 128.168 478.153 127.192 474.207 126.197C467.956 124.675 463.463 122.705 460.708 120.285C457.973 117.846 456.82 114.042 457.27 108.832C457.719 103.642 459.946 99.623 463.931 96.794C471.179 91.6626 480.986 91.565 489.132 94.4526C492.688 95.7013 495.716 97.4768 498.236 99.7791L491.242 108.715C488.409 106.413 485.147 104.637 481.572 103.818C478.524 103.116 474.637 102.725 472 104.754C470.73 105.73 470.046 106.998 469.89 108.598C469.753 110.198 470.359 111.466 471.707 112.403C473.054 113.339 476.278 114.451 481.377 115.739C486.475 117.027 490.344 118.939 493 121.495C495.657 124.051 496.771 127.797 496.341 132.714C495.911 137.63 493.723 141.611 489.757 144.674C484.229 148.947 476.825 149.903 470.066 148.927C463.189 147.932 457.055 144.518 452.191 139.621L460.278 130.685C463.345 133.592 466.862 136.226 470.906 137.591C474.168 138.684 478.466 139.094 481.435 137.006C482.803 136.05 483.565 134.743 483.701 133.084C483.838 131.445 483.272 130.138 482.002 129.163L482.041 129.143ZM402.179 93.8283H421.559C431.346 93.8283 438.633 96.2281 443.458 101.008C448.264 105.789 450.296 112.442 449.553 120.968C448.811 129.494 445.666 136.226 440.137 141.181C434.608 146.137 426.599 148.635 416.128 148.635H397.374L402.179 93.8478V93.8283ZM347.089 93.8283H367.894C376.431 93.8283 382.37 95.2721 385.77 98.1402C389.149 101.008 390.575 105.632 390.009 112.013C389.247 120.792 385.262 126.47 378.072 129.026L390.243 148.615H375.181L364.554 131.133H356.075L354.552 148.615H342.303L347.109 93.8283H347.089ZM318.997 93.8283L337.907 148.615H324.877L320.814 136.772H297.82L291.686 148.615H278.656L307.158 93.8283H319.016H318.997ZM233.763 93.8283H253.142C262.93 93.8283 270.236 96.2281 275.042 101.008C279.847 105.789 281.879 112.442 281.137 120.968C280.394 129.494 277.249 136.226 271.721 141.181C266.192 146.137 258.182 148.635 247.711 148.635H228.957L233.763 93.8478V93.8283ZM171.601 93.8283H183.068L206.902 129.104L209.988 93.8283H222.237L217.431 148.615H205.182L182.052 114.276L179.044 148.615H166.795L171.601 93.8283ZM143.509 93.8283L162.419 148.615H149.389L145.325 136.772H122.332L116.198 148.615H103.168L131.67 93.8283H143.528H143.509ZM68.7848 93.8283H112.115L111.197 104.403H95.6463L91.7782 148.615H79.5294L83.3974 104.403H67.8666L68.7848 93.8283ZM47.5692 129.143C46.2994 128.168 43.6816 127.192 39.7354 126.197C33.484 124.675 28.9908 122.705 26.2363 120.285C23.5013 117.846 22.3487 114.042 22.798 108.832C23.2474 103.642 25.4744 99.623 29.4597 96.794C36.7074 91.6626 46.5142 91.565 54.6606 94.4526C58.2161 95.7013 61.2441 97.4768 63.7642 99.7791L56.7705 108.715C53.9378 106.413 50.6753 104.637 47.1003 103.818C44.0528 103.116 40.1652 102.725 37.5279 104.754C36.2581 105.73 35.5743 106.998 35.418 108.598C35.2813 110.198 35.8869 111.466 37.2348 112.403C38.5828 113.339 41.8062 114.451 46.905 115.739C52.0038 117.027 55.8718 118.939 58.5286 121.495C61.1855 124.051 62.299 127.797 61.8692 132.714C61.4394 137.63 59.2514 141.611 55.2857 144.674C49.7571 148.947 42.3532 149.903 35.5938 148.927C28.7173 147.932 22.5831 144.518 17.7188 139.621L25.8065 130.685C29.3815 134.079 33.6794 137.201 38.6414 138.157C42.6657 138.938 48.7804 138.177 49.2297 133.065C49.3664 131.426 48.7999 130.119 47.5301 129.143H47.5692ZM528.731 86.5897L526.953 99.2914H529.493L531.271 86.5897H535.822L536.155 84.2679H524.492L524.16 86.5897H528.731Z" fill="white"/>
<path d="M18.8931 206.669H48.9198L48.6186 210.296H18.5919L18.8931 206.669ZM17.0443 234.663H13.0038L17.5865 179.464H54.6644L54.3632 183.091H21.3259L17.0443 234.663Z" fill="white"/>
<path d="M83.2106 235.057C79.0909 235.057 75.3183 234.373 71.893 233.007C68.5249 231.587 65.6252 229.616 63.1938 227.092C60.8196 224.516 59.0592 221.546 57.9124 218.182C56.77 214.765 56.3647 211.058 56.6964 207.063C57.0281 203.068 58.0467 199.388 59.7521 196.023C61.4618 192.606 63.7155 189.636 66.513 187.113C69.3678 184.537 72.5948 182.565 76.1943 181.198C79.8509 179.779 83.7391 179.069 87.8588 179.069C91.9786 179.069 95.7225 179.779 99.0906 181.198C102.516 182.565 105.418 184.51 107.796 187.034C110.175 189.557 111.935 192.527 113.078 195.944C114.277 199.309 114.709 203.015 114.373 207.063C114.037 211.111 112.988 214.843 111.225 218.261C109.52 221.625 107.268 224.569 104.471 227.092C101.673 229.616 98.446 231.587 94.7894 233.007C91.19 234.373 87.3304 235.057 83.2106 235.057ZM83.5183 231.351C87.0571 231.351 90.382 230.746 93.4929 229.537C96.6039 228.328 99.3602 226.619 101.762 224.411C104.164 222.203 106.094 219.627 107.553 216.683C109.065 213.74 109.965 210.533 110.253 207.063C110.546 203.541 110.178 200.334 109.151 197.443C108.18 194.499 106.677 191.923 104.642 189.715C102.607 187.507 100.135 185.798 97.2246 184.589C94.3144 183.38 91.0899 182.776 87.5511 182.776C84.0124 182.776 80.6875 183.38 77.5765 184.589C74.4655 185.798 71.6828 187.507 69.2284 189.715C66.8267 191.923 64.8699 194.499 63.3579 197.443C61.903 200.334 61.0294 203.541 60.7369 207.063C60.4489 210.533 60.79 213.74 61.7604 216.683C62.7836 219.627 64.3128 222.203 66.3478 224.411C68.4356 226.619 70.9346 228.328 73.8448 229.537C76.7551 230.746 79.9796 231.351 83.5183 231.351Z" fill="white"/>
<path d="M123.521 234.663L128.104 179.464H147.99C152.638 179.464 156.564 180.2 159.77 181.672C162.975 183.144 165.36 185.273 166.924 188.059C168.493 190.793 169.114 194.131 168.786 198.074C168.468 201.911 167.295 205.223 165.268 208.009C163.245 210.743 160.507 212.872 157.053 214.397C153.603 215.869 149.554 216.605 144.906 216.605H127.239L129.218 214.712L127.562 234.663H123.521ZM162.025 234.663L149.269 214.633H153.864L166.62 234.663H162.025ZM129.198 214.949L127.533 213.056H145.201C151.169 213.056 155.794 211.742 159.076 209.113C162.41 206.485 164.274 202.805 164.667 198.074C165.064 193.29 163.811 189.61 160.909 187.034C158.064 184.405 153.657 183.091 147.689 183.091H130.021L132.007 181.12L129.198 214.949Z" fill="white"/>
<path d="M206.357 234.663L210.639 183.091H190.674L190.975 179.464H234.945L234.644 183.091H214.679L210.398 234.663H206.357Z" fill="white"/>
<path d="M237.808 234.663L242.391 179.464H262.277C266.924 179.464 270.851 180.2 274.056 181.672C277.262 183.144 279.647 185.273 281.211 188.059C282.78 190.793 283.401 194.131 283.073 198.074C282.755 201.911 281.582 205.223 279.555 208.009C277.532 210.743 274.794 212.872 271.339 214.397C267.89 215.869 263.841 216.605 259.193 216.605H241.526L243.505 214.712L241.849 234.663H237.808ZM276.312 234.663L263.556 214.633H268.151L280.907 234.663H276.312ZM243.485 214.949L241.82 213.056H259.488C265.456 213.056 270.081 211.742 273.363 209.113C276.697 206.485 278.561 202.805 278.954 198.074C279.351 193.29 278.098 189.61 275.196 187.034C272.351 184.405 267.944 183.091 261.975 183.091H244.308L246.294 181.12L243.485 214.949Z" fill="white"/>
<path d="M282.985 234.663L313.078 179.464H317.119L338.047 234.663H333.69L313.978 181.987H315.721L287.342 234.663H282.985ZM293.623 219.128L295.252 215.737H328.447L329.513 219.128H293.623Z" fill="white"/>
<path d="M345.54 234.663L350.123 179.464H354.163L349.581 234.663H345.54Z" fill="white"/>
<path d="M366.331 234.663L370.914 179.464H374.32L409.684 229.695H407.862L412.032 179.464H416.073L411.49 234.663H408.162L372.719 184.431H374.542L370.371 234.663H366.331Z" fill="white"/>
<path d="M434.322 204.855H464.349L464.054 208.404H434.027L434.322 204.855ZM432.624 231.035H466.849L466.548 234.663H428.282L432.865 179.464H469.943L469.641 183.091H436.604L432.624 231.035Z" fill="white"/>
<path d="M478.705 234.663L483.288 179.464H503.174C507.822 179.464 511.748 180.2 514.953 181.672C518.159 183.144 520.544 185.273 522.108 188.059C523.677 190.793 524.298 194.131 523.97 198.074C523.652 201.911 522.479 205.223 520.452 208.009C518.429 210.743 515.691 212.872 512.237 214.397C508.787 215.869 504.738 216.605 500.09 216.605H482.423L484.402 214.712L482.746 234.663H478.705ZM517.209 234.663L504.453 214.633H509.048L521.804 234.663H517.209ZM484.382 214.949L482.717 213.056H500.385C506.353 213.056 510.978 211.742 514.26 209.113C517.594 206.485 519.458 202.805 519.851 198.074C520.248 193.29 518.995 189.61 516.093 187.034C513.248 184.405 508.841 183.091 502.872 183.091H485.205L487.191 181.12L484.382 214.949Z" fill="white"/>
<path d="M547.696 235.057C543.577 235.057 539.725 234.373 536.141 233.007C532.615 231.587 529.939 229.774 528.116 227.566L530.187 224.569C531.926 226.514 534.377 228.17 537.538 229.537C540.757 230.851 544.214 231.508 547.912 231.508C551.609 231.508 554.659 231.035 557.061 230.089C559.521 229.09 561.373 227.776 562.618 226.146C563.915 224.516 564.646 222.703 564.812 220.705C565.009 218.339 564.532 216.447 563.382 215.027C562.232 213.608 560.663 212.478 558.672 211.637C556.682 210.796 554.497 210.086 552.115 209.508C549.733 208.929 547.328 208.325 544.898 207.694C542.472 207.011 540.273 206.143 538.3 205.092C536.328 204.04 534.782 202.621 533.662 200.833C532.6 198.994 532.189 196.628 532.429 193.736C532.648 191.108 533.535 188.69 535.092 186.482C536.648 184.274 538.936 182.486 541.954 181.12C544.973 179.753 548.753 179.069 553.295 179.069C556.359 179.069 559.332 179.516 562.216 180.41C565.152 181.304 567.613 182.513 569.599 184.037L567.826 187.27C565.633 185.693 563.22 184.537 560.587 183.801C558.012 183.012 555.483 182.618 553.001 182.618C549.462 182.618 546.489 183.117 544.082 184.116C541.675 185.115 539.847 186.455 538.599 188.138C537.354 189.767 536.647 191.607 536.477 193.658C536.28 196.023 536.73 197.916 537.827 199.335C538.977 200.755 540.547 201.885 542.537 202.726C544.527 203.567 546.739 204.277 549.174 204.855C551.608 205.433 554.012 206.064 556.385 206.748C558.762 207.378 560.937 208.22 562.909 209.271C564.882 210.322 566.428 211.742 567.547 213.529C568.666 215.317 569.108 217.63 568.872 220.469C568.659 223.044 567.745 225.463 566.131 227.723C564.522 229.931 562.181 231.719 559.11 233.085C556.096 234.4 552.291 235.057 547.696 235.057Z" fill="white"/>
<path d="M20.0418 300.665C16.5559 300.665 13.4877 300.086 10.8372 298.93C8.23952 297.773 6.23353 296.17 4.81923 294.12C3.4621 292.017 2.89702 289.599 3.12397 286.865C3.31165 284.604 3.98581 282.528 5.14647 280.635C6.31149 278.69 8.10813 276.772 10.5364 274.879C13.0219 272.934 16.2819 270.884 20.3165 268.728C23.8583 266.783 26.6653 265.101 28.7374 263.681C30.8094 262.262 32.2962 260.895 33.1976 259.581C34.0989 258.267 34.6129 256.847 34.7395 255.323C34.9271 253.062 34.3119 251.249 32.8936 249.882C31.5282 248.515 29.4459 247.831 26.6465 247.831C23.6888 247.831 21.3015 248.594 19.4848 250.118C17.7252 251.59 16.7429 253.562 16.5378 256.032C16.4417 257.189 16.5349 258.293 16.8174 259.344C17.0998 260.396 17.6618 261.579 18.5034 262.893C19.4022 264.155 20.6445 265.732 22.2304 267.624L49.0635 298.457L46.4707 301.059L18.8381 269.359C17.1509 267.414 15.8403 265.705 14.9062 264.233C13.972 262.761 13.3461 261.395 13.0283 260.133C12.7677 258.819 12.6963 257.452 12.8141 256.032C13.0018 253.772 13.6936 251.801 14.8897 250.118C16.1385 248.436 17.7793 247.122 19.8121 246.175C21.8977 245.229 24.261 244.756 26.9019 244.756C29.3843 244.756 31.4885 245.177 33.2144 246.018C34.9932 246.859 36.3189 248.068 37.1915 249.645C38.0685 251.17 38.4153 253.036 38.232 255.244C38.0705 257.189 37.4445 259.003 36.3542 260.685C35.321 262.315 33.6518 263.971 31.3466 265.653C29.0458 267.283 25.9331 269.149 22.0084 271.252C18.3566 273.249 15.4596 275.063 13.3172 276.693C11.1748 278.322 9.61564 279.926 8.63963 281.503C7.7208 283.027 7.185 284.71 7.03224 286.55C6.8533 288.705 7.30357 290.598 8.38307 292.227C9.46257 293.857 11.0216 295.119 13.0601 296.012C15.1514 296.906 17.6231 297.353 20.4753 297.353C24.2781 297.353 27.7217 296.591 30.8061 295.066C33.8948 293.489 36.5736 291.123 38.8425 287.969C41.1115 284.815 42.8935 280.846 44.1885 276.062L47.3517 277.087C45.9161 282.291 43.8901 286.655 41.2737 290.177C38.6617 293.647 35.5649 296.275 31.9834 298.063C28.4062 299.797 24.4257 300.665 20.0418 300.665Z" fill="white"/>
<path d="M120.371 245.072H124.412L119.829 300.27H115.788L120.371 245.072ZM78.7106 300.27H74.6701L79.2528 245.072H83.2934L78.7106 300.27ZM118.444 274.012H80.4153L80.7099 270.463H118.739L118.444 274.012Z" fill="white"/>
<path d="M127.352 300.27L157.445 245.072H161.486L182.414 300.27H178.057L158.345 247.595H160.088L131.709 300.27H127.352ZM137.99 284.736L139.619 281.345H172.814L173.88 284.736H137.99Z" fill="white"/>
<path d="M189.907 300.27L194.49 245.072H197.896L233.26 295.303H231.438L235.608 245.072H239.649L235.066 300.27H231.738L196.296 250.039H198.118L193.948 300.27H189.907Z" fill="white"/>
<path d="M251.858 300.27L256.441 245.072H278.387C284.249 245.072 289.301 246.254 293.541 248.62C297.781 250.986 300.944 254.245 303.029 258.398C305.166 262.551 306.013 267.309 305.567 272.671C305.122 278.033 303.486 282.791 300.659 286.944C297.884 291.097 294.181 294.356 289.548 296.722C284.914 299.088 279.667 300.27 273.804 300.27H251.858ZM256.2 296.643H273.788C279.017 296.643 283.644 295.618 287.67 293.568C291.696 291.517 294.914 288.705 297.323 285.13C299.737 281.503 301.138 277.35 301.527 272.671C301.915 267.992 301.202 263.865 299.386 260.291C297.574 256.663 294.826 253.824 291.14 251.774C287.455 249.724 282.997 248.699 277.768 248.699H260.18L256.2 296.643Z" fill="white"/>
<path d="M314.738 300.27L319.32 245.072H323.361L319.079 296.643H351.008L350.706 300.27H314.738Z" fill="white"/>
<path d="M364.547 270.463H394.574L394.279 274.012H364.252L364.547 270.463ZM362.849 296.643H397.074L396.773 300.27H358.507L363.09 245.072H400.168L399.867 248.699H366.829L362.849 296.643Z" fill="white"/>
<path d="M408.93 300.27L413.513 245.072H433.399C438.047 245.072 441.973 245.807 445.179 247.279C448.384 248.751 450.769 250.881 452.333 253.667C453.902 256.4 454.523 259.739 454.195 263.681C453.877 267.519 452.704 270.831 450.677 273.617C448.654 276.351 445.916 278.48 442.462 280.005C439.012 281.477 434.963 282.213 430.315 282.213H412.648L414.627 280.32L412.971 300.27H408.93ZM447.434 300.27L434.678 280.241H439.273L452.029 300.27H447.434ZM414.607 280.557L412.942 278.664H430.61C436.578 278.664 441.203 277.35 444.485 274.721C447.819 272.093 449.683 268.413 450.076 263.681C450.473 258.898 449.22 255.218 446.318 252.642C443.473 250.013 439.066 248.699 433.098 248.699H415.43L417.416 246.727L414.607 280.557Z" fill="white"/>
<path d="M477.921 300.665C473.802 300.665 469.95 299.981 466.366 298.615C462.84 297.195 460.164 295.381 458.341 293.173L460.412 290.177C462.152 292.122 464.602 293.778 467.763 295.145C470.982 296.459 474.44 297.116 478.137 297.116C481.834 297.116 484.884 296.643 487.286 295.697C489.746 294.698 491.598 293.384 492.843 291.754C494.14 290.124 494.872 288.311 495.037 286.313C495.234 283.947 494.757 282.055 493.607 280.635C492.458 279.216 490.888 278.086 488.898 277.245C486.908 276.404 484.722 275.694 482.34 275.116C479.959 274.537 477.553 273.933 475.123 273.302C472.697 272.618 470.498 271.751 468.525 270.7C466.553 269.648 465.007 268.229 463.888 266.441C462.826 264.601 462.415 262.236 462.655 259.344C462.873 256.716 463.76 254.298 465.317 252.09C466.873 249.882 469.161 248.094 472.179 246.727C475.198 245.361 478.978 244.677 483.52 244.677C486.584 244.677 489.557 245.124 492.441 246.018C495.377 246.911 497.839 248.121 499.825 249.645L498.051 252.878C495.858 251.301 493.445 250.145 490.812 249.409C488.237 248.62 485.708 248.226 483.226 248.226C479.687 248.226 476.714 248.725 474.307 249.724C471.9 250.723 470.073 252.063 468.824 253.746C467.579 255.375 466.872 257.215 466.702 259.266C466.505 261.631 466.956 263.524 468.052 264.943C469.202 266.363 470.772 267.493 472.762 268.334C474.752 269.175 476.965 269.885 479.399 270.463C481.833 271.041 484.237 271.672 486.61 272.356C488.987 272.986 491.162 273.828 493.135 274.879C495.107 275.93 496.653 277.35 497.772 279.137C498.892 280.925 499.333 283.238 499.098 286.076C498.884 288.652 497.97 291.071 496.356 293.331C494.747 295.539 492.406 297.327 489.335 298.693C486.321 300.008 482.517 300.665 477.921 300.665Z" fill="white"/>
</g>
</svg>
