<svg xmlns="http://www.w3.org/2000/svg" viewBox="0 0 204.46 57.77"><defs><style>.cls-1{fill:#fff;}</style></defs><g id="Layer_2" data-name="Layer 2"><g id="Layer_1-2" data-name="Layer 1"><path class="cls-1" d="M111.86,39.58l-3,5.72h4.93ZM54.12,7.46h-3.3l-.51,5.84h3.21a5,5,0,0,0,3.14-.74,3.2,3.2,0,0,0,1-2.32A2.32,2.32,0,0,0,57,8.06,5.08,5.08,0,0,0,54.12,7.46ZM154.92,48a6.3,6.3,0,0,0,2-4.42,5.51,5.51,0,0,0-1.23-4.47q-1.48-1.56-4.84-1.56h-2.45l-1,12h2.79A7,7,0,0,0,154.92,48Zm-20.44-5.41a3.3,3.3,0,0,0,1-2.32,2.33,2.33,0,0,0-.66-2.19,5.16,5.16,0,0,0-2.9-.59h-3.3l-.51,5.83h3.21A5,5,0,0,0,134.48,42.59ZM5,0,2.56,27.68H202L204.46,0Zm11,10.37a13.55,13.55,0,0,0,3.48,1.19,9.17,9.17,0,0,1,4.17,2.07,4.73,4.73,0,0,1,1.19,4A5.86,5.86,0,0,1,22.41,22a9.39,9.39,0,0,1-7.07,1.53,11.4,11.4,0,0,1-6.42-3.35l2.9-3.21a10.73,10.73,0,0,0,3.82,2.48,4.37,4.37,0,0,0,3.77-.21,1.86,1.86,0,0,0,.82-1.41,1.5,1.5,0,0,0-.61-1.41,8.83,8.83,0,0,0-2.81-1.06A11.38,11.38,0,0,1,12,13.2a4.66,4.66,0,0,1-1.24-4.12,5.66,5.66,0,0,1,2.4-4.32,10.06,10.06,0,0,1,9-.85,9.31,9.31,0,0,1,3.27,1.92L22.94,9a8.79,8.79,0,0,0-3.47-1.76A4.21,4.21,0,0,0,16,7.62,1.89,1.89,0,0,0,15.28,9,1.42,1.42,0,0,0,15.93,10.37Zm27-2.77h-9.8l-.35,4.06h8.81l-.32,3.75H32.41l-.36,4.08H42.16l-.34,3.89H27.32L29,3.69h14.2Zm14,15.78L53,17.1H50l-.55,6.28H45L46.76,3.69h7.46q4.59,0,6.42,1.55t1.52,5c-.28,3.16-1.7,5.2-4.28,6.12l4.37,7Zm13,0L63.66,3.69h4.76l3.92,12.54L78.45,3.69h4.76L73.57,23.38Zm17.67,0h-4.4L84.85,3.69h4.39Zm9.64-5.55c2.61,2.86,7.09,1.7,9.4-.9l2.57,2.9a11.64,11.64,0,0,1-7.86,3.77,9.8,9.8,0,0,1-7.62-2.87C89.77,16.59,91,9.77,95,6.17a11.34,11.34,0,0,1,8.21-2.92,9.7,9.7,0,0,1,7.18,3.68l-3,3.1a6,6,0,0,0-4.22-2.56A6.71,6.71,0,0,0,98,9.06a6.18,6.18,0,0,0-2.15,4.36A5.54,5.54,0,0,0,97.16,17.83Zm30-10.23h-9.81L117,11.66h8.81l-.32,3.75h-8.82l-.36,4.08h10.11l-.34,3.89h-14.5L113.3,3.69h14.2Zm27.6,5.84a10.6,10.6,0,0,1-3.38,7.26q-3,2.68-8.62,2.68H136l1.72-19.69h7q5.26,0,7.86,2.58T154.76,13.44Zm22.65,0a10.66,10.66,0,0,1-3.62,7.25c-4,3.63-10.82,4.15-14.7,0s-2.76-10.89,1.27-14.51,10.82-4.14,14.7,0A9,9,0,0,1,177.41,13.41ZM197,20.34c-3.93,4-11.44,4.65-15.43.39a9,9,0,0,1-2.31-7.25A11.26,11.26,0,0,1,193,3.52,9.73,9.73,0,0,1,197.55,6L195,9.32a7.58,7.58,0,0,0-2.3-1.59A6.51,6.51,0,0,0,185.94,9c-2.33,2.13-3.07,6.48-.85,9,1.89,2.12,5.28,2.1,7.66.8l.47-5.41h4.42ZM48.87,39.58l-3,5.72h4.93ZM0,57.77H183.88l2.43-27.68H2.42ZM173,46.41a8.83,8.83,0,0,0-2.81-1.06,11.44,11.44,0,0,1-4.84-2.12,4.63,4.63,0,0,1-1.23-4.12,5.6,5.6,0,0,1,2.39-4.32,10.06,10.06,0,0,1,9-.85,9.31,9.31,0,0,1,3.27,1.92l-2.5,3.21a8.79,8.79,0,0,0-3.47-1.76,4.21,4.21,0,0,0-3.44.34,1.89,1.89,0,0,0-.75,1.38,1.41,1.41,0,0,0,.65,1.36,13,13,0,0,0,3.48,1.2A9.17,9.17,0,0,1,177,43.66a4.73,4.73,0,0,1,1.19,4,5.86,5.86,0,0,1-2.36,4.3,9.34,9.34,0,0,1-7.07,1.52,11.36,11.36,0,0,1-6.42-3.34l2.9-3.21A10.73,10.73,0,0,0,169,49.44a4.37,4.37,0,0,0,3.77-.21,1.86,1.86,0,0,0,.82-1.41A1.5,1.5,0,0,0,173,46.41ZM144.35,33.72h7q5.26,0,7.86,2.58t2.19,7.17A10.6,10.6,0,0,1,158,50.73q-3,2.69-8.62,2.68h-6.73Zm-19.78,0H132c3.06,0,5.2.51,6.41,1.55s1.73,2.69,1.53,5q-.42,4.74-4.29,6.12l4.37,7h-5.4l-3.82-6.28h-3l-.55,6.28h-4.4Zm-10.08,0,6.78,19.69H116.6l-1.46-4.25h-8.26l-2.2,4.25H100l10.24-19.69Zm-30.6,0h7c3.51,0,6.14.86,7.86,2.58s2.46,4.1,2.19,7.17a10.52,10.52,0,0,1-3.38,7.26q-3,2.69-8.62,2.68H82.17Zm-22.31,0H65.7L74.25,46.4l1.11-12.68h4.39L78,53.41H73.64L65.33,41.07,64.25,53.41H59.86Zm-10.08,0,6.78,19.69H53.61l-1.46-4.25H43.89l-2.2,4.25H37L47.24,33.72Zm-26.82,0H40.23l-.33,3.8H34.32L32.93,53.41h-4.4l1.39-15.89H24.35ZM17.06,46.41a8.73,8.73,0,0,0-2.81-1.06,11.44,11.44,0,0,1-4.84-2.12,4.63,4.63,0,0,1-1.23-4.12,5.6,5.6,0,0,1,2.39-4.32,10.08,10.08,0,0,1,9.05-.85,9.49,9.49,0,0,1,3.27,1.92l-2.51,3.21a8.79,8.79,0,0,0-3.47-1.76,4.21,4.21,0,0,0-3.44.34A1.89,1.89,0,0,0,12.72,39a1.4,1.4,0,0,0,.66,1.36,12.79,12.79,0,0,0,3.47,1.2A9.07,9.07,0,0,1,21,43.66a4.77,4.77,0,0,1,1.2,4A5.9,5.9,0,0,1,19.85,52a9.34,9.34,0,0,1-7.07,1.52,11.36,11.36,0,0,1-6.42-3.34L9.27,47a9.62,9.62,0,0,0,4.6,2.69c1.44.27,3.64,0,3.8-1.83A1.5,1.5,0,0,0,17.06,46.41ZM94.46,48a6.3,6.3,0,0,0,2-4.42,5.51,5.51,0,0,0-1.23-4.47q-1.48-1.56-4.83-1.56H88l-1,12H89.7A7,7,0,0,0,94.46,48Zm93.68-16.88h1.64l-.64,4.56h.91l.64-4.56h1.64l.11-.84h-4.18ZM144.26,7.52h-2.45l-1.05,12h2.79A7,7,0,0,0,148.32,18a6.3,6.3,0,0,0,2-4.42,5.51,5.51,0,0,0-1.23-4.47Q147.62,7.52,144.26,7.52ZM196,33.67l-1.15-3.39h-1.42l-.76,5.4h.91l.6-4.21,1.35,3.74h.5l2.41-3.74-.59,4.21h.91l.76-5.4h-1.41ZM167.64,7.07a5.93,5.93,0,0,0-4.32,1.86,7.06,7.06,0,0,0-2.08,4.49,5.94,5.94,0,0,0,1.3,4.48c2.16,2.61,6,2.26,8.31,0a7,7,0,0,0,2.08-4.48,6,6,0,0,0-1.3-4.49A4.89,4.89,0,0,0,167.64,7.07Z"/></g></g></svg>