<svg xmlns="http://www.w3.org/2000/svg" viewBox="0 0 328.47 73.55"><defs><style>.cls-1{fill:#fff;}</style></defs><g id="Layer_2" data-name="Layer 2"><g id="Layer_1-2" data-name="Layer 1"><path class="cls-1" d="M125,.5l0-.09.06.08Z"/><path class="cls-1" d="M125.89,2.12l.6-.33a5,5,0,0,0,1.28-.86l.12-.18A.74.74,0,0,0,128,.49a.54.54,0,0,0-.09-.27.36.36,0,0,0-.19-.16.58.58,0,0,0-.29-.06,3.62,3.62,0,0,0-.4.05l-.17,0-.27.06-.38.1-.12,0-.15,0h0V.41l-.26-.32c-1.77,1-3.45,2.12-5.06,3.26-.8.57-1.57,1.14-2.33,1.73a82.59,82.59,0,0,0-6.72,5.85q-2.07,2-4,4.11c-1.07,1.16-2.13,2.32-3.17,3.51s-2.33,2.67-3.48,4a28.85,28.85,0,0,0-9.68-5.35c-.52-.17-1-.32-1.56-.46l-.17-.05a28.26,28.26,0,0,0-5.32-.86c-.61,0-1.22-.06-1.84-.06H28.88a29.07,29.07,0,0,0-3.12.17c-.74.08-1.45.22-2.16.36-.29.05-.59.08-.87.14-.58.13-1.15.28-1.72.45a28.28,28.28,0,0,0-5.71,2.33c-.34.18-.69.35-1,.55A27.16,27.16,0,0,0,12,21.3l-.13.1a27.67,27.67,0,0,0-2.76,2.31c-.18.17-.38.33-.55.51a28.88,28.88,0,0,0-3.13,3.67c-.31.42-.59.85-.87,1.29l-.1.15A28,28,0,0,0,3,32.07,28.59,28.59,0,0,0,.43,39.9c0,.16,0,.33-.08.49-.07.43-.15.86-.19,1.3-.08.73-.1,1.48-.12,2.23,0,.26,0,.5,0,.75A28.16,28.16,0,0,0,.36,49.2a29.13,29.13,0,0,0,1,4.31c.17.55.38,1.09.59,1.63.28.7.6,1.38.93,2.06.08.18.15.37.25.55.41.8.86,1.58,1.34,2.34a29.46,29.46,0,0,0,1.71,2.43q.88,1.11,1.86,2.13c.42.44.86.86,1.31,1.27.69.63,1.4,1.22,2.14,1.78a28.51,28.51,0,0,0,4.76,2.92c.84.41,1.71.78,2.59,1.11s1.55.54,2.34.76c.61.16,1.23.31,1.85.45s1.26.24,1.9.33a28,28,0,0,0,3.91.28H82.27a28.85,28.85,0,0,0,8.31-1.23c.77-.23,1.51-.51,2.25-.8A28.35,28.35,0,0,0,97.77,69c.77-.5,1.52-1,2.24-1.59s1.42-1.17,2.08-1.8c.45-.41.87-.85,1.28-1.29a29.19,29.19,0,0,0,3.73-5,29.49,29.49,0,0,0,1.49-2.91c.24-.55.5-1.09.72-1.66s.41-1.08.58-1.64a28.16,28.16,0,0,0,.93-4.11,27.5,27.5,0,0,0,.32-4.08c0-.08,0-.15,0-.23,0-.84-.05-1.67-.12-2.5,0-.29-.07-.57-.1-.86s-.06-.64-.11-1a28.29,28.29,0,0,0-2.25-7.48c-.36-.81-.76-1.59-1.19-2.35-.15-.27-.29-.55-.45-.82s-.15-.27-.24-.41l1.46-2.12.46-.66c.43-.73.85-1.46,1.28-2.15a19,19,0,0,1,1.36-1.94c.37-.45.78-.9,1.21-1.36.88-.92,1.87-1.84,2.8-2.69l1.35-1.22.41-.37-.48-.29s0,0,0-.09a6.06,6.06,0,0,1,.76-1.91,10,10,0,0,0,.78-1.7,1.93,1.93,0,0,0,.08-.52.77.77,0,0,0-.13-.47l.23-.19c.42-.36.86-.74,1.24-1.1a10.21,10.21,0,0,0,.74-.75c.1-.13.18-.21.25-.32a.82.82,0,0,0,.14-.4v-.1l0-.06a1.72,1.72,0,0,1-.06-.34,2.09,2.09,0,0,1,0-.28c0-.66.32-1.68,1.56-3.18a19.14,19.14,0,0,1,1.44-1.52l.29-.21L124,3.2c.37-.25.81-.49,1.24-.73ZM32.68,48.35c0,.51-.09,1-.16,1.51a23.44,23.44,0,0,1-.63,2.93,22.66,22.66,0,0,1-.8,2.32s0,.09-.05.14a21.72,21.72,0,0,1-1.5,2.92,22.28,22.28,0,0,1-4.17,5,23.94,23.94,0,0,1-2.6,2,.45.45,0,0,1-.25.07.32.32,0,0,1-.14,0,22.12,22.12,0,0,1-3-1.15l-.8-.44-1-.54s-1.1-.46.06-.76a20.61,20.61,0,0,0,9-5,12.45,12.45,0,0,0,2-2.52c.1-.17.17-.36.27-.53A22,22,0,0,0,30,51.94a20.92,20.92,0,0,0,1.35-5.11,20.41,20.41,0,0,0,.18-2.73c0-.27,0-.54,0-.82a.46.46,0,0,1,.42-.48.37.37,0,0,1,.23.07.29.29,0,0,1,.1,0,.46.46,0,0,1,.17.29,21.45,21.45,0,0,1,.31,3.61C32.74,47.32,32.72,47.84,32.68,48.35Zm71-2.49c0,.66-.1,1.31-.19,2s-.22,1.27-.37,1.89a16.25,16.25,0,0,1-.47,1.69,21.38,21.38,0,0,1-6.27,9.42c-.48.42-1,.82-1.49,1.19a21.32,21.32,0,0,1-12.58,4.1h-43a6.4,6.4,0,0,1,2.52-3.24,13.27,13.27,0,0,1,3.48-1.65q.7-.24,1.5-.45A41.18,41.18,0,0,0,52.05,59a30.92,30.92,0,0,0,2.81-1.33q.63-.35,1.2-.69a22.11,22.11,0,0,0,2-1.4c.3-.23.59-.46.85-.69a18.59,18.59,0,0,0,1.41-1.35,13.19,13.19,0,0,0,2.05-2.87A7,7,0,0,0,63.05,49V41.13c.38-.74,1-1.63.63-2.49a2.3,2.3,0,0,0-1.26-1.16A12.06,12.06,0,0,0,59,36.59c-1.43-.22-3.14-.36-5.1-.47-1.3-.07-2.71-.12-4.21-.17l-1.73,0-3.17-.08-.17-.35c-.14-.25-.31-.57-.53-.94s-.5-.81-.83-1.31c-.5-.76-1.15-1.66-2-2.75A6.33,6.33,0,0,0,39.62,29a14.06,14.06,0,0,0-2.49-1.2c-.55-.2-1.13-.38-1.73-.54a28.25,28.25,0,0,0-2.84-.64l-1-.16c-.67-.1-1.35-.2-2-.27-.4-.05-.8-.07-1.2-.11l-1.9-.12-1.23,0c-.84,0-1.67,0-2.47,0h0c-.59,0-1.17.05-1.72.09s-1.21.1-1.77.17-1.09.16-1.58.25c.53-.32,1.08-.62,1.63-.9S20.42,25,21,24.75a16.64,16.64,0,0,1,1.72-.6,21.18,21.18,0,0,1,6.15-.91H82.27c.63,0,1.25,0,1.87.09s1.22.13,1.82.24a21.35,21.35,0,0,1,3.47.92c.59.21,1.16.44,1.73.7a21.13,21.13,0,0,1,5.14,3.29c-1.37,1.89-3.19,4.39-5.14,7.16-.57.8-1.15,1.63-1.73,2.46l-1.61,2.34c-1.41,2.1-2.82,4.22-4.15,6.27a68.43,68.43,0,0,0-4.55-7L76.74,37,75,35.06h0v0l.18.84h0L75,35.67a4.06,4.06,0,0,0-.5-.6,5,5,0,0,0-1.29-1.28,1.16,1.16,0,0,0-.41-.13h0a.56.56,0,0,0-.38.15h0a.72.72,0,0,0-.2.29,3.24,3.24,0,0,0-.14,1c0,.35,0,.71,0,1.07v.2a1,1,0,0,0-.35.2L71,35.31,70.89,35l-.29.06a.44.44,0,0,0-.16.06L70.32,35l-.41-.74-.33.77a.67.67,0,0,0-.06.28,0,0,0,0,0,0,0h0l-.35-.44a3.33,3.33,0,0,0-.84-.79A1.2,1.2,0,0,0,68,34a.59.59,0,0,0-.33.11,9.7,9.7,0,0,0-.77-1.43L66.42,32l0,.05-.16-.27-.14,1.09,0,.06v0L66,33.5l.06.14-.06,0,0,1.14v.05l0,0c.19.7.33,1.4.47,2a7.55,7.55,0,0,0,.51,1.6C69.85,44,78,59,78,59.09c0,.3.19.34.22.36l.1,0h.88l2.78,0h1.11l4.51,0h.12l.11-.07.07,0,0-.07h0l.26-.32.22-.28.36-.45.76-.93.47-.57,4-6.72-.31,0c.12-.19.25-.39.4-.6s.31-.44.49-.67c.34-.47.73-1,1.1-1.49l.33-.59,0-.07v-.2a1.5,1.5,0,0,0,0-.22L97,45.07c1.64-2.86,3.32-5.73,5.09-8.61a20.41,20.41,0,0,1,1.12,3.61c.14.63.24,1.26.32,1.9s.13,1.3.16,2c0,.26,0,.5,0,.75S103.66,45.46,103.64,45.86Zm132.24,9.49-3,5.72h4.93Zm43.05,8.43a6.33,6.33,0,0,0,2-4.43,5.48,5.48,0,0,0-1.23-4.46c-1-1-2.6-1.57-4.84-1.57h-2.45l-1,12h2.79A7,7,0,0,0,278.93,63.78Zm-20.44-5.41a3.24,3.24,0,0,0,1-2.33,2.3,2.3,0,0,0-.66-2.18,5.12,5.12,0,0,0-2.9-.59h-3.3l-.51,5.83h3.21A5,5,0,0,0,258.49,58.37Zm53.66-11.48h1.64l-.64,4.57h.91l.64-4.57h1.64l.12-.83h-4.19ZM268.28,23.3h-2.46l-1,12h2.79a7,7,0,0,0,4.76-1.52,6.33,6.33,0,0,0,2-4.43,5.48,5.48,0,0,0-1.23-4.46Q271.63,23.3,268.28,23.3Zm-90.15-.06h-3.29l-.51,5.83h3.21a5,5,0,0,0,3.13-.73,3.24,3.24,0,0,0,1-2.33,2.3,2.3,0,0,0-.65-2.18A5.18,5.18,0,0,0,178.13,23.24Zm113.52-.4a5.89,5.89,0,0,0-4.31,1.86,7.07,7.07,0,0,0-2.09,4.5,6,6,0,0,0,1.3,4.48c2.16,2.6,6,2.26,8.31,0a7,7,0,0,0,2.08-4.48,6,6,0,0,0-1.29-4.5A4.93,4.93,0,0,0,291.65,22.84ZM129,15.77l-2.42,27.69H326.05l2.42-27.69ZM140,26.14a12.79,12.79,0,0,0,3.47,1.2,9.07,9.07,0,0,1,4.17,2.07,4.76,4.76,0,0,1,1.2,4,5.9,5.9,0,0,1-2.37,4.29,9.34,9.34,0,0,1-7.07,1.53,11.48,11.48,0,0,1-6.42-3.34l2.91-3.22a10.35,10.35,0,0,0,3.81,2.48,4.36,4.36,0,0,0,3.78-.21,1.84,1.84,0,0,0,.81-1.41,1.48,1.48,0,0,0-.61-1.4,8.73,8.73,0,0,0-2.81-1.06A11.56,11.56,0,0,1,136,29q-1.48-1.3-1.23-4.11a5.64,5.64,0,0,1,2.39-4.33c2.6-1.84,6.12-1.87,9.05-.84a9.63,9.63,0,0,1,3.27,1.91L147,24.82a8.53,8.53,0,0,0-3.47-1.76,4.25,4.25,0,0,0-3.44.33,1.89,1.89,0,0,0-.75,1.38A1.42,1.42,0,0,0,140,26.14Zm27-2.76H157.1l-.35,4.06h8.82l-.33,3.74h-8.82l-.36,4.09h10.12l-.34,3.89H151.33l1.72-19.7h14.2Zm13.94,15.78L177,32.87h-3l-.55,6.29h-4.39l1.72-19.7h7.47q4.59,0,6.41,1.55c1.22,1,1.72,2.7,1.52,5q-.4,4.72-4.28,6.11l4.37,7Zm13,0-6.2-19.7h4.77L196.35,32l6.11-12.54h4.77l-9.64,19.7Zm17.66,0h-4.39l1.72-19.7h4.39Zm9.64-5.55c2.61,2.86,7.09,1.7,9.41-.91l2.56,2.91a11.6,11.6,0,0,1-7.86,3.76,9.79,9.79,0,0,1-7.62-2.86c-3.88-4.15-2.67-11,1.33-14.57A11.34,11.34,0,0,1,227.21,19a9.65,9.65,0,0,1,7.17,3.67l-3,3.1a6,6,0,0,0-4.22-2.55A6.76,6.76,0,0,0,222,24.83a6.19,6.19,0,0,0-2.14,4.37A5.53,5.53,0,0,0,221.17,33.61Zm30-10.23h-9.81L241,27.44h8.82l-.33,3.74h-8.82l-.36,4.09h10.12l-.34,3.89H235.59l1.72-19.7h14.2Zm27.6,5.83a10.58,10.58,0,0,1-3.38,7.27c-2,1.78-4.86,2.68-8.62,2.68H260l1.72-19.7h7q5.26,0,7.86,2.58T278.77,29.21Zm22.66,0a10.74,10.74,0,0,1-3.63,7.26c-4,3.62-10.82,4.14-14.7,0s-2.75-10.89,1.27-14.51,10.82-4.14,14.7,0A9,9,0,0,1,301.43,29.18Zm19.62,6.93c-3.94,4-11.44,4.66-15.43.4a9,9,0,0,1-2.31-7.26,11.25,11.25,0,0,1,13.69-10,9.82,9.82,0,0,1,4.57,2.51L319,25.1a7.83,7.83,0,0,0-2.3-1.59A6.52,6.52,0,0,0,310,24.77c-2.33,2.13-3.07,6.49-.85,9,1.9,2.12,5.28,2.11,7.66.81l.47-5.41h4.43ZM218.48,63.78a6.36,6.36,0,0,0,2-4.43,5.48,5.48,0,0,0-1.23-4.46c-1-1-2.6-1.57-4.83-1.57H212l-1.05,12h2.79A7.06,7.06,0,0,0,218.48,63.78Zm-45.6-8.43-3,5.72h4.93ZM320,49.45l-1.16-3.39h-1.42l-.76,5.4h.92l.59-4.22L319.54,51h.51l2.41-3.75-.6,4.22h.92l.75-5.4h-1.41ZM124,73.55H307.9l2.42-27.68H126.43ZM297,62.18a8.78,8.78,0,0,0-2.81-1A11.56,11.56,0,0,1,289.38,59q-1.49-1.3-1.23-4.11a5.64,5.64,0,0,1,2.39-4.33c2.6-1.84,6.12-1.87,9-.84a9.63,9.63,0,0,1,3.27,1.91l-2.51,3.22a8.53,8.53,0,0,0-3.47-1.76,4.22,4.22,0,0,0-3.43.33,1.87,1.87,0,0,0-.76,1.38,1.42,1.42,0,0,0,.66,1.37,12.79,12.79,0,0,0,3.47,1.2A9.07,9.07,0,0,1,301,59.44a4.76,4.76,0,0,1,1.2,4,5.89,5.89,0,0,1-2.36,4.29,9.38,9.38,0,0,1-7.08,1.53,11.37,11.37,0,0,1-6.41-3.35l2.9-3.21a10.43,10.43,0,0,0,3.81,2.48,4.39,4.39,0,0,0,3.78-.21,1.85,1.85,0,0,0,.81-1.41A1.5,1.5,0,0,0,297,62.18ZM268.36,49.49h7q5.26,0,7.86,2.58t2.19,7.17A10.6,10.6,0,0,1,282,66.51q-3,2.67-8.62,2.67h-6.73Zm-19.77,0h7.46q4.59,0,6.42,1.55T264,56c-.28,3.15-1.7,5.19-4.28,6.11l4.37,7h-5.41l-3.82-6.28h-3l-.55,6.28h-4.4Zm-10.09,0,6.79,19.69h-4.68l-1.46-4.25H230.9l-2.21,4.25H224l10.23-19.69Zm-30.59,0h7q5.26,0,7.86,2.58t2.19,7.17a10.61,10.61,0,0,1-3.39,7.27c-2,1.78-4.86,2.67-8.61,2.67h-6.74Zm-22.31,0h4.11l8.55,12.68,1.11-12.68h4.4L202,69.18h-4.39l-8.3-12.33-1.08,12.33h-4.4Zm-10.09,0,6.79,19.69h-4.68l-1.46-4.25h-8.25l-2.21,4.25H161l10.23-19.69Zm-26.82,0h15.55l-.33,3.81h-5.58l-1.39,15.88h-4.39l1.39-15.88h-5.58Zm-7.62,12.69a8.68,8.68,0,0,0-2.81-1A11.62,11.62,0,0,1,133.42,59q-1.47-1.3-1.23-4.11a5.64,5.64,0,0,1,2.39-4.33c2.6-1.84,6.13-1.87,9-.84a9.63,9.63,0,0,1,3.27,1.91l-2.51,3.22a8.47,8.47,0,0,0-3.47-1.76,4.22,4.22,0,0,0-3.43.33,1.87,1.87,0,0,0-.76,1.38,1.42,1.42,0,0,0,.66,1.37,12.79,12.79,0,0,0,3.47,1.2A9.07,9.07,0,0,1,145,59.44a4.76,4.76,0,0,1,1.2,4,5.89,5.89,0,0,1-2.36,4.29,9.36,9.36,0,0,1-7.07,1.53,11.37,11.37,0,0,1-6.42-3.35l2.9-3.21a9.59,9.59,0,0,0,4.6,2.69c1.44.28,3.64,0,3.8-1.83A1.5,1.5,0,0,0,141.07,62.18Z"/></g></g></svg>