<svg xmlns="http://www.w3.org/2000/svg" viewBox="0 0 374.64 83.88"><defs><style>.cls-1{fill:#3f4b52;}</style></defs><g id="Layer_2" data-name="Layer 2"><g id="Layer_1-2" data-name="Layer 1"><path class="cls-1" d="M142.53.57l-.06-.1.07.09Z"/><path class="cls-1" d="M318.13,72.74a7.17,7.17,0,0,0,2.29-5A6.24,6.24,0,0,0,319,62.6q-1.69-1.79-5.51-1.78h-2.8l-1.19,13.65h3.18A8,8,0,0,0,318.13,72.74Zm14.51-46.69a6.72,6.72,0,0,0-4.92,2.13,8,8,0,0,0-2.38,5.12,6.8,6.8,0,0,0,1.48,5.11c2.47,3,6.9,2.58,9.48,0a8,8,0,0,0,2.38-5.11,6.83,6.83,0,0,0-1.48-5.12A5.6,5.6,0,0,0,332.64,26.05Zm-129.47.45h-3.76l-.58,6.66h3.66a5.69,5.69,0,0,0,3.57-.84,3.73,3.73,0,0,0,1.17-2.65,2.65,2.65,0,0,0-.75-2.49A5.83,5.83,0,0,0,203.17,26.5ZM143.58,2.41l.69-.37a6,6,0,0,0,1.46-1l.13-.2a.77.77,0,0,0,.08-.3.54.54,0,0,0-.1-.31.43.43,0,0,0-.21-.18A.65.65,0,0,0,145.3,0l-.46.06-.2.05-.3.07-.44.1a.34.34,0,0,1-.13,0l-.17,0h0V.47L143.29.1c-2,1.18-3.94,2.42-5.78,3.72-.9.65-1.79,1.31-2.65,2a89.71,89.71,0,0,0-7.66,6.67c-1.58,1.52-3.11,3.09-4.6,4.69-1.23,1.31-2.43,2.64-3.62,4-1.34,1.53-2.66,3.06-4,4.61a32.72,32.72,0,0,0-11-6.11c-.59-.19-1.18-.37-1.77-.53l-.2-.05a32,32,0,0,0-6.07-1C95.24,18,94.54,18,93.84,18H32.93a32.26,32.26,0,0,0-3.56.2c-.83.09-1.64.25-2.46.4-.32.06-.66.1-1,.17-.66.14-1.31.32-2,.5A32.86,32.86,0,0,0,17.45,22c-.39.21-.79.4-1.17.62-.89.53-1.76,1.11-2.6,1.72l-.14.11A34.28,34.28,0,0,0,10.39,27c-.21.2-.43.38-.63.58a32.51,32.51,0,0,0-3.57,4.19c-.35.48-.67,1-1,1.48a.91.91,0,0,0-.11.16,31.61,31.61,0,0,0-1.73,3.13A32.52,32.52,0,0,0,.49,45.51l-.09.56c-.08.49-.17,1-.22,1.48C.09,48.38.07,49.24,0,50.1c0,.28,0,.56,0,.85a32.6,32.6,0,0,0,.41,5.17A33.46,33.46,0,0,0,1.59,61c.21.63.44,1.25.68,1.86.32.8.68,1.57,1.06,2.34.1.21.18.43.28.64q.71,1.36,1.53,2.67c.61.95,1.26,1.88,2,2.77S8.47,73,9.21,73.74c.49.5,1,1,1.5,1.45.78.71,1.6,1.39,2.44,2a33,33,0,0,0,5.43,3.32c1,.47,1.94.89,3,1.27s1.76.61,2.66.86c.7.19,1.4.37,2.12.52s1.43.27,2.16.38a32.6,32.6,0,0,0,4.45.31H93.84a32.63,32.63,0,0,0,9.47-1.4c.87-.26,1.73-.57,2.57-.91a32.77,32.77,0,0,0,5.63-2.87c.88-.57,1.73-1.17,2.56-1.82s1.61-1.33,2.37-2c.51-.48,1-1,1.46-1.48a32.79,32.79,0,0,0,5.95-9c.28-.63.58-1.25.82-1.9s.47-1.23.66-1.87a31.92,31.92,0,0,0,1.07-4.69,32.41,32.41,0,0,0,.36-4.65c0-.09,0-.17,0-.26,0-1-.06-1.91-.14-2.85,0-.33-.07-.66-.11-1s-.07-.74-.13-1.1a32,32,0,0,0-2.56-8.53c-.41-.92-.87-1.81-1.36-2.68-.17-.31-.33-.63-.51-.93l-.27-.47c.54-.81,1.1-1.61,1.66-2.42.18-.25.34-.5.52-.76.49-.83,1-1.66,1.47-2.45a20.59,20.59,0,0,1,1.55-2.21c.41-.51.88-1,1.38-1.55,1-1.05,2.13-2.1,3.19-3.07L133,19.56l.48-.43-.56-.32V18.7a6.59,6.59,0,0,1,.87-2.18,11.2,11.2,0,0,0,.88-1.94,2.43,2.43,0,0,0,.1-.59.91.91,0,0,0-.16-.53l.27-.22c.48-.41,1-.85,1.41-1.26a11.29,11.29,0,0,0,.85-.85c.11-.14.2-.24.28-.36a1,1,0,0,0,.16-.46V10.2l0-.07a2.28,2.28,0,0,1-.06-.39,1.64,1.64,0,0,1-.05-.32c0-.75.37-1.92,1.79-3.62a20.61,20.61,0,0,1,1.64-1.75l.33-.23.26-.17c.43-.28.92-.56,1.41-.84ZM37.28,55.14c0,.58-.11,1.16-.19,1.73a26.43,26.43,0,0,1-.72,3.34,25.66,25.66,0,0,1-.91,2.64,1.15,1.15,0,0,1-.06.17,24.32,24.32,0,0,1-1.71,3.33,25.28,25.28,0,0,1-4.76,5.7,26.17,26.17,0,0,1-3,2.28.6.6,0,0,1-.29.08l-.16,0a25.71,25.71,0,0,1-3.42-1.32l-.9-.49L20.07,72s-1.25-.53.08-.87a23.56,23.56,0,0,0,10.2-5.69,14.24,14.24,0,0,0,2.28-2.87c.12-.2.2-.41.31-.61a26.25,26.25,0,0,0,1.27-2.68,23.64,23.64,0,0,0,1.55-5.83A24.49,24.49,0,0,0,36,50.3c0-.31,0-.62,0-.94a.54.54,0,0,1,.48-.55.5.5,0,0,1,.26.08l.12,0a.51.51,0,0,1,.19.33,24.28,24.28,0,0,1,.35,4.12C37.34,54,37.32,54.56,37.28,55.14Zm80.93-2.84c0,.75-.12,1.5-.22,2.23s-.25,1.45-.42,2.15-.33,1.3-.54,1.93a24.31,24.31,0,0,1-7.15,10.75c-.55.48-1.12.93-1.7,1.35a24.33,24.33,0,0,1-14.34,4.68H44.77a7.4,7.4,0,0,1,2.88-3.7,15.63,15.63,0,0,1,4-1.88c.54-.18,1.11-.35,1.72-.51a48.6,48.6,0,0,0,6-2c1.17-.49,2.23-1,3.2-1.52.48-.26.94-.52,1.37-.79a26.12,26.12,0,0,0,2.33-1.59c.35-.27.67-.53,1-.79A21.83,21.83,0,0,0,68.85,61a14.69,14.69,0,0,0,2.34-3.27,8.25,8.25,0,0,0,.72-1.84v-9c.44-.84,1.11-1.86.73-2.84a2.73,2.73,0,0,0-1.45-1.33,14,14,0,0,0-3.85-1c-1.63-.25-3.59-.41-5.82-.53-1.49-.08-3.09-.14-4.8-.19l-2-.06-3.62-.09c-.06-.12-.12-.25-.2-.39s-.34-.65-.6-1.07-.56-.93-.94-1.5c-.58-.86-1.31-1.9-2.25-3.13a7.08,7.08,0,0,0-2-1.72,15,15,0,0,0-2.84-1.36c-.61-.23-1.28-.44-2-.63-1-.28-2.12-.52-3.24-.73L36,30.16c-.77-.12-1.54-.23-2.33-.32l-1.36-.11c-.73-.06-1.45-.12-2.17-.15l-1.4,0c-1,0-1.91,0-2.82,0h0c-.67,0-1.33.06-2,.1s-1.37.12-2,.2-1.25.17-1.8.28c.6-.37,1.22-.71,1.86-1s1.28-.6,1.95-.86,1.3-.49,2-.69a24.31,24.31,0,0,1,7-1H93.84c.71,0,1.42,0,2.12.09s1.39.16,2.08.28a25.07,25.07,0,0,1,4,1.05c.67.24,1.33.5,2,.8a24.27,24.27,0,0,1,5.86,3.75c-1.56,2.16-3.63,5-5.86,8.17-.65.91-1.31,1.85-2,2.81l-1.84,2.67c-1.61,2.39-3.22,4.81-4.74,7.15a77.92,77.92,0,0,0-5.18-8l-2.71-3.07-2-2.22h0v0l.21,1h0c-.07-.11-.14-.19-.21-.29A3.81,3.81,0,0,0,85,40a5.65,5.65,0,0,0-1.47-1.47,1.36,1.36,0,0,0-.46-.13h0a.69.69,0,0,0-.44.17h0a.82.82,0,0,0-.24.34A3.75,3.75,0,0,0,82.2,40c0,.4,0,.82,0,1.22v.08a.53.53,0,0,1,0,.12v0a1,1,0,0,0-.41.23L81,40.27l-.17-.3-.33.06a.36.36,0,0,0-.19.08c0-.09-.09-.17-.13-.25L79.74,39l-.38.89a.88.88,0,0,0-.07.32v0h0l-.4-.5a3.72,3.72,0,0,0-1-.9,1.56,1.56,0,0,0-.4-.11.58.58,0,0,0-.37.12,12,12,0,0,0-.88-1.63l-.51-.77,0,.07-.18-.31-.17,1.24,0,.07v0l-.09.65.08.16-.08,0,0,1.3v.06l0,0c.22.79.38,1.59.54,2.31a8.31,8.31,0,0,0,.58,1.82c3.21,6.29,12.47,23.35,12.47,23.47a.45.45,0,0,0,.25.41l.11,0h1l3.18,0h1.26l5.15,0H100l.12-.08.08-.05.06-.09h0l.3-.37.25-.32.42-.52.87-1,.52-.65,4.6-7.67-.35,0c.13-.21.29-.44.46-.69l.55-.76c.4-.53.83-1.1,1.26-1.7l.38-.67,0-.08v-.08a.86.86,0,0,0,0-.15,1,1,0,0,0,0-.25l1-1.33c1.88-3.27,3.79-6.54,5.82-9.82a24.35,24.35,0,0,1,1.28,4.12q.22,1.07.36,2.16c.09.74.15,1.48.17,2.23,0,.28,0,.56,0,.85C118.28,51.41,118.23,51.85,118.21,52.3ZM147.13,18l-2.77,31.57H371.87L374.64,18Zm12.48,11.82a14.63,14.63,0,0,0,4,1.37,10.27,10.27,0,0,1,4.76,2.36,5.41,5.41,0,0,1,1.37,4.6A6.73,6.73,0,0,1,167,43a10.67,10.67,0,0,1-8.06,1.74A13,13,0,0,1,151.62,41l3.31-3.66a12,12,0,0,0,4.35,2.83,5,5,0,0,0,4.3-.24,2.12,2.12,0,0,0,.93-1.61,1.72,1.72,0,0,0-.69-1.61,10.32,10.32,0,0,0-3.21-1.2A13,13,0,0,1,155.09,33c-1.12-1-1.59-2.56-1.41-4.69a6.44,6.44,0,0,1,2.73-4.93c3-2.1,7-2.14,10.32-1a10.68,10.68,0,0,1,3.73,2.18L167.6,28.3a9.78,9.78,0,0,0-4-2c-1.24-.29-2.83-.45-3.91.38a2.11,2.11,0,0,0-.86,1.58A1.6,1.6,0,0,0,159.61,29.81Zm30.75-3.14H179.18l-.4,4.62h10.06l-.38,4.28H178.4l-.4,4.65h11.53l-.39,4.44H172.6l2-22.46h16.2Zm15.91,18-4.35-7.17h-3.47l-.63,7.17h-5l2-22.46h8.52q5.24,0,7.31,1.77c1.39,1.17,2,3.07,1.74,5.68q-.48,5.4-4.89,7l5,8Zm14.84,0L214.05,22.2h5.43L224,36.5l7-14.3h5.43l-11,22.46Zm20.15,0h-5l2-22.46h5Zm11-6.33c3,3.26,8.08,1.94,10.72-1l2.92,3.31a13.22,13.22,0,0,1-8.95,4.3,11.19,11.19,0,0,1-8.7-3.27c-4.43-4.73-3-12.51,1.52-16.61a12.92,12.92,0,0,1,9.37-3.33,11.06,11.06,0,0,1,8.18,4.19l-3.43,3.54a6.76,6.76,0,0,0-4.81-2.91,7.71,7.71,0,0,0-5.84,1.8,7.07,7.07,0,0,0-2.44,5A6.29,6.29,0,0,0,252.26,38.33Zm34.21-11.66H275.29l-.41,4.62h10.06l-.38,4.28H274.51l-.41,4.65h11.53l-.38,4.44H268.7l2-22.46h16.2ZM318,33.32a12.06,12.06,0,0,1-3.86,8.29q-3.39,3-9.82,3h-7.68l2-22.46h7.94q6,0,9,2.94C317.42,27.1,318.26,29.83,318,33.32Zm25.84,0a12.23,12.23,0,0,1-4.13,8.28c-4.6,4.13-12.35,4.72-16.77,0S319.75,29.14,324.33,25s12.35-4.72,16.78,0A10.26,10.26,0,0,1,343.79,33.28Zm22.38,7.91c-4.49,4.56-13.05,5.31-17.6.45a10.24,10.24,0,0,1-2.64-8.28A12.83,12.83,0,0,1,361.55,22a11,11,0,0,1,5.21,2.86l-2.93,3.76a8.84,8.84,0,0,0-2.62-1.82,7.42,7.42,0,0,0-7.7,1.45c-2.66,2.43-3.5,7.39-1,10.21,2.16,2.42,6,2.4,8.74.92l.54-6.17h5ZM294.82,66.57A3.72,3.72,0,0,0,296,63.92a2.6,2.6,0,0,0-.75-2.49,5.81,5.81,0,0,0-3.31-.68h-3.76l-.58,6.66h3.66A5.73,5.73,0,0,0,294.82,66.57ZM356,53.48h1.87l-.73,5.21h1l.73-5.21h1.87l.13-.95h-4.77Zm9,2.92-1.31-3.87h-1.62l-.87,6.16h1l.68-4.81,1.54,4.27H365l2.75-4.27-.68,4.81h1l.86-6.16h-1.61Zm-96,6.73-3.4,6.52h5.62ZM141.44,83.88H351.17l2.76-31.57H144.2Zm197.34-13a10.32,10.32,0,0,0-3.21-1.2,13,13,0,0,1-5.52-2.43c-1.12-1-1.59-2.56-1.41-4.69a6.44,6.44,0,0,1,2.73-4.93c3-2.1,7-2.14,10.32-1a10.68,10.68,0,0,1,3.73,2.18l-2.86,3.66a9.78,9.78,0,0,0-4-2c-1.24-.29-2.83-.45-3.91.38a2.11,2.11,0,0,0-.86,1.58,1.6,1.6,0,0,0,.74,1.55,15,15,0,0,0,4,1.37,10.32,10.32,0,0,1,4.76,2.36,5.41,5.41,0,0,1,1.37,4.6,6.73,6.73,0,0,1-2.7,4.9A10.67,10.67,0,0,1,333.9,79a13,13,0,0,1-7.32-3.82l3.31-3.66a12,12,0,0,0,4.35,2.83,5,5,0,0,0,4.3-.24,2.14,2.14,0,0,0,.93-1.61A1.72,1.72,0,0,0,338.78,70.92Zm-32.7-14.47H314q6,0,9,2.94c2,2,2.8,4.68,2.5,8.18a12.1,12.1,0,0,1-3.86,8.29q-3.4,3-9.83,3h-7.68Zm-22.56,0H292q5.23,0,7.31,1.77c1.39,1.17,2,3.07,1.74,5.68q-.46,5.4-4.88,7l5,8H295l-4.35-7.17H287.2l-.63,7.17h-5Zm-11.5,0,7.74,22.46h-5.33l-1.67-4.85h-9.41l-2.52,4.85H255.5l11.67-22.46Zm-34.89,0h7.93q6,0,9,2.94c2,2,2.8,4.68,2.49,8.18a12.09,12.09,0,0,1-3.85,8.29q-3.4,3-9.83,3h-7.68Zm-25.45,0h4.69l9.76,14.46,1.26-14.46h5l-2,22.46h-5L216,64.83l-1.23,14.08h-5Zm-11.5,0,7.73,22.46h-5.33l-1.66-4.85H191.5L189,78.91h-5.33l11.66-22.46Zm-30.59,0h17.73L187,60.79h-6.37L179,78.91h-5l1.58-18.12h-6.36ZM160.9,70.92a10.23,10.23,0,0,0-3.2-1.2,13.08,13.08,0,0,1-5.53-2.43c-1.12-1-1.59-2.56-1.4-4.69a6.38,6.38,0,0,1,2.73-4.93c3-2.1,7-2.14,10.31-1a10.68,10.68,0,0,1,3.73,2.18l-2.86,3.66a9.68,9.68,0,0,0-4-2c-1.25-.29-2.84-.45-3.92.38a2.14,2.14,0,0,0-.86,1.58,1.59,1.59,0,0,0,.75,1.55,14.71,14.71,0,0,0,4,1.37,10.37,10.37,0,0,1,4.76,2.36,5.41,5.41,0,0,1,1.36,4.6,6.72,6.72,0,0,1-2.69,4.9A10.71,10.71,0,0,1,156,79a13,13,0,0,1-7.32-3.82L152,71.55a11.1,11.1,0,0,0,5.25,3.07c1.64.31,4.15,0,4.33-2.09A1.72,1.72,0,0,0,160.9,70.92Zm36.28-7.79-3.4,6.52h5.63ZM306,26.57h-2.8L302,40.22h3.18a8,8,0,0,0,5.44-1.73,7.25,7.25,0,0,0,2.29-5,6.29,6.29,0,0,0-1.41-5.1Q309.81,26.57,306,26.57Zm-56.8,46.17a7.21,7.21,0,0,0,2.29-5,6.28,6.28,0,0,0-1.4-5.09q-1.69-1.79-5.52-1.78h-2.79l-1.2,13.65h3.18A8,8,0,0,0,249.18,72.74Z"/></g></g></svg>