<svg width="117" height="68" viewBox="0 0 117 68" fill="none" xmlns="http://www.w3.org/2000/svg">
<g clip-path="url(#clip0_917_221)">
<path d="M116.797 0.268485C116.786 0.225039 116.765 0.184553 116.737 0.149809C116.708 0.115065 116.672 0.0868853 116.632 0.0672054C116.542 0.0447369 116.448 0.0447369 116.358 0.0672054H115.992H115.845H115.589L115.278 0.286783H115.132V0.433168L114.747 0.158696C113.137 1.098 111.6 2.0861 110.136 3.12299C109.404 3.63534 108.691 4.16598 107.995 4.71492C105.861 6.38836 103.815 8.17179 101.866 10.058C100.603 11.2656 99.377 12.5282 98.2059 13.8091C97.0349 15.09 96.248 15.9317 95.3148 17.0113C94.3816 18.0908 93.174 19.4632 92.131 20.6709C89.5125 18.494 86.4995 16.8415 83.2564 15.8036L81.8474 15.3827H81.6827C80.1017 14.9584 78.4844 14.6827 76.852 14.5593C76.3031 14.5593 75.7359 14.5593 75.1686 14.5593H26.3676C25.4161 14.5593 24.5378 14.5593 23.5314 14.7057C22.525 14.8521 22.2139 14.907 21.5552 15.0351L20.7684 15.1631L19.1947 15.5657C17.389 16.0789 15.6413 16.778 13.9798 17.6517L13.0466 18.1457C12.3146 18.5666 11.6376 19.0423 10.9606 19.5181H10.8508C9.96034 20.1655 9.11654 20.8748 8.32564 21.6407L7.81329 22.0981C6.76985 23.1325 5.815 24.2527 4.95879 25.4467C4.68432 25.8309 4.40985 26.2335 4.15367 26.6361V26.7641C3.61647 27.5953 3.12771 28.4567 2.68982 29.3442C1.59062 31.6159 0.814576 34.0303 0.384263 36.517V36.9562C0.384263 37.3587 0.237878 37.743 0.201282 38.1456C0.201282 38.8226 0.201282 39.4996 0.0914932 40.195C0.0914932 40.4145 0.0914932 40.6341 0.0914932 40.872C0.0893042 42.2571 0.199454 43.6401 0.420859 45.0074C0.602032 46.3396 0.889622 47.6551 1.28087 48.9414C1.45165 49.4538 1.63463 49.9478 1.82981 50.4236C2.07478 51.0493 2.35583 51.6603 2.67153 52.2534C2.67153 52.4181 2.79961 52.6011 2.8911 52.7658C3.25707 53.4977 3.67792 54.2113 4.11708 54.9066C4.60402 55.6707 5.12924 56.4096 5.69071 57.1207C6.19836 57.8135 6.74195 58.4793 7.31924 59.1152C7.70351 59.5178 8.10606 59.902 8.52692 60.2863C8.94778 60.6705 9.80779 61.4025 10.4848 61.9148C11.841 62.9377 13.2933 63.8263 14.8215 64.568C15.5963 64.9502 16.3902 65.2922 17.2002 65.5927C17.8955 65.8489 18.6092 66.0685 19.3228 66.2698C20.0364 66.471 20.4573 66.5625 21.0245 66.6906L22.7446 67.0017C23.9269 67.164 25.1192 67.2435 26.3127 67.2396H75.1503C77.7227 67.2436 80.2816 66.8675 82.744 66.1234C83.4393 65.9149 84.1234 65.6706 84.7934 65.3914C86.3684 64.778 87.8766 64.0055 89.2948 63.0859C90.0084 62.6467 90.6854 62.1527 91.3624 61.6403C92.0395 61.128 92.6433 60.579 93.1923 59.9935C93.7412 59.408 93.9791 59.225 94.345 58.8224C95.6437 57.4203 96.785 55.8802 97.7485 54.2296C98.2566 53.3723 98.7148 52.4864 99.1208 51.5764C99.3404 51.0823 99.5783 50.57 99.7613 50.0576C99.9443 49.5453 100.146 49.0695 100.31 48.5572C100.685 47.3299 100.967 46.0759 101.152 44.8061C101.329 43.5939 101.427 42.3714 101.445 41.1465V40.872C101.445 40.1035 101.445 39.3349 101.335 38.5847C101.335 38.3285 101.335 38.0724 101.335 37.7979L101.225 36.9196C100.858 34.5615 100.168 32.265 99.1757 30.0944C98.8464 29.3626 98.48 28.648 98.0778 27.9535C97.9498 27.6973 97.8217 27.4412 97.6753 27.2033L97.4557 26.819L98.8098 24.8794L99.2306 24.2756C99.6149 23.6169 99.9991 22.9581 100.402 22.3177C100.774 21.6799 101.19 21.0685 101.646 20.4879C101.975 20.0853 102.341 19.6645 102.744 19.2436C103.549 18.4202 104.446 17.5602 105.306 16.7917L106.532 15.6755L106.916 15.3278L106.458 15.0717V15.0351C106.585 14.419 106.821 13.8304 107.154 13.2967C107.436 12.8023 107.669 12.2814 107.849 11.7414C107.865 11.5893 107.865 11.436 107.849 11.2839C107.852 11.128 107.807 10.9748 107.721 10.8448C107.796 10.7938 107.864 10.7321 107.922 10.6618C108.325 10.3324 108.709 9.98478 109.057 9.65541C109.314 9.44459 109.558 9.21851 109.789 8.97838L110.008 8.68561C110.078 8.57497 110.122 8.4498 110.136 8.31965V8.17327C110.126 8.06983 110.126 7.96563 110.136 7.8622C110.125 7.7772 110.125 7.69103 110.136 7.60603C110.258 6.50469 110.763 5.48127 111.564 4.71492C111.971 4.21682 112.411 3.74615 112.881 3.30597L113.137 3.12299L113.338 2.9949C113.686 2.75703 114.089 2.53745 114.473 2.31787L115.058 2.0068L115.607 1.69574C116.041 1.50445 116.438 1.23808 116.779 0.908918L116.888 0.762533C116.909 0.678424 116.909 0.59047 116.888 0.50636C116.891 0.462498 116.884 0.418623 116.868 0.377622C116.852 0.336622 116.828 0.299427 116.797 0.268485ZM29.8625 44.1839C29.8625 44.6597 29.771 45.1171 29.6978 45.5746C29.5671 46.4765 29.3776 47.3689 29.1306 48.2461C28.9251 48.9664 28.6808 49.6749 28.3987 50.3687C28.3987 50.3687 28.3987 50.3687 28.3987 50.4968C27.9904 51.4066 27.5196 52.287 26.9897 53.1317C25.9452 54.8298 24.6567 56.3649 23.1654 57.6879C22.428 58.3591 21.6387 58.9709 20.805 59.5178C20.7275 59.5417 20.6446 59.5417 20.5671 59.5178H20.439C19.5053 59.2799 18.5883 58.9804 17.6943 58.6211L16.9806 58.2369L16.0657 57.7428C16.0657 57.7428 15.0776 57.322 16.0657 57.0292C19.1251 56.2288 21.9324 54.6677 24.2267 52.4913C24.9349 51.8062 25.5501 51.031 26.0565 50.1857L26.3127 49.6917C26.7294 48.9866 27.1081 48.2597 27.4472 47.5142C28.0435 46.0143 28.4551 44.4475 28.6731 42.8482C28.7726 42.0103 28.8154 41.1667 28.8012 40.323C28.8012 40.0669 28.8012 39.8107 28.8012 39.5728C28.7998 39.4632 28.8378 39.3567 28.9084 39.2727C28.9789 39.1887 29.0772 39.1329 29.1855 39.1154C29.2578 39.0995 29.3327 39.0995 29.4051 39.1154C29.4501 39.1428 29.4884 39.1801 29.5169 39.2245C29.5455 39.2688 29.5635 39.3191 29.5697 39.3715C29.7535 40.4598 29.8453 41.5616 29.8442 42.6652C29.8991 43.2873 29.8808 43.7631 29.8625 44.2205V44.1839ZM94.6744 41.915C94.6744 42.5188 94.5829 43.1227 94.4914 43.7448C94.3999 44.3669 94.2901 44.9159 94.1621 45.4831C94.0436 46.003 93.897 46.5161 93.7229 47.0201C92.6245 50.3562 90.6458 53.3338 87.9956 55.6386C87.5564 56.0228 87.099 56.3705 86.6415 56.7181C83.3022 59.1461 79.2791 60.453 75.1503 60.451H35.8643C36.2817 59.2392 37.0853 58.1978 38.1516 57.4867C39.1434 56.8345 40.2211 56.3233 41.3537 55.9679L42.7078 55.5654C44.3557 55.1338 45.9701 54.5834 47.5385 53.9185C48.4154 53.5667 49.2708 53.1634 50.1002 52.7109C50.5028 52.4913 50.8687 52.29 51.2164 52.0704C51.9117 51.6496 52.5156 51.2287 53.0462 50.8079L53.8147 50.1674C54.3088 49.7466 54.7296 49.3257 55.1139 48.9414C55.8306 48.149 56.4453 47.2699 56.9437 46.3248C57.1962 45.8574 57.3869 45.3592 57.511 44.8427V37.6332C57.8769 36.9562 58.4076 36.1511 58.0965 35.3643C57.8663 34.873 57.4523 34.4918 56.9437 34.303C55.9587 33.8789 54.9168 33.6015 53.8513 33.4795C52.5522 33.2966 50.9785 33.1685 49.2036 33.0587L45.4159 33.0038H43.8423H40.9512C40.8887 32.9043 40.8337 32.8003 40.7865 32.6927C40.6767 32.4549 40.512 32.1804 40.3107 31.8327C40.1095 31.4851 39.8533 31.1008 39.5422 30.6433C39.2311 30.1859 38.4992 29.1246 37.7124 28.1365C37.2775 27.5872 36.7514 27.1168 36.1571 26.7458C35.4326 26.3104 34.6664 25.9488 33.8698 25.6663C33.3757 25.4833 32.8451 25.3186 32.2962 25.1722C31.4412 24.9305 30.5738 24.7351 29.6978 24.5867L28.8012 24.4403L26.9714 24.1841L25.8735 24.0926C25.288 24.0926 24.7207 24.0926 24.0437 23.9828H22.9275H20.7684H19.1947L17.5845 24.1475L16.1389 24.3671C16.6147 24.0743 17.1087 23.7999 17.6211 23.5437L19.1947 22.8483C19.7071 22.6471 20.2194 22.4641 20.7684 22.2994C22.5849 21.7547 24.4711 21.4773 26.3676 21.476H75.1503C75.7176 21.476 76.2848 21.476 76.852 21.476C77.4193 21.476 77.9682 21.6041 78.5172 21.6956C79.5921 21.896 80.6503 22.1774 81.6827 22.5373C82.2317 22.7386 82.744 22.9398 83.2564 23.1777C84.961 23.9527 86.5448 24.9696 87.959 26.1969C86.7147 27.9169 85.0496 30.2042 83.2564 32.7293L81.6827 34.8336L80.2189 36.9745C78.9197 38.8043 77.6389 40.8354 76.4312 42.7018C75.1731 40.4876 73.7862 38.3491 72.2775 36.2975L70.1 33.8455L68.5264 32.0157L68.6911 32.7842L68.5264 32.5463C68.3915 32.3494 68.2383 32.1656 68.069 31.9974C67.7589 31.5342 67.361 31.1364 66.8979 30.8263C66.7805 30.7565 66.6494 30.7129 66.5136 30.6982C66.3869 30.7022 66.2649 30.7471 66.166 30.8263C66.0396 30.9145 65.9386 31.0344 65.8732 31.174C65.7883 31.4587 65.7512 31.7555 65.7634 32.0523C65.7634 32.3817 65.7634 32.711 65.7634 33.0221V33.1868C65.6481 33.234 65.5427 33.3023 65.4523 33.3881C65.251 33.0404 65.0681 32.711 64.8302 32.2536L64.7021 31.9974H64.4276C64.3801 31.982 64.3288 31.982 64.2812 31.9974L64.1715 31.7961L63.8055 31.1374L63.4944 31.8327C63.4856 31.9179 63.4856 32.0037 63.4944 32.0889L63.1834 31.6863C62.95 31.4748 62.6844 31.3019 62.3965 31.174C62.2938 31.1222 62.1819 31.0911 62.0672 31.0825C61.9633 31.0873 61.8625 31.1188 61.7744 31.174C61.5796 30.7221 61.347 30.2875 61.0791 29.8748L60.6765 29.3442L60.5484 29.1063L60.3838 30.0761V30.5884V30.7165V31.7595V31.851C60.5484 32.4915 60.6765 33.1319 60.8046 33.6808C60.8995 34.1872 61.0594 34.6792 61.2804 35.1447C63.8421 40.1767 71.2528 53.8453 71.2528 53.9368C71.2561 54.0042 71.2762 54.0697 71.3114 54.1272C71.3466 54.1848 71.3956 54.2326 71.4541 54.2662H75.8091H79.9261H80.0542L80.2921 53.9734L80.4934 53.7173L80.8227 53.2964L81.5181 52.4547L81.9389 51.9423L85.5985 45.7942H85.3241C85.4339 45.6295 85.5436 45.4465 85.69 45.2452C85.8364 45.044 85.9828 44.8427 86.1292 44.6414C86.2756 44.4401 86.8062 43.7448 87.1356 43.269L87.4466 42.7384V42.5554C87.4566 42.4948 87.4566 42.433 87.4466 42.3724L88.2884 41.2928C89.7888 38.6762 91.3259 36.0596 92.9361 33.4247C93.3791 34.4884 93.7221 35.591 93.9608 36.7183C94.0889 37.3039 94.1804 37.8711 94.2535 38.4566C94.3267 39.0422 94.3816 39.646 94.3999 40.2864C94.3999 40.506 94.3999 40.7256 94.3999 40.9635C94.3999 41.2014 94.6927 41.6039 94.6744 41.9516V41.915Z" fill="white"/>
</g>
<defs>
<clipPath id="clip0_917_221">
<rect width="116.87" height="67.1723" fill="white" transform="translate(0 0.0671997)"/>
</clipPath>
</defs>
</svg>
