<?xml version="1.0" encoding="utf-8"?>
<!-- Generator: Adobe Illustrator 25.0.1, SVG Export Plug-In . SVG Version: 6.00 Build 0)  -->
<svg version="1.1" id="Layer_1" xmlns="http://www.w3.org/2000/svg" xmlns:xlink="http://www.w3.org/1999/xlink" x="0px" y="0px"
	 viewBox="0 0 32 32" style="enable-background:new 0 0 32 32;" xml:space="preserve">
<style type="text/css">
	.st0{fill:#FFFFFF;}
</style>
<path class="st0" d="M8,4.9h15.8c0.4,0,0.7-0.5,0.7-1.2c0-0.6-0.3-1.2-0.7-1.2H8c-0.4,0-0.7,0.5-0.7,1.2C7.3,4.4,7.6,4.9,8,4.9z
	 M25.5,10.9c0-1.6-0.9-3.2-3-4.8H9.5c-2.1,1.6-3,3.2-3,4.8c-1.8,0.7-3.1,2-3.1,3.7c0,2.5,2.7,4.2,5.9,4.2c0.3,0,0.7,0,1-0.1
	c1.7,2.6,3.1,5.2,1.8,7.8H9.4v2.8h13.2v-2.8H20c-1.3-2.6,0.1-5.2,1.8-7.8c0.3,0,0.6,0.1,1,0.1c3.1,0,5.8-1.7,5.9-4.2
	C28.6,13,27.3,11.6,25.5,10.9z M9.2,17.9c-2.8,0-4.8-1.6-4.8-3.2c0-1,0.8-2,2.1-2.6c0.4,1.9,1.7,3.9,3,5.8
	C9.4,17.9,9.3,17.9,9.2,17.9z M18.7,19.7h-5.4V18h1.4v-5.2l-0.2,0.1l-0.1,0c-0.2,0.1-0.6,0.1-1,0.1c0,0,0,0-0.1,0v-1.6
	c0.6,0,1.2-0.1,1.7-0.4c0.5-0.2,0.9-0.5,1.2-0.9h1V18h1.4V19.7z M22.8,17.9c-0.1,0-0.2,0-0.3,0c1.3-1.9,2.6-3.9,3-5.8
	c1.3,0.6,2.1,1.6,2.1,2.6C27.6,16.3,25.6,17.9,22.8,17.9z"/>
</svg>
