<svg width="24" height="24" viewBox="0 0 24 24" fill="none" xmlns="http://www.w3.org/2000/svg">
<path fill-rule="evenodd" clip-rule="evenodd" d="M5.63439 5.63437C5.22181 6.04695 4.99002 6.60652 4.99002 7.19V8.19C4.98969 8.7709 4.75963 9.32809 4.35002 9.74L3.65002 10.44C3.44442 10.6444 3.28127 10.8875 3.16993 11.1552C3.0586 11.423 3.00128 11.7101 3.00128 12C3.00128 12.29 3.0586 12.577 3.16993 12.8448C3.28127 13.1125 3.44442 13.3556 3.65002 13.56L4.35002 14.26C4.75963 14.6719 4.98969 15.2291 4.99002 15.81V16.81C4.99002 17.3935 5.22181 17.9531 5.63439 18.3656C6.04697 18.7782 6.60655 19.01 7.19002 19.01H8.19002C8.77092 19.0103 9.32811 19.2404 9.74002 19.65L10.44 20.35C10.6445 20.5556 10.8875 20.7188 11.1553 20.8301C11.423 20.9414 11.7101 20.9987 12 20.9987C12.29 20.9987 12.5771 20.9414 12.8448 20.8301C13.1125 20.7188 13.3556 20.5556 13.56 20.35L14.26 19.65C14.6719 19.2404 15.2291 19.0103 15.81 19.01H16.81C17.3935 19.01 17.9531 18.7782 18.3657 18.3656C18.7782 17.9531 19.01 17.3935 19.01 16.81V15.81C19.0104 15.2291 19.2404 14.6719 19.65 14.26L20.35 13.56C20.5556 13.3556 20.7188 13.1125 20.8301 12.8448C20.9415 12.577 20.9988 12.29 20.9988 12C20.9988 11.7101 20.9415 11.423 20.8301 11.1552C20.7188 10.8875 20.5556 10.6444 20.35 10.44L19.65 9.74C19.24 9.328 19.01 8.77 19.01 8.19V7.19C19.01 6.60652 18.7782 6.04695 18.3657 5.63437C17.9531 5.22179 17.3935 4.99 16.81 4.99H15.81C15.23 4.99 14.672 4.76 14.26 4.35L13.56 3.65C13.3556 3.4444 13.1125 3.28124 12.8448 3.16991C12.5771 3.05857 12.29 3.00126 12 3.00126C11.7101 3.00126 11.423 3.05857 11.1553 3.16991C10.8875 3.28124 10.6445 3.4444 10.44 3.65L9.74002 4.35C9.32811 4.7596 8.77092 4.98967 8.19002 4.99H7.19002C6.60655 4.99 6.04697 5.22179 5.63439 5.63437ZM15.6972 10.6971C16.0877 10.3066 16.0877 9.67342 15.6972 9.28289C15.3066 8.89237 14.6735 8.89237 14.2829 9.28289L10.9901 12.5758L9.69716 11.2829C9.30663 10.8924 8.67347 10.8924 8.28294 11.2829C7.89242 11.6734 7.89242 12.3066 8.28294 12.6971L10.2829 14.6971C10.6735 15.0876 11.3066 15.0876 11.6972 14.6971L15.6972 10.6971Z" fill="black"/>
</svg>
