<svg width="24" height="24" viewBox="0 0 24 24" fill="none" xmlns="http://www.w3.org/2000/svg">
<path fill-rule="evenodd" clip-rule="evenodd" d="M12 4.00126C11.8419 4.00126 11.6853 4.03252 11.5392 4.09325C11.3932 4.15398 11.2606 4.24297 11.1491 4.35512L11.1471 4.35711L10.4471 5.05711L10.4451 5.05909C9.846 5.65488 9.03554 5.98952 8.1906 5.99L7.19002 5.99C6.87176 5.99 6.56654 6.11643 6.3415 6.34147C6.11645 6.56652 5.99002 6.87174 5.99002 7.19V8.19C5.98954 9.03494 5.6549 9.84598 5.05911 10.4451L5.05713 10.4471L4.35713 11.1471L4.35514 11.1491C4.243 11.2606 4.154 11.3932 4.09327 11.5392C4.03254 11.6853 4.00128 11.8418 4.00128 12C4.00128 12.1582 4.03254 12.3147 4.09327 12.4608C4.154 12.6068 4.243 12.7394 4.35514 12.8509L4.35713 12.8529L5.05912 13.5549C5.6549 14.154 5.98954 14.9645 5.99002 15.8094L5.99002 16.81C5.99002 17.1283 6.11645 17.4335 6.3415 17.6585C6.56654 17.8836 6.87176 18.01 7.19002 18.01H8.19002C9.03497 18.0105 9.846 18.3451 10.4451 18.9409L10.4471 18.9429L11.1491 19.6449C11.2606 19.757 11.3932 19.846 11.5392 19.9068C11.6853 19.9675 11.8419 19.9987 12 19.9987C12.1582 19.9987 12.3148 19.9675 12.4608 19.9068C12.6068 19.846 12.7394 19.757 12.8509 19.6449L12.8529 19.6429L13.5529 18.9429L13.5549 18.9409C14.154 18.3451 14.9645 18.0105 15.8095 18.01H16.81C17.1283 18.01 17.4335 17.8836 17.6586 17.6585C17.8836 17.4335 18.01 17.1283 18.01 16.81V15.81C18.0105 14.9651 18.3451 14.154 18.9409 13.5549L18.9429 13.5529L19.6429 12.8529L19.6449 12.8509C19.7571 12.7394 19.846 12.6068 19.9068 12.4608C19.9675 12.3147 19.9988 12.1582 19.9988 12C19.9988 11.8419 19.9675 11.6853 19.9068 11.5392C19.846 11.3932 19.7571 11.2606 19.6449 11.1491L19.6429 11.1471L18.9429 10.4471L18.9412 10.4454C18.3446 9.84592 18.01 9.03428 18.01 8.19V7.19C18.01 6.87174 17.8836 6.56652 17.6586 6.34147C17.4335 6.11643 17.1283 5.99 16.81 5.99H15.81C14.9657 5.99 14.1541 5.65538 13.5546 5.05883L13.5529 5.05711L12.8529 4.35711L12.8509 4.35512C12.7394 4.24297 12.6068 4.15398 12.4608 4.09325C12.3148 4.03252 12.1582 4.00126 12 4.00126ZM3.99002 7.19V8.18969C3.98977 8.50604 3.86461 8.80949 3.64179 9.03402L3.64093 9.03488L2.94491 9.73091L2.94374 9.73207C2.64524 10.0292 2.40832 10.3824 2.24659 10.7713C2.08465 11.1607 2.00128 11.5783 2.00128 12C2.00128 12.4217 2.08465 12.8393 2.24659 13.2287C2.40834 13.6177 2.64529 13.9709 2.94384 14.268L2.94491 14.2691L3.64093 14.9651L3.64179 14.966C3.86461 15.1905 3.98977 15.494 3.99002 15.8103V16.81C3.99002 17.6587 4.32717 18.4726 4.92728 19.0727C5.5274 19.6729 6.34133 20.01 7.19002 20.01H8.18945C8.50599 20.0102 8.80962 20.1354 9.03423 20.3584V20.3584L9.73093 21.0551L9.73205 21.0562C10.0292 21.3548 10.3824 21.5917 10.7713 21.7534C11.1607 21.9154 11.5783 21.9987 12 21.9987C12.4218 21.9987 12.8394 21.9154 13.2288 21.7534C13.6176 21.5917 13.9707 21.3549 14.2678 21.0564L14.2691 21.0551L14.9651 20.3591L14.966 20.3582C15.1906 20.1354 15.4941 20.0102 15.8106 20.01H16.81C17.6587 20.01 18.4727 19.6729 19.0728 19.0727C19.6729 18.4726 20.01 17.6587 20.01 16.81V15.8106C20.0102 15.4941 20.1354 15.1906 20.3583 14.966L20.3591 14.9651L21.0551 14.2691L21.0565 14.2678C21.3549 13.9707 21.5918 13.6176 21.7535 13.2287C21.9154 12.8393 21.9988 12.4218 21.9988 12C21.9988 11.5783 21.9154 11.1607 21.7535 10.7713C21.5917 10.3823 21.3548 10.0292 21.0563 9.73202L21.0551 9.73091L20.3589 9.03462V9.03462C20.1357 8.81012 20.01 8.50551 20.01 8.19V7.19C20.01 6.34131 19.6729 5.52738 19.0728 4.92726C18.4727 4.32714 17.6587 3.99 16.81 3.99H15.81C15.4947 3.99 15.1906 3.86491 14.9662 3.64193L14.9654 3.64118L14.2691 2.94488L14.2681 2.94382C13.9709 2.64527 13.6177 2.40832 13.2288 2.24657C12.8394 2.08463 12.4218 2.00126 12 2.00126C11.5783 2.00126 11.1607 2.08463 10.7713 2.24657C10.3824 2.4083 10.0292 2.64521 9.73209 2.94372L9.73093 2.94488L9.03491 3.64091L9.03404 3.64177C8.80951 3.86459 8.50607 3.98975 8.18971 3.99H7.19002C6.34133 3.99 5.5274 4.32714 4.92728 4.92726C4.32717 5.52738 3.99002 6.34131 3.99002 7.19Z" fill="black"/>
<path fill-rule="evenodd" clip-rule="evenodd" d="M15.6971 9.28289C16.0877 9.67342 16.0877 10.3066 15.6971 10.6971L11.6971 14.6971C11.3066 15.0876 10.6734 15.0876 10.2829 14.6971L8.28292 12.6971C7.89239 12.3066 7.89239 11.6734 8.28292 11.2829C8.67344 10.8924 9.30661 10.8924 9.69713 11.2829L10.99 12.5758L14.2829 9.28289C14.6734 8.89237 15.3066 8.89237 15.6971 9.28289Z" fill="black"/>
</svg>
