<?xml version="1.0"?>
<svg xmlns="http://www.w3.org/2000/svg" xmlns:xlink="http://www.w3.org/1999/xlink" xmlns:svgjs="http://svgjs.com/svgjs" version="1.1" width="512" height="512" x="0" y="0" viewBox="0 0 186 186" style="enable-background:new 0 0 512 512" xml:space="preserve"><g>
<path xmlns="http://www.w3.org/2000/svg" d="M186,24.333C186,10.894,175.106,0,161.667,0H24.333C10.894,0,0,10.894,0,24.333v137.333C0,175.106,10.894,186,24.333,186  h137.333C175.106,186,186,175.106,186,161.667V24.333z M63.833,113.093c-11.097,0-20.093-8.996-20.093-20.093  s8.996-20.093,20.093-20.093S83.926,81.903,83.926,93S74.93,113.093,63.833,113.093z M122.833,113.093  c-11.097,0-20.093-8.996-20.093-20.093s8.996-20.093,20.093-20.093S142.926,81.903,142.926,93S133.93,113.093,122.833,113.093z" fill="#ffffff" data-original="#000000" style=""/>
<g xmlns="http://www.w3.org/2000/svg">
</g>
<g xmlns="http://www.w3.org/2000/svg">
</g>
<g xmlns="http://www.w3.org/2000/svg">
</g>
<g xmlns="http://www.w3.org/2000/svg">
</g>
<g xmlns="http://www.w3.org/2000/svg">
</g>
<g xmlns="http://www.w3.org/2000/svg">
</g>
<g xmlns="http://www.w3.org/2000/svg">
</g>
<g xmlns="http://www.w3.org/2000/svg">
</g>
<g xmlns="http://www.w3.org/2000/svg">
</g>
<g xmlns="http://www.w3.org/2000/svg">
</g>
<g xmlns="http://www.w3.org/2000/svg">
</g>
<g xmlns="http://www.w3.org/2000/svg">
</g>
<g xmlns="http://www.w3.org/2000/svg">
</g>
<g xmlns="http://www.w3.org/2000/svg">
</g>
<g xmlns="http://www.w3.org/2000/svg">
</g>
</g></svg>
