<?xml version="1.0" encoding="utf-8"?>
<!-- Generator: Adobe Illustrator 25.0.1, SVG Export Plug-In . SVG Version: 6.00 Build 0)  -->
<svg version="1.1" id="Layer_1" xmlns="http://www.w3.org/2000/svg" xmlns:xlink="http://www.w3.org/1999/xlink" x="0px" y="0px"
	 viewBox="0 0 32 32" style="enable-background:new 0 0 32 32;" xml:space="preserve">
<style type="text/css">
	.st0{fill:#FFFFFF;}
</style>
<g>
	<g>
		<g>
			<path class="st0" d="M10.2,6.6c0-2-1.7-3.7-3.7-3.7c-2,0-3.7,1.6-3.7,3.7c0,2,1.6,3.7,3.7,3.7C8.6,10.3,10.2,8.7,10.2,6.6z"/>
			<g>
				<path class="st0" d="M12.5,21.7c0.2,1.4-1.7,2.6-3.1,2.6c-1.9,0-3.7,0-5.6,0c-1.4,0-3.3-1.2-3.1-2.6c0.3-2.6,2.2-5.1,2.6-7.7
					c0.2-1.4,0.5-2.6,1.5-2.6c1.2,0,2.4,0,3.7,0c1,0,1.3,1.2,1.5,2.6C10.3,16.6,12.2,19.2,12.5,21.7z"/>
			</g>
		</g>
		<g>
			<path class="st0" d="M29.1,6.6c0-2-1.7-3.7-3.7-3.7c-2,0-3.7,1.6-3.7,3.7c0,2,1.7,3.7,3.7,3.7C27.5,10.3,29.1,8.7,29.1,6.6z"/>
			<g>
				<path class="st0" d="M31.4,21.7c0.2,1.4-1.7,2.6-3.1,2.6c-1.9,0-3.7,0-5.6,0c-1.4,0-3.3-1.2-3.1-2.6c0.3-2.6,2.2-5.1,2.6-7.7
					c0.2-1.4,0.5-2.6,1.5-2.6c1.2,0,2.4,0,3.7,0c1,0,1.3,1.2,1.5,2.6C29.2,16.6,31.1,19.2,31.4,21.7z"/>
			</g>
		</g>
	</g>
	<g>
		<path class="st0" d="M20,10c0-2.2-1.8-4-4-4c-2.2,0-4,1.8-4,4c0,2.2,1.8,4,4,4C18.2,13.9,20,12.2,20,10z"/>
		<g>
			<path class="st0" d="M22.4,26.2c0.2,1.5-1.8,2.8-3.4,2.8c-2,0-4,0-6,0c-1.5,0-3.5-1.2-3.4-2.8c0.3-2.8,2.4-5.5,2.8-8.3
				c0.3-1.5,0.5-2.8,1.6-2.8c1.3,0,2.6,0,3.9,0c1.1,0,1.4,1.3,1.6,2.8C20,20.7,22.1,23.5,22.4,26.2z"/>
		</g>
	</g>
</g>
</svg>
