<?xml version="1.0"?>
<svg xmlns="http://www.w3.org/2000/svg" xmlns:xlink="http://www.w3.org/1999/xlink" xmlns:svgjs="http://svgjs.com/svgjs" version="1.1" width="512" height="512" x="0" y="0" viewBox="0 0 416.093 416.093" style="enable-background:new 0 0 512 512" xml:space="preserve"><g>
<path xmlns="http://www.w3.org/2000/svg" d="M358.532,177.584l-48.438-66.403c-3.899-6.771-11.207-11.344-19.567-11.344h-45.277c-8.866,0-16.551,5.142-20.239,12.598  l-45.832,69.993L141.91,198.98c-1.824,0.811-3.453,1.917-4.868,3.242l-6.362-17.55c-0.887-2.446-3.235-4.039-5.849-3.951  c-2.6,0.09-4.846,1.846-5.561,4.348l-3.523,12.33l-5.485-6.051c-1.603-1.768-4.101-2.418-6.361-1.655  c-2.261,0.762-3.856,2.79-4.062,5.167l-1.254,14.452c-7.462,2.071-13.251,8.201-14.833,15.852l-23.586,9.514  c-1.556,0.627-2.778,1.877-3.37,3.446c-0.592,1.57-0.5,3.315,0.253,4.814c7.689,15.29,22.55,24.787,38.782,24.787  c1.358,0,2.711-0.064,4.057-0.192l0.197,89.27c-10.853,17.94-30.896,49.765-31.103,50.093c-1.164,1.849-1.232,4.185-0.176,6.098  c1.056,1.913,3.068,3.101,5.253,3.101h19.523c2.027,0,3.918-1.024,5.025-2.723l31.936-48.966l0.407,0.054  c-0.441,5.287,0.079,13.021,4.384,21.771c-10.186,2.617-21.395,9.395-21.395,23.863c0,3.314,2.687,6,6,6h71.369  c0.07,0,0.141-0.001,0.211-0.004c7.8-0.273,21.59-4.591,31.234-17.524c0.762,9.791,8.953,17.528,18.935,17.528  c10.485,0,19.016-8.528,19.016-19.012v-126.38h14.365v126.38c0,10.483,8.527,19.012,19.01,19.012  c10.485,0,19.016-8.528,19.016-19.012V174.529l10.886,14.923l-3.922,55.834c-0.578,9.643,6.797,17.959,16.443,18.539  c0.353,0.022,0.703,0.031,1.053,0.031c9.254,0,16.936-7.236,17.486-16.412l4.595-65.404c0.006-0.081,0.003-0.161,0.005-0.241  C359.812,180.311,359.421,178.806,358.532,177.584z M163.672,275.682l-15.659-43.197c0.339,0.02,0.678,0.037,1.02,0.037  c2.456,0,4.847-0.508,7.104-1.511l44.624-19.818c0.039-0.017,0.071-0.044,0.108-0.061c1.163-0.431,2.203-1.22,2.934-2.336  l18.878-28.83v140.765c-0.512-0.898-1.021-1.798-1.568-2.684C208.314,297.262,187.511,281.962,163.672,275.682z" fill="#757575" data-original="#000000" style=""/>
<path xmlns="http://www.w3.org/2000/svg" d="M270.222,89.908c24.788,0,44.955-20.166,44.955-44.954S295.01,0,270.222,0c-24.787,0-44.953,20.166-44.953,44.954  S245.435,89.908,270.222,89.908z" fill="#757575" data-original="#000000" style=""/>
<g xmlns="http://www.w3.org/2000/svg">
</g>
<g xmlns="http://www.w3.org/2000/svg">
</g>
<g xmlns="http://www.w3.org/2000/svg">
</g>
<g xmlns="http://www.w3.org/2000/svg">
</g>
<g xmlns="http://www.w3.org/2000/svg">
</g>
<g xmlns="http://www.w3.org/2000/svg">
</g>
<g xmlns="http://www.w3.org/2000/svg">
</g>
<g xmlns="http://www.w3.org/2000/svg">
</g>
<g xmlns="http://www.w3.org/2000/svg">
</g>
<g xmlns="http://www.w3.org/2000/svg">
</g>
<g xmlns="http://www.w3.org/2000/svg">
</g>
<g xmlns="http://www.w3.org/2000/svg">
</g>
<g xmlns="http://www.w3.org/2000/svg">
</g>
<g xmlns="http://www.w3.org/2000/svg">
</g>
<g xmlns="http://www.w3.org/2000/svg">
</g>
</g></svg>
