<?xml version="1.0" encoding="utf-8"?>
<!-- Generator: Adobe Illustrator 25.0.1, SVG Export Plug-In . SVG Version: 6.00 Build 0)  -->
<svg version="1.1" id="Layer_1" xmlns="http://www.w3.org/2000/svg" xmlns:xlink="http://www.w3.org/1999/xlink" x="0px" y="0px"
	 viewBox="0 0 32 32" style="enable-background:new 0 0 32 32;" xml:space="preserve">
<style type="text/css">
	.st0{fill:#FFFFFF;}
</style>
<g>
	<path class="st0" d="M16,2.7c7.5,0,13.3,5.9,13.3,13.3c0,7.5-5.9,13.3-13.3,13.3C8.5,29.3,2.7,23.5,2.7,16C2.7,8.5,8.5,2.7,16,2.7z
		 M8.7,15.4c0.1-1.7,0.6-3.8,1.3-5.9C8.8,9,7.8,8.4,6.9,7.8c-1.8,2-2.9,4.6-3,7.6H8.7z M3.9,16.6c0.1,2.9,1.2,5.6,3,7.6
		c0.8-0.6,1.9-1.1,3.1-1.6c-0.8-2.1-1.3-4.3-1.3-5.9H3.9z M12.6,4.3C10.8,4.8,9.1,5.8,7.8,7c0.7,0.5,1.6,1,2.6,1.5
		C11,7,11.8,5.5,12.6,4.3z M7.8,25c1.4,1.3,3,2.2,4.9,2.6c-0.9-1.2-1.6-2.6-2.2-4.1C9.4,23.9,8.5,24.4,7.8,25z M15.4,11
		c-1.3-0.1-2.9-0.5-4.4-1.1c-0.7,1.8-1.1,3.7-1.2,5.5h5.6V11z M9.8,16.6c0.1,1.8,0.5,3.6,1.2,5.5c1.5-0.6,3-1,4.4-1.1v-4.4H9.8z
		 M15.4,3.9c-0.4,0-0.8,0-1.2,0.1c-1.1,1.5-2,3.1-2.8,4.9c1.3,0.5,2.7,0.8,4,0.9V3.9z M15.4,22.2c-1.3,0.1-2.6,0.4-4,0.8
		c0.7,1.8,1.6,3.5,2.7,4.9c0.4,0.1,0.8,0.1,1.2,0.1V22.2z M16.6,9.8c1.3-0.1,2.7-0.4,4-0.9c-0.7-1.8-1.7-3.5-2.8-4.9
		c-0.4-0.1-0.8-0.1-1.2-0.1V9.8z M16.6,15.4h5.6c-0.1-1.8-0.5-3.7-1.2-5.5c-1.5,0.6-3,1-4.4,1.1V15.4z M16.6,16.6V21
		c1.3,0.1,2.9,0.5,4.4,1.1c0.7-1.9,1.1-3.8,1.2-5.5H16.6z M16.6,28.1c0.4,0,0.8,0,1.2-0.1c1.1-1.5,2-3.2,2.7-4.9
		c-1.3-0.5-2.7-0.7-4-0.8V28.1z M24.2,7c-1.4-1.3-3-2.2-4.9-2.7C20.2,5.5,21,7,21.6,8.5C22.6,8,23.5,7.5,24.2,7z M19.4,27.6
		c1.8-0.4,3.5-1.4,4.9-2.6c-0.7-0.5-1.6-1.1-2.7-1.5C21,25,20.3,26.4,19.4,27.6z M28.1,15.4c-0.1-2.9-1.2-5.6-3-7.6
		C24.2,8.4,23.2,9,22,9.5c0.8,2.1,1.3,4.2,1.3,5.9H28.1z M23.3,16.6c0,1.6-0.5,3.8-1.3,5.9c1.2,0.5,2.2,1.1,3.1,1.6
		c1.8-2,2.9-4.6,3-7.6H23.3z"/>
</g>
</svg>
