<svg xmlns="http://www.w3.org/2000/svg" viewBox="0 0 29.36 38.45"><defs><style>.cls-1{fill:#1b1952;}.cls-2{fill:#fff;}.cls-3{fill:none;stroke:#fff;stroke-linecap:round;stroke-miterlimit:10;stroke-width:2.36px;}</style></defs><g id="Layer_2" data-name="Layer 2"><g id="Layer_1-2" data-name="Layer 1"><path class="cls-1" d="M2.36,37.27a1.18,1.18,0,0,1-1.18-1.18V2.36A1.18,1.18,0,0,1,2.36,1.18H24.65a3.47,3.47,0,0,1,3.53,3.41V33.86a3.47,3.47,0,0,1-3.53,3.41Z"/><path class="cls-2" d="M24.65,2.36A2.3,2.3,0,0,1,27,4.59V33.86a2.3,2.3,0,0,1-2.36,2.23H2.36V2.36H24.65m0-2.36H2.36A2.35,2.35,0,0,0,0,2.36V36.09a2.36,2.36,0,0,0,2.36,2.36H24.65a4.66,4.66,0,0,0,4.71-4.59V4.59A4.66,4.66,0,0,0,24.65,0Z"/><path class="cls-2" d="M14.68,6.36a8.91,8.91,0,0,1,9,9,8.91,8.91,0,0,1-9,9,9,9,0,0,1,0-18ZM9.73,15a14.19,14.19,0,0,1,.9-4A11.27,11.27,0,0,1,8.57,9.85a8,8,0,0,0-2,5.11Zm-3.2.79a8,8,0,0,0,2,5.1,12.63,12.63,0,0,1,2.06-1.11,12.77,12.77,0,0,1-.9-4ZM12.41,7.5A7.58,7.58,0,0,0,9.13,9.29a8.58,8.58,0,0,0,1.77,1A12.45,12.45,0,0,1,12.41,7.5ZM9.13,21.41a7.25,7.25,0,0,0,3.28,1.77,11.39,11.39,0,0,1-1.49-2.78A8.92,8.92,0,0,0,9.13,21.41ZM14.28,12a9.42,9.42,0,0,1-2.93-.74A11.59,11.59,0,0,0,10.53,15h3.75Zm-3.75,3.78a12.13,12.13,0,0,0,.82,3.73,8.9,8.9,0,0,1,2.93-.74v-3Zm3.75-8.57a4.83,4.83,0,0,0-.82.08,16.25,16.25,0,0,0-1.87,3.3,10,10,0,0,0,2.69.59Zm0,12.38a10.25,10.25,0,0,0-2.67.55,14.82,14.82,0,0,0,1.85,3.34,4.78,4.78,0,0,0,.82.07Zm.8-8.41a10.15,10.15,0,0,0,2.7-.59,16.76,16.76,0,0,0-1.88-3.3,4.83,4.83,0,0,0-.82-.08Zm0,3.81h3.75A11.59,11.59,0,0,0,18,11.23a9.42,9.42,0,0,1-2.93.74Zm0,.79v3a8.9,8.9,0,0,1,2.93.74,12.13,12.13,0,0,0,.82-3.73Zm0,7.77a4.78,4.78,0,0,0,.82-.07,14.82,14.82,0,0,0,1.85-3.34,10.25,10.25,0,0,0-2.67-.55ZM20.24,9.29A7.7,7.7,0,0,0,17,7.5a12.43,12.43,0,0,1,1.5,2.77A9,9,0,0,0,20.24,9.29ZM17,23.18a7.35,7.35,0,0,0,3.28-1.77,9.3,9.3,0,0,0-1.8-1A11.36,11.36,0,0,1,17,23.18ZM22.83,15a8,8,0,0,0-2-5.11A11,11,0,0,1,18.73,11a14.19,14.19,0,0,1,.9,4Zm-3.2.79a12.77,12.77,0,0,1-.9,4,12.23,12.23,0,0,1,2.06,1.11,8,8,0,0,0,2-5.1Z"/><line class="cls-3" x1="7.48" y1="29.56" x2="21.88" y2="29.56"/></g></g></svg>