<?xml version="1.0"?>
<svg xmlns="http://www.w3.org/2000/svg" xmlns:xlink="http://www.w3.org/1999/xlink" xmlns:svgjs="http://svgjs.com/svgjs" version="1.1" width="512" height="512" x="0" y="0" viewBox="0 0 512 512" style="enable-background:new 0 0 512 512" xml:space="preserve" class=""><g><path xmlns="http://www.w3.org/2000/svg" d="m256.612 13.686c-137.055 0-248.412 110.5371-248.412 247.8027 0 137.2588 111.357 247.7959 248.412 247.7959s247.188-110.5371 247.188-247.7959c0-137.2656-110.1334-247.8027-247.188-247.8027zm19.579 314.61c-18.3553-1.2168-25.6976-10.9307-40.382-19.4346-7.3422 41.2959-17.1317 80.165-45.277 100.8164-8.5658-61.9473 12.2368-108.1035 22.0267-157.91-17.1322-27.9378 2.4473-86.242 37.9347-71.6678 44.0534 17.0078-37.9347 106.8935 17.1318 117.8242 58.7377 12.1474 81.9881-100.8164 46.501-137.2588-52.62-52.2334-151.7395-1.2168-139.5023 74.0947 3.6709 18.2246 22.0267 24.2949 8.5659 49.8067-34.2639-7.2871-44.0534-34.0157-42.83-68.0245 2.4472-57.0937 51.3955-97.18 101.5675-103.25 62.4087-7.2871 121.1465 23.0782 128.4887 81.3819 9.79 66.8144-28.1453 138.4824-94.2253 133.6221z" fill-rule="evenodd" fill="#ffffff" data-original="#000000" style="" class=""/></g></svg>
