<svg xmlns="http://www.w3.org/2000/svg" viewBox="0 0 50.16 43.68"><defs><style>.cls-1{fill:#fff;}</style></defs><g id="Layer_2" data-name="Layer 2"><g id="Layer_1-2" data-name="Layer 1"><path class="cls-1" d="M26.37,30.92a4.6,4.6,0,0,0,1.86-2.43c.11-.39,0-.65-.42-.71-.89-.13-1.8-.23-2.59-.34h-.14v4.06A2.2,2.2,0,0,0,26.37,30.92Z"/><path class="cls-1" d="M43.63,5.43a12.41,12.41,0,0,0-4-2.89A6.42,6.42,0,0,0,34,2.46a.56.56,0,0,1-.47-.06A14.26,14.26,0,0,0,25.08,0V3.07a15,15,0,0,1,3.18.34,9.76,9.76,0,0,1,5.89,3.91,23,23,0,0,1,3.07,6.07c1.12,3.12,2.26,6.23,3.35,9.36a18.94,18.94,0,0,1,.93,8A9.36,9.36,0,0,1,35,39.15a25.69,25.69,0,0,1-8.36,1.41V40c0-1.75,0-3.49,0-5.24a.68.68,0,0,1,.47-.72,7.73,7.73,0,0,0,4.06-4.59,3.55,3.55,0,0,0-2.94-4.79,17.35,17.35,0,0,0-3.13-.28v3h.14c.79.11,1.7.21,2.59.34.42.06.53.32.42.71a4.6,4.6,0,0,1-1.86,2.43,2.2,2.2,0,0,1-1.29.59V43.68c1.36,0,2.72-.06,4.08-.17A21.84,21.84,0,0,0,38,41.12,12,12,0,0,0,44.44,32,22.41,22.41,0,0,0,44,23.37c.55-.13,1.11-.21,1.64-.38A6.31,6.31,0,0,0,50,18.41c0-.1.76-2.07-1-5.51A31.21,31.21,0,0,0,43.63,5.43Zm.56,14.74c-1.18.17-1.18.17-1.59-1C41.45,16.11,40.33,13,39.13,9.9a18.16,18.16,0,0,0-2.65-4.59c-.07-.1-.13-.21-.24-.38A5.21,5.21,0,0,1,40,6.27,23.1,23.1,0,0,1,46.55,15,7.18,7.18,0,0,1,47,16.69,3.14,3.14,0,0,1,44.19,20.17Z"/><path class="cls-1" d="M30.16,20.36a2.05,2.05,0,1,0-2-2.06A2.05,2.05,0,0,0,30.16,20.36Z"/><path class="cls-1" d="M23.79,30.92a4.65,4.65,0,0,1-1.86-2.43c-.11-.39,0-.65.42-.71.9-.13,1.8-.23,2.6-.34h.13v4.06A2.23,2.23,0,0,1,23.79,30.92Z"/><path class="cls-1" d="M1.2,12.9c-1.78,3.44-1.06,5.41-1,5.51A6.31,6.31,0,0,0,4.55,23c.53.17,1.09.25,1.65.38A22.22,22.22,0,0,0,5.72,32a12,12,0,0,0,6.4,9.16A21.93,21.93,0,0,0,21,43.51c1.35.11,2.71.17,4.07.17V31.51a2.23,2.23,0,0,1-1.29-.59,4.65,4.65,0,0,1-1.86-2.43c-.11-.39,0-.65.42-.71.9-.13,1.8-.23,2.6-.34h.13v-3a17.43,17.43,0,0,0-3.13.28A3.55,3.55,0,0,0,19,29.48a7.75,7.75,0,0,0,4.07,4.59.68.68,0,0,1,.46.72c0,1.75,0,3.49,0,5.24v.53a25.78,25.78,0,0,1-8.36-1.41,9.37,9.37,0,0,1-6.51-8.36,19.11,19.11,0,0,1,.94-8c1.08-3.13,2.22-6.24,3.34-9.36A23.3,23.3,0,0,1,16,7.32,9.74,9.74,0,0,1,21.9,3.41a15,15,0,0,1,3.18-.34V0a14.3,14.3,0,0,0-8.42,2.4.56.56,0,0,1-.47.06,6.42,6.42,0,0,0-5.7.08A12.37,12.37,0,0,0,6.54,5.43,31.21,31.21,0,0,0,1.2,12.9Zm2,3.79A7.7,7.7,0,0,1,3.61,15a23.2,23.2,0,0,1,6.6-8.77,5.21,5.21,0,0,1,3.72-1.34c-.11.17-.17.28-.25.38A18.47,18.47,0,0,0,11,9.9C9.83,13,8.72,16.11,7.57,19.22c-.41,1.12-.41,1.12-1.6,1A3.13,3.13,0,0,1,3.18,16.69Z"/><path class="cls-1" d="M20,20.36a2.05,2.05,0,0,1,0-4.1,2.05,2.05,0,0,1,0,4.1Z"/></g></g></svg>