<?xml version="1.0" encoding="utf-8"?>
<!-- Generator: Adobe Illustrator 25.0.1, SVG Export Plug-In . SVG Version: 6.00 Build 0)  -->
<svg version="1.1" id="Layer_1" xmlns="http://www.w3.org/2000/svg" xmlns:xlink="http://www.w3.org/1999/xlink" x="0px" y="0px"
	 viewBox="0 0 32 32" style="enable-background:new 0 0 32 32;" xml:space="preserve">
<style type="text/css">
	.st0{fill:#FFFFFF;}
</style>
<path class="st0" d="M29.1,10.9h-7.5V3.5c0-0.5-0.4-1-1-1h-8.4c-0.5,0-1,0.4-1,1v7.5H3.8c-0.5,0-1,0.4-1,1v8.4c0,0.5,0.4,1,1,1h7.5
	v7.5c0,0.5,0.4,1,1,1h8.4c0.5,0,1-0.4,1-1v-7.5h7.5c0.5,0,1-0.4,1-1v-8.4C30.1,11.4,29.6,10.9,29.1,10.9z"/>
</svg>
