<svg width="55" height="48" viewBox="0 0 55 48" fill="none" xmlns="http://www.w3.org/2000/svg">
<path d="M16.1067 33.6C16.1067 34.4832 16.8235 35.2 17.7067 35.2H46.8267C47.7099 35.2 48.4267 35.9168 48.4267 36.8C48.4267 37.6832 47.7099 38.4 46.8267 38.4H17.7067C15.056 38.4 12.9067 36.2507 12.9067 33.6C12.9067 31.6565 14.0629 29.9829 15.7248 29.2288C15.7248 29.2256 15.7227 29.2224 15.7227 29.2192L10.0565 3.2H1.6C0.7168 3.2 0 2.4832 0 1.6C0 0.7168 0.7168 0 1.6 0H11.3067C12.0715 0 12.7115 0.536533 12.8693 1.2544L18.8491 28.5387C18.8683 28.6261 18.8779 28.7136 18.8821 28.8011H45.5243L51.5701 7.50613C51.8112 6.656 52.6955 6.16213 53.5456 6.40213C54.3957 6.6432 54.8896 7.52747 54.6496 8.3776L48.3403 30.6251C48.1387 31.3387 47.7365 32 46.64 32H17.7067C16.8235 32 16.1067 32.7168 16.1067 33.6ZM20.9067 38.4C23.5573 38.4 25.7067 40.5493 25.7067 43.2C25.7067 45.8507 23.5573 48 20.9067 48C18.256 48 16.1067 45.8507 16.1067 43.2C16.1067 40.5493 18.256 38.4 20.9067 38.4ZM19.3067 43.2C19.3067 44.0832 20.0235 44.8 20.9067 44.8C21.7899 44.8 22.5067 44.0832 22.5067 43.2C22.5067 42.3168 21.7899 41.6 20.9067 41.6C20.0235 41.6 19.3067 42.3168 19.3067 43.2ZM43.52 38.4C46.1707 38.4 48.32 40.5493 48.32 43.2C48.32 45.8507 46.1707 48 43.52 48C40.8693 48 38.72 45.8507 38.72 43.2C38.72 40.5493 40.8693 38.4 43.52 38.4ZM41.92 43.2C41.92 44.0832 42.6368 44.8 43.52 44.8C44.4032 44.8 45.12 44.0832 45.12 43.2C45.12 42.3168 44.4032 41.6 43.52 41.6C42.6368 41.6 41.92 42.3168 41.92 43.2Z" fill="white"/>
</svg>
