<?xml version="1.0"?>
<svg xmlns="http://www.w3.org/2000/svg" xmlns:xlink="http://www.w3.org/1999/xlink" xmlns:svgjs="http://svgjs.com/svgjs" version="1.1" width="512" height="512" x="0" y="0" viewBox="0 0 512 512" style="enable-background:new 0 0 512 512" xml:space="preserve"><g><g xmlns="http://www.w3.org/2000/svg"><path d="m276.663 202.758-.084.225h-126.502c-18.363 0-35.456 5.528-49.714 15h-40.363c-16.542 0-30-13.458-30-30s13.458-30 30-30h45c8.284 0 15-6.716 15-15s-6.716-15-15-15h-45c-33.084 0-60 26.916-60 60s26.916 60 60 60h12.115c-7.7 13.266-12.115 28.665-12.115 45.077v187.923c0 8.284 6.716 15 15 15h60c8.284 0 15-6.716 15-15v-126.592l137 12.305v115.287c0 8.284 6.716 15 15 15h60c8.284 0 15-6.716 15-15v-142.514l18.483-92.417z" fill="#ffffff" data-original="#000000" style=""/><path d="m497 112.983h-45.262c-2.436-22.897-21.816-41-45.688-41h-25.169l-9.184-45c-3.005-14.719-23.508-16.321-28.755-2.234l-55.811 149.894 114.311 42.613 2.855-14.273h32.703c41.355 0 75-33.645 75-75 0-8.284-6.716-15-15-15z" fill="#ffffff" data-original="#000000" style=""/></g></g></svg>
