<svg xmlns="http://www.w3.org/2000/svg" viewBox="0 0 372.54 85.64"><defs><style>.cls-1{fill:#ffffff;}</style></defs><g id="Layer_2" data-name="Layer 2"><g id="Layer_1-2" data-name="Layer 1"><g id="Layer_2-2" data-name="Layer 2"><g id="Layer_1-2-2" data-name="Layer 1-2"><path class="cls-1" d="M145.56.59,145.5.48l.07.1Z"/><path class="cls-1" d="M146.63,2.47l.71-.38a6.56,6.56,0,0,0,1.49-1L149,.86a.64.64,0,0,0,.08-.3.51.51,0,0,0-.1-.32.41.41,0,0,0-.21-.18.68.68,0,0,0-.34-.06l-.47.07-.2,0-.31.07-.45.1a.29.29,0,0,1-.13,0h-.18V.48l-.31-.37c-2.05,1.2-4,2.47-5.91,3.8-.92.66-1.82,1.33-2.7,2a90.49,90.49,0,0,0-7.83,6.81c-1.61,1.55-3.17,3.16-4.69,4.79-1.26,1.34-2.48,2.7-3.7,4.08l-4.09,4.71a33.61,33.61,0,0,0-11.23-6.24c-.6-.19-1.2-.38-1.81-.54l-.2,0a32.62,32.62,0,0,0-6.2-1,15.33,15.33,0,0,0-2.14-.1H33.63a34.15,34.15,0,0,0-3.64.2c-.84.09-1.67.26-2.51.41-.32.06-.67.1-1,.17-.67.15-1.34.33-2,.51a34.22,34.22,0,0,0-6.6,2.79c-.4.22-.81.41-1.19.63-.91.55-1.8,1.14-2.66,1.76l-.14.11a36.69,36.69,0,0,0-3.22,2.61c-.21.2-.44.39-.64.59a32.37,32.37,0,0,0-3.65,4.28c-.36.49-.68,1-1,1.51l-.11.16A33.83,33.83,0,0,0,.5,46.48l-.09.57c-.08.5-.18,1-.23,1.52-.09.84-.11,1.72-.18,2.6V52a33.37,33.37,0,0,0,.42,5.28,35.4,35.4,0,0,0,1.2,5c.22.64.45,1.28.7,1.9.33.82.69,1.6,1.08,2.39.1.21.18.44.29.65q.72,1.4,1.56,2.73a28.89,28.89,0,0,0,2,2.83c.76.91,1.36,1.76,2.12,2.51.5.51,1,1,1.53,1.48a28.52,28.52,0,0,0,2.49,2A33.76,33.76,0,0,0,19,82.23c1,.48,2,.9,3.06,1.29s1.8.63,2.72.88c.71.2,1.43.38,2.16.53s1.46.28,2.21.39a32.78,32.78,0,0,0,4.54.32H95.84a33.4,33.4,0,0,0,9.67-1.43c.89-.27,1.76-.58,2.62-.93a33.45,33.45,0,0,0,5.75-2.93c.9-.59,1.77-1.2,2.62-1.86s1.64-1.36,2.42-2c.52-.49,1-1,1.49-1.52a33.21,33.21,0,0,0,6.07-9.19c.29-.64.6-1.27.84-1.94s.48-1.25.67-1.91a32.6,32.6,0,0,0,1.1-4.79,34.3,34.3,0,0,0,.37-4.75v-.26c0-1-.07-2-.15-2.91a8.83,8.83,0,0,0-.11-1c0-.35-.07-.76-.13-1.13a32.44,32.44,0,0,0-2.62-8.71c-.42-.94-.89-1.85-1.39-2.74-.17-.31-.33-.64-.52-.95l-.27-.48c.55-.82,1.12-1.64,1.69-2.47.19-.25.35-.51.53-.77.5-.85,1-1.7,1.5-2.5a20.87,20.87,0,0,1,1.59-2.26c.42-.52.9-1,1.41-1.58,1-1.08,2.17-2.15,3.26-3.14L135.83,20l.49-.44-.57-.33V19.1a6.79,6.79,0,0,1,.88-2.22,10.76,10.76,0,0,0,.9-2,2.36,2.36,0,0,0,.11-.6,1,1,0,0,0-.17-.54l.28-.22c.49-.42,1-.87,1.44-1.29s.59-.56.87-.87a4,4,0,0,0,.28-.37,1.11,1.11,0,0,0,.17-.47v-.18a1.76,1.76,0,0,1-.07-.4c0-.11,0-.22-.05-.33,0-.76.38-2,1.83-3.69a18.93,18.93,0,0,1,1.68-1.79l.33-.23.27-.18c.44-.28.94-.57,1.44-.86ZM38.07,56.32a13,13,0,0,1-.19,1.76,26.56,26.56,0,0,1-.74,3.41,25.29,25.29,0,0,1-.93,2.7.49.49,0,0,1-.06.17,23.67,23.67,0,0,1-1.74,3.4,26.18,26.18,0,0,1-4.86,5.83,27.76,27.76,0,0,1-3.07,2.32.62.62,0,0,1-.29.09H26a27.35,27.35,0,0,1-3.49-1.35l-.92-.5-1.11-.62s-1.28-.54.08-.88A24.19,24.19,0,0,0,31,66.84a14.66,14.66,0,0,0,2.32-2.94c.13-.2.21-.41.32-.62a27.45,27.45,0,0,0,1.3-2.74,24,24,0,0,0,1.58-5.95,26.69,26.69,0,0,0,.25-3.22v-1a.55.55,0,0,1,.49-.56.5.5,0,0,1,.26.08h.12a.55.55,0,0,1,.2.34,24.76,24.76,0,0,1,.36,4.21C38.13,55.15,38.11,55.72,38.07,56.32Zm82.65-2.9a17.11,17.11,0,0,1-.22,2.27c-.1.75-.26,1.48-.43,2.2s-.34,1.33-.55,2a24.85,24.85,0,0,1-7.3,11q-.85.73-1.74,1.38A24.86,24.86,0,0,1,95.84,77H45.72a7.6,7.6,0,0,1,2.94-3.78,15.92,15.92,0,0,1,4.09-1.92c.55-.19,1.13-.36,1.75-.52a50,50,0,0,0,6.13-2c1.2-.51,2.28-1,3.27-1.56.49-.26,1-.53,1.4-.8a25.67,25.67,0,0,0,2.38-1.63c.36-.27.68-.54,1-.8a20.9,20.9,0,0,0,1.61-1.65A14.86,14.86,0,0,0,72.7,59a8.27,8.27,0,0,0,.74-1.88V47.89c.45-.86,1.13-1.9.74-2.9a2.78,2.78,0,0,0-1.48-1.36,14.41,14.41,0,0,0-3.93-1c-1.66-.25-3.66-.42-5.94-.54-1.52-.08-3.16-.14-4.9-.19l-2-.07-3.69-.09-.21-.4c-.08-.14-.34-.66-.61-1.09s-.57-.95-1-1.53c-.59-.88-1.34-1.94-2.3-3.2a7.13,7.13,0,0,0-2-1.75,15.14,15.14,0,0,0-2.9-1.39,21.36,21.36,0,0,0-2-.65c-1-.28-2.17-.53-3.31-.74l-1-.16c-.79-.13-1.58-.24-2.38-.33L33,30.37c-.75-.07-1.48-.13-2.22-.16H26.47c-.68,0-1.36.06-2,.11s-1.4.12-2,.2-1.28.17-1.84.29a16.55,16.55,0,0,1,1.9-1c.65-.29,1.3-.61,2-.87s1.33-.5,2-.71a24.72,24.72,0,0,1,7.15-1H95.84a17.26,17.26,0,0,1,2.16.09c.72.09,1.42.17,2.12.29a25.11,25.11,0,0,1,4.09,1.07c.68.25,1.36.51,2,.82a24.62,24.62,0,0,1,6,3.83c-1.6,2.2-3.71,5.1-6,8.34l-2,2.87-1.88,2.73c-1.64,2.44-3.29,4.91-4.84,7.3a79.7,79.7,0,0,0-5.29-8.17l-2.77-3.14-2-2.26h0l.21,1h0c-.07-.11-.14-.2-.21-.3a4.21,4.21,0,0,0-.58-.82,6.11,6.11,0,0,0-1.5-1.5,1.57,1.57,0,0,0-.47-.13h0a.71.71,0,0,0-.45.17h0a.94.94,0,0,0-.25.35A3.86,3.86,0,0,0,84,40.85V42.3h0a1.1,1.1,0,0,0-.42.24l-.81-1.41-.17-.31-.34.07A.27.27,0,0,0,82,41c0-.1-.09-.18-.14-.26l-.44-.88-.39.91a.78.78,0,0,0-.07.33h0l-.41-.51a3.73,3.73,0,0,0-1-.92,1.46,1.46,0,0,0-.41-.11.58.58,0,0,0-.38.12,13.44,13.44,0,0,0-.9-1.67l-.52-.78v.07L77.16,37,77,38.22v.07h0l-.09.66.08.17h-.08v1.39h0c.23.8.39,1.62.55,2.36A9.36,9.36,0,0,0,78,44.73c3.28,6.42,12.74,23.84,12.74,24a.47.47,0,0,0,.26.42h11.1l.12-.08.08,0,.06-.09h0l.31-.38.25-.33.43-.53.89-1,.53-.66,4.7-7.84h-.36l.47-.7.56-.78c.41-.54.85-1.12,1.29-1.73l.39-.69v-.31a1.13,1.13,0,0,0,0-.26l1-1.36c1.92-3.34,3.87-6.68,5.94-10a25,25,0,0,1,1.31,4.21c.15.73.27,1.47.37,2.21s.15,1.51.17,2.28v.86A5.53,5.53,0,0,1,120.72,53.42Z"/></g></g><path class="cls-1" d="M145,18.32l-2.77,31.57H369.77l2.77-31.57Zm12.48,11.81h0a14.91,14.91,0,0,0,4,1.37,10.19,10.19,0,0,1,4.76,2.36,5.38,5.38,0,0,1,1.37,4.6,6.75,6.75,0,0,1-2.74,4.85,10.71,10.71,0,0,1-8.06,1.74,13.08,13.08,0,0,1-7.32-3.74l3.31-3.66a12.08,12.08,0,0,0,4.35,2.83,5,5,0,0,0,4.3-.24,2.12,2.12,0,0,0,.93-1.61,1.71,1.71,0,0,0-.69-1.61,10.21,10.21,0,0,0-3.21-1.2A13,13,0,0,1,153,33.32q-1.68-1.5-1.41-4.69a6.43,6.43,0,0,1,2.73-4.93c3-2.1,7-2.14,10.32-1a10.48,10.48,0,0,1,3.73,2.18l-2.86,3.74a9.75,9.75,0,0,0-4-2c-1.24-.29-2.83-.45-3.91.38a2.11,2.11,0,0,0-.86,1.58A1.6,1.6,0,0,0,157.51,30.13ZM188.26,27H177.08l-.4,4.62h10.06l-.38,4.28H176.3l-.4,4.65h11.53L187,45H170.5l2-22.46h16.2Zm15.91,18-4.35-7.17h-3.47L195.72,45h-5l2-22.46h8.52q5.23,0,7.31,1.77c1.39,1.17,2,3.07,1.74,5.68q-.48,5.4-4.89,7l5,8ZM219,45,212,22.52h5.43l4.52,14.3,7-14.3h5.43L223.33,45Zm20.15,0h-5l2-22.46h5Zm11-6.35v0c3,3.26,8.08,1.94,10.72-1L263.8,41a13.24,13.24,0,0,1-9,4.3,11.2,11.2,0,0,1-8.7-3.27c-4.43-4.73-3-12.51,1.52-16.61A12.89,12.89,0,0,1,257,22.07a11,11,0,0,1,8.18,4.19l-3.43,3.54A6.71,6.71,0,0,0,257,26.89a7.71,7.71,0,0,0-5.84,1.8,7.09,7.09,0,0,0-2.44,5A6.31,6.31,0,0,0,250.16,38.65ZM284.37,27H273.19l-.41,4.62h10.06l-.38,4.28h-10L272,40.56h11.53L283.15,45H266.6l2-22.46h16.2Zm31.53,6.63A12.05,12.05,0,0,1,312,41.93q-3.39,3-9.82,3h-7.68l2-22.46h7.94q6,0,9,2.94C315.32,27.42,316.16,30.15,315.9,33.64Zm25.84,0a12.25,12.25,0,0,1-4.13,8.28c-4.6,4.13-12.35,4.72-16.77,0s-3.19-12.46,1.39-16.6,12.35-4.72,16.78,0a10.24,10.24,0,0,1,2.68,8.28Zm22.38,7.91c-4.49,4.56-13.05,5.31-17.6.45a10.27,10.27,0,0,1-2.64-8.28,12.84,12.84,0,0,1,13.91-11.66,11.69,11.69,0,0,1,1.66.26,10.86,10.86,0,0,1,5.21,2.86l-2.93,3.76a8.68,8.68,0,0,0-2.62-1.82,7.42,7.42,0,0,0-7.7,1.45c-2.66,2.43-3.5,7.39-1,10.21,2.16,2.42,6,2.4,8.74.92l.54-6.17h5Z"/><path class="cls-1" d="M201.07,26.82h-3.76l-.58,6.66h3.66a5.74,5.74,0,0,0,3.57-.84A3.76,3.76,0,0,0,205.13,30a2.65,2.65,0,0,0-.75-2.49A5.77,5.77,0,0,0,201.07,26.82Z"/><path class="cls-1" d="M330.54,26.37a6.7,6.7,0,0,0-4.92,2.13,8,8,0,0,0-2.38,5.12,6.79,6.79,0,0,0,1.48,5.11c2.47,3,6.9,2.58,9.48,0a8,8,0,0,0,2.38-5.11,6.81,6.81,0,0,0-1.48-5.12A5.61,5.61,0,0,0,330.54,26.37Z"/><polygon class="cls-1" points="353.9 55.24 355.77 55.24 355.04 60.45 356.04 60.45 356.77 55.24 358.64 55.24 358.77 54.29 354 54.29 353.9 55.24"/><polygon class="cls-1" points="362.9 58.16 361.59 54.29 359.97 54.29 359.1 60.45 360.1 60.45 360.78 55.64 362.32 59.91 362.9 59.91 365.65 55.64 364.97 60.45 365.97 60.45 366.83 54.29 365.22 54.29 362.9 58.16"/><path class="cls-1" d="M139.34,85.64H349.07l2.76-31.57H142.1Zm197.34-13v0a10.21,10.21,0,0,0-3.21-1.2A13.13,13.13,0,0,1,328,69q-1.68-1.5-1.41-4.69a6.43,6.43,0,0,1,2.73-4.93c3-2.1,7-2.14,10.32-1a10.48,10.48,0,0,1,3.73,2.18l-2.86,3.66a9.75,9.75,0,0,0-4-2c-1.24-.29-2.83-.45-3.91.38a2.11,2.11,0,0,0-.86,1.58,1.61,1.61,0,0,0,.74,1.55,15.27,15.27,0,0,0,4,1.37,10.19,10.19,0,0,1,4.76,2.36,5.38,5.38,0,0,1,1.37,4.6,6.73,6.73,0,0,1-2.7,4.9,10.68,10.68,0,0,1-8.06,1.79,13.07,13.07,0,0,1-7.32-3.82l3.31-3.66a12.08,12.08,0,0,0,4.35,2.83,5,5,0,0,0,4.3-.24,2.15,2.15,0,0,0,.93-1.61A1.7,1.7,0,0,0,336.68,72.68ZM304,58.17h7.92q6,0,9,2.94c2,2,2.8,4.68,2.5,8.18a12.11,12.11,0,0,1-3.86,8.29q-3.41,3-9.83,3H302Zm-22.56,0h8.48c3.49,0,5.92.59,7.31,1.77s2,3.07,1.74,5.68c-.31,3.6-1.93,5.93-4.88,7l5,8H292.9l-4.35-7.17H285.1l-.63,7.17h-5Zm-11.5,0,7.74,22.46h-5.33l-1.67-4.85h-9.41l-2.52,4.85H253.4l11.67-22.46Zm-34.89,0H243q6,0,9,2.94c2,2,2.8,4.68,2.49,8.18a12.1,12.1,0,0,1-3.85,8.29q-3.4,3-9.83,3h-7.68Zm-25.45,0h4.69L224,72.63l1.26-14.46h5l-2,22.46h-5l-9.39-14-1.23,14.08h-5Zm-11.5,0,7.73,22.46h-5.33l-1.66-4.85H189.4l-2.5,4.89h-5.33l11.66-22.46Zm-30.59,0h17.73l-.32,4.38h-6.37L176.9,80.67h-5l1.58-18.12h-6.36ZM158.8,72.68a9.92,9.92,0,0,0-3.2-1.2,13.11,13.11,0,0,1-5.53-2.43q-1.68-1.5-1.4-4.69a6.41,6.41,0,0,1,2.73-4.93c3-2.1,7-2.14,10.31-1a10.48,10.48,0,0,1,3.73,2.18l-2.86,3.66a9.63,9.63,0,0,0-4-2c-1.25-.29-2.84-.45-3.92.38a2.14,2.14,0,0,0-.86,1.58,1.61,1.61,0,0,0,.75,1.55,14.91,14.91,0,0,0,4,1.37,10.29,10.29,0,0,1,4.76,2.36,5.39,5.39,0,0,1,1.36,4.6A6.72,6.72,0,0,1,162,79a10.72,10.72,0,0,1-8.08,1.75,13.07,13.07,0,0,1-7.32-3.82l3.32-3.63a11.17,11.17,0,0,0,5.25,3.07c1.64.31,4.15,0,4.33-2.09A1.73,1.73,0,0,0,158.8,72.68Z"/><path class="cls-1" d="M316,74.5a7.18,7.18,0,0,0,2.29-5,6.23,6.23,0,0,0-1.42-5.14c-1.13-1.2-3-1.79-5.51-1.78h-2.8L307.4,76.23h3.18A8,8,0,0,0,316,74.5Z"/><path class="cls-1" d="M292.72,68.33a3.73,3.73,0,0,0,1.18-2.65,2.59,2.59,0,0,0-.75-2.49,5.77,5.77,0,0,0-3.31-.68h-3.76l-.58,6.66h3.66A5.77,5.77,0,0,0,292.72,68.33Z"/><polygon class="cls-1" points="266.9 64.89 263.5 71.41 269.12 71.41 266.9 64.89"/><polygon class="cls-1" points="195.08 64.89 191.68 71.41 197.31 71.41 195.08 64.89"/><path class="cls-1" d="M303.9,26.89h-2.8l-1.2,13.65h3.18a8,8,0,0,0,5.44-1.73,7.27,7.27,0,0,0,2.29-5,6.28,6.28,0,0,0-1.41-5.1C308.27,27.49,306.44,26.89,303.9,26.89Z"/><path class="cls-1" d="M247.08,74.5h0a7.18,7.18,0,0,0,2.29-5,6.3,6.3,0,0,0-1.4-5.09q-1.69-1.8-5.52-1.78h-2.79l-1.2,13.65h3.18A8,8,0,0,0,247.08,74.5Z"/></g></g></svg>