<svg xmlns="http://www.w3.org/2000/svg" xmlns:xlink="http://www.w3.org/1999/xlink" viewBox="0 0 284.2 47.06"><defs><style>.cls-1,.cls-5,.cls-6{stroke-miterlimit:10;stroke-width:0.5px;}.cls-1{fill:url(#linear-gradient);stroke:url(#linear-gradient-2);}.cls-2,.cls-3,.cls-4,.cls-7{stroke-linecap:round;stroke-linejoin:round;stroke-width:0.8px;}.cls-2{fill:url(#linear-gradient-3);stroke:url(#linear-gradient-4);}.cls-3{fill:url(#linear-gradient-5);stroke:url(#linear-gradient-6);}.cls-4{fill:url(#linear-gradient-7);stroke:url(#linear-gradient-8);}.cls-5{fill:url(#linear-gradient-9);stroke:url(#linear-gradient-10);}.cls-6{fill:url(#linear-gradient-11);stroke:url(#linear-gradient-12);}.cls-7{fill:url(#linear-gradient-13);stroke:url(#linear-gradient-14);}.cls-8{fill:url(#linear-gradient-15);}</style><linearGradient id="linear-gradient" x1="53.84" y1="23.53" x2="95.69" y2="23.53" gradientUnits="userSpaceOnUse"><stop offset="0" stop-color="#009f7c"/><stop offset="0.45" stop-color="#009cda"/><stop offset="1" stop-color="#212483"/></linearGradient><linearGradient id="linear-gradient-2" x1="53.59" y1="23.53" x2="95.94" y2="23.53" xlink:href="#linear-gradient"/><linearGradient id="linear-gradient-3" x1="102.33" y1="23.53" x2="143.63" y2="23.53" xlink:href="#linear-gradient"/><linearGradient id="linear-gradient-4" x1="101.93" y1="23.53" x2="144.03" y2="23.53" xlink:href="#linear-gradient"/><linearGradient id="linear-gradient-5" x1="199.28" y1="23.53" x2="239.55" y2="23.53" xlink:href="#linear-gradient"/><linearGradient id="linear-gradient-6" x1="198.88" y1="23.53" x2="239.95" y2="23.53" xlink:href="#linear-gradient"/><linearGradient id="linear-gradient-7" x1="150" y1="23.53" x2="192.4" y2="23.53" xlink:href="#linear-gradient"/><linearGradient id="linear-gradient-8" x1="149.6" y1="23.53" x2="192.8" y2="23.53" xlink:href="#linear-gradient"/><linearGradient id="linear-gradient-9" x1="5.05" y1="31.58" x2="41.7" y2="31.58" xlink:href="#linear-gradient"/><linearGradient id="linear-gradient-10" x1="4.8" y1="31.58" x2="41.95" y2="31.58" xlink:href="#linear-gradient"/><linearGradient id="linear-gradient-11" x1="0.25" y1="12.5" x2="47.08" y2="12.5" xlink:href="#linear-gradient"/><linearGradient id="linear-gradient-12" x1="0" y1="12.5" x2="47.33" y2="12.5" xlink:href="#linear-gradient"/><linearGradient id="linear-gradient-13" x1="251.47" y1="23.53" x2="283.8" y2="23.53" xlink:href="#linear-gradient"/><linearGradient id="linear-gradient-14" x1="251.07" y1="23.53" x2="284.2" y2="23.53" xlink:href="#linear-gradient"/><linearGradient id="linear-gradient-15" x1="259.36" y1="40.22" x2="275.91" y2="40.22" xlink:href="#linear-gradient"/></defs><g id="Layer_2" data-name="Layer 2"><g id="Layer_1-2" data-name="Layer 1"><path class="cls-1" d="M95.61,32.72h0l-5.5-13V9.18a4.28,4.28,0,0,0-1.89-3.37,27.07,27.07,0,0,0-26.91-.33,4.2,4.2,0,0,0-1.89,3.4V19.73l-5.5,13v0a1,1,0,0,0-.07.34V42a2.87,2.87,0,0,0,2.71,3h3.71A2.86,2.86,0,0,0,63,42V40.7H86.56V42a2.86,2.86,0,0,0,2.71,3H93a2.87,2.87,0,0,0,2.71-3V33.08A.9.9,0,0,0,95.61,32.72ZM61.3,8.88a2.46,2.46,0,0,1,.93-1.76,25.16,25.16,0,0,1,25,.32,2.35,2.35,0,0,1,1,1.74V19H85.51V14.58a2.59,2.59,0,0,0-1.64-2.39A29,29,0,0,0,65.67,12a2.24,2.24,0,0,0-.66.36,2.71,2.71,0,0,0-1,2.06V19H61.3Zm22.33,5.7V19H65.89V14.38a.82.82,0,0,1,.35-.63,27.22,27.22,0,0,1,17,.22A.75.75,0,0,1,83.63,14.58ZM61,20.9H88.55l.65,1.51H60.33Zm-1.44,3.39H90l3.33,7.85H56.21ZM93.8,42c0,.59-.38,1.11-.82,1.11H89.27c-.45,0-.83-.52-.83-1.11V39.76a.94.94,0,0,0-.94-.94H62a.94.94,0,0,0-.94.94V42c0,.59-.39,1.11-.83,1.11H56.55c-.44,0-.83-.52-.83-1.11V34H93.8Z"/><path class="cls-2" d="M143.63,31.32V27.14l-3.7-2.65v-.58a1.76,1.76,0,0,0-1.8-1.72,1.79,1.79,0,0,0-1,.29l-2.42-1.73v-.63a1.81,1.81,0,0,0-2.83-1.4l-4.48-3.22.39-6.1A8.82,8.82,0,0,0,126,3.66a3.8,3.8,0,0,0-2.65-1.47,5.21,5.21,0,0,0-.79,0,3.8,3.8,0,0,0-2.66,1.47,8.79,8.79,0,0,0-1.78,5.71l.39,6.13-4.48,3.22a1.81,1.81,0,0,0-2.83,1.4v.63l-2.41,1.73a1.79,1.79,0,0,0-1-.29,1.76,1.76,0,0,0-1.8,1.72v.58l-3.7,2.65v4.18l16.86-5.78.72,11.18L113.2,41.9v3l9.78-3.6,9.79,3.6v-3l-6.72-5.18.72-11.18ZM131.38,42.58v.32L123,39.81l-8.4,3.09v-.32l6.48-5,.27-.39-.87-13.56-16.74,5.73V27.85l3.43-2.47.31-.28,0-1.19a.39.39,0,0,1,.42-.34.42.42,0,0,1,.35.2l.4.59,3.79-2.72.34-.3-.09-.44v-.78c0-.3.58-.45.77-.13l.39.64,6.2-4.45-.45-6.93A7.43,7.43,0,0,1,121,4.55a2.47,2.47,0,0,1,1.7-1h.59a2.43,2.43,0,0,1,1.69,1,7.46,7.46,0,0,1,1.46,4.73l-.44,6.9,6.19,4.45.39-.64c.19-.32.78-.17.78.13l0,.81-.1.45,4.16,3,.4-.59a.42.42,0,0,1,.35-.2.39.39,0,0,1,.42.34l0,.8-.07.42,3.79,2.72v1.52l-16.74-5.73L124.64,37l0,.38Z"/><path class="cls-3" d="M223.11,9.34A3.7,3.7,0,1,0,219.42,13,3.65,3.65,0,0,0,223.11,9.34Zm-3.69,2.4A2.4,2.4,0,0,1,217,9.34a2.46,2.46,0,0,1,4.91,0A2.4,2.4,0,0,1,219.42,11.74Zm19.26,14.52c-1-.54-5.94,2-7.31,3l-.15.12c-.57.43-1,.74-.95,1.26a1.14,1.14,0,0,0,.64.87l1.45.82c-3.39,4.24-6.44,6.92-10.57,7.17V15.91a6.48,6.48,0,0,0,4.78-6.77,7.16,7.16,0,1,0-13,4.34A7.07,7.07,0,0,0,217,15.9V39.48c-4.13-.25-7.17-2.93-10.57-7.17l1.46-.83a1.12,1.12,0,0,0,.63-.86c0-.51-.37-.82-.93-1.25l-.17-.13c-1.37-.95-6.37-3.52-7.37-2.94-.71.52-.93,6.05-.75,7.79l0,.16c.08.7.14,1.2.6,1.44a1.15,1.15,0,0,0,1.11-.13l1.53-.87c2.81,4.85,9.82,9.87,16.82,9.87s14-5,16.81-9.87l1.54.88a1.14,1.14,0,0,0,1.1.12c.46-.24.52-.74.6-1.44l0-.17C239.67,32.35,239.46,26.83,238.68,26.26ZM238.26,34l0,.16,0,.28L235.74,33l-.3.58c-2.4,4.7-9.21,9.77-16,9.77s-13.62-5.07-16-9.77l-.3-.58-2.47,1.42,0-.28,0-.15a29.57,29.57,0,0,1,.33-6.51,26.74,26.74,0,0,1,5.83,2.79l.14.11.23.18L204.61,32l.44.57c4,5.07,7.47,8.21,12.61,8.21h.62V15l-.46-.12a6,6,0,0,1-3.31-2.11,5.87,5.87,0,1,1,10.82-3.56A5.28,5.28,0,0,1,221,14.83l-.47.12V40.73h.62c5.14,0,8.64-3.14,12.61-8.21l.44-.57-2.48-1.43.23-.18.12-.09a26.65,26.65,0,0,1,5.85-2.8A30.22,30.22,0,0,1,238.26,34Z"/><path class="cls-4" d="M160.41,15.3l.26,0,.38.09L161,15a2.06,2.06,0,0,1,0-.26,1.17,1.17,0,0,0-.23-.7c-9.59-10.54-10-8.83-1,1A1.05,1.05,0,0,0,160.41,15.3ZM161.88,13a1.08,1.08,0,0,0,.72.19,1.23,1.23,0,0,1,.27,0l.38,0-.1-.37c0-.08,0-.17-.05-.26a1.06,1.06,0,0,0-.27-.68C152.62,2,152.3,3.75,161.88,13Zm29.19,25.38c-.12-.13-.25-.27-.38-.39L177.21,25.62l-2.16-2,.65-.72c.8-.88,1.57-1.73,2.35-2.55a1.33,1.33,0,0,1,.31,0h.14l1,0a9,9,0,0,0,2.07-.08c5.74-1.14,9.38-6.69,9.9-11.35a9.06,9.06,0,0,0,0-1.56A3.47,3.47,0,0,0,188,3.88a12.08,12.08,0,0,0-8.85,3.29C175.78,10,174.44,13.24,175,17a.66.66,0,0,1-.19.42c-.5.47-1,.94-1.53,1.4l-1.49,1.37c-.24.22-.32.22-.54,0l-.3-.3a8.79,8.79,0,0,0-1.37-1.21,3.46,3.46,0,0,1-1.67-3.85,4.52,4.52,0,0,0-1.56-4.08,75.18,75.18,0,0,0-10.1-8.33,1,1,0,0,0-.74-.09l-.26,0h-.39l.15.35a2.41,2.41,0,0,1,.08.25,1.32,1.32,0,0,0,.34.65c.42.33.86.65,1.3,1s1.05.76,1.55,1.18c2.37,2,4.82,4.13,7.28,6.3a2.5,2.5,0,0,1,.94,2.21c-.05.5-.05,1-.05,1.5s0,.72,0,1.08a1.82,1.82,0,0,0,.72,1.59c.48.42,1,.85,1.42,1.28L170,21a2.11,2.11,0,0,0,.58.34l-1.47,1.35-.46-.47a10.37,10.37,0,0,1-1.13-1.31,4.39,4.39,0,0,0-4.89-2.12c-1.25.25-2.27-.18-3.41-1.45l-1.64-1.94c-1.52-1.8-3-3.61-4.55-5.42-.28-.34-.54-.7-.79-1.06s-.55-.76-.86-1.13a1.35,1.35,0,0,0-.68-.35l-.26-.09-.4-.17.15,1.36a.37.37,0,0,0,.09.2c.41.54.82,1.08,1.22,1.63.91,1.23,1.85,2.49,2.85,3.68,1.44,1.7,3,3.32,4.54,4.89l.22.23a3.58,3.58,0,0,0,3,1.1,15.63,15.63,0,0,1,2.31-.05,1.1,1.1,0,0,1,.67.29c.39.4.76.82,1.14,1.24s.9,1,1.39,1.5c.18.18.27.31.27.4s-.11.23-.31.42c-4.86,4.4-9.62,8.75-13.64,12.43-.81.74-1.66,1.55-2.44,2.42a2.66,2.66,0,0,0,0,3.93c1,1.24,1.95,1.83,2.91,1.85A4.05,4.05,0,0,0,157.34,43q5.72-6.21,11.4-12.45l2.08-2.28c.19-.2.37-.41.56-.64l.09-.11a.18.18,0,0,0,.07.05l.31.31,3.45,3.79c2.21,2.42,4.41,4.84,6.63,7.26,1.27,1.39,2.66,2.86,4.38,4.64a3,3,0,0,0,2.15,1.11,2.12,2.12,0,0,0,.69-.11,4.77,4.77,0,0,0,3.1-3C192.76,40.2,191.87,39.25,191.07,38.39ZM173.33,20.78c.73-.68,1.42-1.32,2.14-1.93a2.28,2.28,0,0,0,.95-2.48c-.41-2.19.28-4.34,2.12-6.57a12.15,12.15,0,0,1,8.06-4.47,4.07,4.07,0,0,1,.5,0,3,3,0,0,1,2.33.66,3.1,3.1,0,0,1,.64,2.33c-.15,4.61-4.1,9.52-8.48,10.5a10,10,0,0,1-2.89.06l-.33,0a1.39,1.39,0,0,0-1.34.46c-.76.87-1.55,1.72-2.33,2.57l-.52.57a2.61,2.61,0,0,1-.24.22h0l-1.33-1.21Zm-3.14,6c-2,2.22-4,4.43-5.71,6.3q-3.89,4.24-7.8,8.48a12.93,12.93,0,0,1-1.24,1.19,1.65,1.65,0,0,1-.66.4c-.85.18-1.31-.34-1.85-.94-.1-.12-.21-.25-.32-.36-.59-.61-.69-1.09-.32-1.57a12.69,12.69,0,0,1,1.54-1.7q7-6.44,14-12.84l.92-.84.22-.16h0l.28.3a13.44,13.44,0,0,1,1.09,1.24A.93.93,0,0,1,170.19,26.81Zm1.33-1.45-1.46-1.6.25-.23c.38-.35.74-.68,1.1-1a.46.46,0,0,1,.26,0c.34.28.66.58,1,.92l.27.25Zm19.23,16.08-.1.15a3.81,3.81,0,0,1-.24.32c-.77.92-1.31,1.32-1.81,1.33h0c-.47,0-1-.34-1.72-1.12-3.47-3.76-7-7.6-10.38-11.31l-3.77-4.13a2.81,2.81,0,0,1-.2-.24l1.54-1.68.71.63L176.58,27Q182.8,32.72,189,38.41a21.31,21.31,0,0,1,1.73,1.86A.88.88,0,0,1,190.75,41.44Z"/><path class="cls-5" d="M40.07,20.63a.25.25,0,0,0-.41.19v20.4A1.74,1.74,0,0,1,37.92,43H32.54V20.59a.24.24,0,0,0-.14-.22L32,20.16a19.36,19.36,0,0,0-17.18,0l-.44.21a.26.26,0,0,0-.14.22V43H8.84A1.74,1.74,0,0,1,7.1,41.22V20.82a.25.25,0,0,0-.17-.21.29.29,0,0,0-.28.05L5.14,21.91a.28.28,0,0,0-.09.19V41.22A3.79,3.79,0,0,0,8.84,45H16a.25.25,0,0,0,.25-.25v-23a17.49,17.49,0,0,1,14.24,0v23a.25.25,0,0,0,.25.25h7.17a3.79,3.79,0,0,0,3.78-3.78V22.1a.25.25,0,0,0-.09-.19Z"/><path class="cls-6" d="M46.71,21.13l-22.88-19a.24.24,0,0,0-.32,0L15,9.17V6.76a1,1,0,0,0-1-1H7.86a1,1,0,0,0-1,1V16L.62,21.13a1.05,1.05,0,0,0-.37.7,1,1,0,0,0,.24.74,1.06,1.06,0,0,0,1.44.14L23.67,4.64,45.41,22.71a1,1,0,0,0,1.44-.14,1,1,0,0,0,.23-.74A1.05,1.05,0,0,0,46.71,21.13ZM13,7.78v3.09l-4.1,3.4V7.78Z"/><path class="cls-7" d="M276.28,25.23a3.19,3.19,0,1,0,3.19,3.19A3.2,3.2,0,0,0,276.28,25.23Zm0,5a1.8,1.8,0,1,1,1.8-1.8A1.81,1.81,0,0,1,276.28,30.22Zm7.52,3.3V6.74a4.27,4.27,0,0,0-2.42-3.62,36.06,36.06,0,0,0-27.49,0,4.26,4.26,0,0,0-2.42,3.62V33.52a2.79,2.79,0,0,0,2.78,2.78h3.58l-6.14,9.48a.56.56,0,0,0,.47.88h6.36a.58.58,0,0,0,.55-.39l.4-1.26H275.8l.4,1.26a.58.58,0,0,0,.54.39h6.36a.57.57,0,0,0,.48-.88l-6.14-9.48H281A2.79,2.79,0,0,0,283.8,33.52Zm-1.74,12h-4.9l-.41-1.25a.56.56,0,0,0-.54-.4H259.05a.58.58,0,0,0-.54.4l-.4,1.25h-4.9l5.62-8.68h17.6ZM254.25,34.91a1.4,1.4,0,0,1-1.39-1.39V6.74a2.88,2.88,0,0,1,1.56-2.34,34.73,34.73,0,0,1,26.42,0,2.89,2.89,0,0,1,1.57,2.34V33.52A1.4,1.4,0,0,1,281,34.91ZM259,25.23a3.19,3.19,0,1,0,3.19,3.19A3.19,3.19,0,0,0,259,25.23Zm0,5a1.8,1.8,0,1,1,1.8-1.8A1.81,1.81,0,0,1,259,30.22Zm18.1-22H258.19A2.78,2.78,0,0,0,255.41,11V19.1a2.79,2.79,0,0,0,2.78,2.78h18.89a2.78,2.78,0,0,0,2.77-2.78V11A2.77,2.77,0,0,0,277.08,8.22ZM266.94,20.49h-8.75a1.39,1.39,0,0,1-1.39-1.39V11a1.38,1.38,0,0,1,1.39-1.38h8.75Zm11.52-1.39a1.38,1.38,0,0,1-1.38,1.39h-8.75V9.61h8.75A1.38,1.38,0,0,1,278.46,11Z"/><path class="cls-8" d="M275.81,40.3l-.51-1a1,1,0,0,0-.89-.56H260.86a1,1,0,0,0-.89.56l-.51,1a1,1,0,0,0,.05,1,1,1,0,0,0,.84.46h14.57a1,1,0,0,0,.84-.46A1,1,0,0,0,275.81,40.3Z"/></g></g></svg>