<svg xmlns="http://www.w3.org/2000/svg" xmlns:xlink="http://www.w3.org/1999/xlink" viewBox="0 0 84.99 43.78"><defs><style>.cls-1{fill:url(#linear-gradient);}</style><linearGradient id="linear-gradient" y1="21.89" x2="84.99" y2="21.89" gradientTransform="translate(84.99 43.78) rotate(180)" gradientUnits="userSpaceOnUse"><stop offset="0" stop-color="#00ac8f"/><stop offset="0.45" stop-color="#00ace1"/><stop offset="1" stop-color="#2c3795"/></linearGradient></defs><g id="Layer_2" data-name="Layer 2"><g id="Layer_1-2" data-name="Layer 1"><path class="cls-1" d="M40.59,27.3a1.53,1.53,0,0,0-1.5-1.57H1.5a1.57,1.57,0,0,0,0,3.14H39.09A1.53,1.53,0,0,0,40.59,27.3ZM51.2,36.65H13.6a1.57,1.57,0,0,0,0,3.14H51.2a1.57,1.57,0,0,0,0-3.14Zm8-20.08-7.27.48L48,11.8a3,3,0,0,0-2.38-1.22h-.3a3,3,0,0,0-2.46,1.34,3.26,3.26,0,0,0-.35,2.88l2.5,7.09L42.55,29a3.26,3.26,0,0,0,.35,2.88,3,3,0,0,0,2.46,1.35h.3A3,3,0,0,0,48,32l3.88-5.26,7.27.5L55.12,39.63a3.24,3.24,0,0,0,.39,2.84A3,3,0,0,0,58,43.78h1.41a3,3,0,0,0,2.44-1.3l1.59-2.32a3.47,3.47,0,0,0,3-3.52,3.94,3.94,0,0,0-.07-.69l.58-.85a3.34,3.34,0,0,0,2.86-2.54,4,4,0,0,0,.06-1.71l1.92-2.79,4.7.32a6,6,0,0,0,.61,0,9.75,9.75,0,0,0,6-2.17,5.44,5.44,0,0,0,2-3.8,6.49,6.49,0,0,0,0-1.08,5.47,5.47,0,0,0-2-3.8,9.72,9.72,0,0,0-6-2.17l-.59,0-4.73.32-1.92-2.79a3.83,3.83,0,0,0-.06-1.68,3.32,3.32,0,0,0-2.86-2.57l-.58-.84a4.05,4.05,0,0,0,.07-.7,3.47,3.47,0,0,0-3-3.52L61.81,1.31A3,3,0,0,0,59.37,0H58a3,3,0,0,0-2.45,1.31,3.25,3.25,0,0,0-.39,2.84Zm.19-13.43,2.3,3.34.27.31,1.1,0a.37.37,0,0,1,.32.4.38.38,0,0,1-.19.34l-.55.39,2.53,3.69.28.34.42-.1h.72c.28,0,.42.57.12.76l-.59.38,4.14,6,6.45-.44.34,0a6.88,6.88,0,0,1,4,1.45,2.38,2.38,0,0,1,.9,1.65,2.71,2.71,0,0,1,0,.57,2.4,2.4,0,0,1-.9,1.65,6.89,6.89,0,0,1-4,1.44l-.36,0-6.42-.43-4.14,6,.59.39c.3.19.16.75-.12.75l-.76,0-.41-.1-2.78,4,.55.39a.41.41,0,0,1,.19.34.38.38,0,0,1-.32.41l-.74,0L61.9,37l-2.53,3.69H58l5.34-16.3-12.41-.84-.36,0-4.87,6.6h-.3l2.88-8.18-2.88-8.17h.3L50.31,20l.36.26,12.63-.85L58,3.14ZM13.6,7H51.2a1.53,1.53,0,0,0,1.5-1.57,1.53,1.53,0,0,0-1.5-1.57H13.6a1.54,1.54,0,0,0-1.5,1.57A1.54,1.54,0,0,0,13.6,7ZM1.5,18H39.09a1.57,1.57,0,0,0,0-3.14H1.5A1.57,1.57,0,0,0,1.5,18Z"/></g></g></svg>