<svg xmlns="http://www.w3.org/2000/svg" xmlns:xlink="http://www.w3.org/1999/xlink" viewBox="0 0 50.47 39.78"><defs><style>.cls-1{fill:url(#linear-gradient);}.cls-2{fill:url(#linear-gradient-2);}</style><linearGradient id="linear-gradient" x1="22.45" y1="26.89" x2="50.47" y2="26.89" gradientUnits="userSpaceOnUse"><stop offset="0" stop-color="#00ac8f"/><stop offset="0.45" stop-color="#00ace1"/><stop offset="1" stop-color="#2c3795"/></linearGradient><linearGradient id="linear-gradient-2" x1="0" y1="19.89" x2="31.86" y2="19.89" xlink:href="#linear-gradient"/></defs><g id="Layer_2" data-name="Layer 2"><g id="Layer_1-2" data-name="Layer 1"><path class="cls-1" d="M41.75,17.49c-.6.33-.27,1-.08,1.32a.2.2,0,0,0,.18.11h0a.2.2,0,0,0,.18-.16c.09-.34.28-.43.55-.55l.19-.1a.18.18,0,0,0,.11-.14.17.17,0,0,0,0-.18A.84.84,0,0,0,41.75,17.49Zm8.12,21.35h0a2.61,2.61,0,0,0-2.1-2.2c-.33-.08-.42-.18-.48-.52-.84-4.65-1.51-8.23-2.17-11.61a1.28,1.28,0,0,1,.49-1.37,9.54,9.54,0,0,1,1-.7l.45-.3a8.1,8.1,0,0,0,2.12-1.69,5.15,5.15,0,0,0,1.15-4.79,1.81,1.81,0,0,0-1.58-1.54,3.49,3.49,0,0,0-2,.23,5.62,5.62,0,0,1-4.88.16,6.47,6.47,0,0,0-3.72-.23,7.07,7.07,0,0,0-5,4.13,6.16,6.16,0,0,0,.54,5.77c.15.25.09.33-.08.58l-.15.22-1.23,1.8-2,3-1.78,2.6a1.4,1.4,0,0,1-1.89.67,3.7,3.7,0,0,1-1.45-.85,7.5,7.5,0,0,1-1.74-2.9.45.45,0,0,1,0-.11.49.49,0,0,0-.4-.45.22.22,0,0,0-.16,0,.21.21,0,0,0-.08.15l-.06.7c0,.51-.07,1-.13,1.52a5.93,5.93,0,0,0,3,6.25l.81.51.26.17.43.28.1.06c.12.07.19.12.22.2a1.43,1.43,0,0,0,1.15,1,2.59,2.59,0,0,0,.64,0H39.2c.78,0,1.59,0,2.38,0h.12a.78.78,0,0,0,.63-.23.87.87,0,0,0,.07-.77,3,3,0,0,0-1.27-2.15l-.07,0s-.07-.05-.09,0l.06-.07a4.27,4.27,0,0,0,.71-1.19c.25.77.43,1.54.6,2.29.12.52.24,1.05.38,1.57v.12h0c0,.28.07.43.32.47h1.73l4.53,0h0a.63.63,0,0,0,.51-.18.66.66,0,0,0,0-.58Zm-2.62-.36h-.17c-.78,0-1.64,0-2.63,0-.34,0-.46-.13-.54-.5l-.08-.33a23.32,23.32,0,0,0-1-3.5s0-.09,0-.13a10.49,10.49,0,0,0-.94-1.86,5.65,5.65,0,0,0-1.1-1.25,4.91,4.91,0,0,0-1.82-1,5,5,0,0,0-1.3-.2,2.87,2.87,0,0,0-1.75.57.22.22,0,0,0-.07.24.21.21,0,0,0,.21.14,5.91,5.91,0,0,1,2.45.28,3.57,3.57,0,0,1,.8.43,2.81,2.81,0,0,1,1.15,1.58,2.53,2.53,0,0,1,.07.48,3.13,3.13,0,0,1-.75,2.17c-.25.31-.55.6-.85.92-.15.15-.31.3-.47.47a.22.22,0,0,0,0,.22.16.16,0,0,0,.06.08.23.23,0,0,0,.12.06l.31,0a5.41,5.41,0,0,1,.58.07,1.91,1.91,0,0,1,1.08.5c.19.19.33.34.28.47s0,0-.25,0a1.14,1.14,0,0,0-.25,0c-.55,0-1.1,0-1.65,0H36.14l-7,0h-.1c-.22,0-.24,0-.25-.06s0-.05.12-.17a.64.64,0,0,0,.15-.13l.06,0,.11-.12a.55.55,0,0,0,.12-.47.2.2,0,0,0-.21-.17h-.74c-.32,0-.69-.12-.73-.36a1.06,1.06,0,0,0-1-.88l-.21-.05a3.28,3.28,0,0,1-2.39-2.56l.53.38a8.33,8.33,0,0,0,2.67.78h.47a2.39,2.39,0,0,0,1.8-1.22l1.81-2.68c.59-.86,1.16-1.73,1.75-2.6l1.22-1.81.22-.33c.18-.28.29-.33.34-.33s.13,0,.3.23l.08.06.28.13a4.8,4.8,0,0,0,.66.27,2,2,0,0,0,1.73-.17,2,2,0,0,0,.79-1.55,53.34,53.34,0,0,0-.41-5.49l-.06-.56a.28.28,0,0,0-.08-.15.25.25,0,0,0-.17,0c-.24,0-.51.09-.59,5.29v.06c0,.61-.16.92-.51,1.07s-.65.05-1.09-.32a4.36,4.36,0,0,1-1.57-4.16,5.42,5.42,0,0,1,2.5-3.83,5,5,0,0,1,4.28-.7l.08,0,.11.06.49.15c.36.11.71.21,1.06.34a4.2,4.2,0,0,0,3.3-.12l.1,0a6.48,6.48,0,0,1,1.21-.44,1.1,1.1,0,0,0,.23.87c.23.21.59.21,1.13.14.19,0,.23,0,.23,0a.52.52,0,0,1,0,.21,4.56,4.56,0,0,1-2.29,3.7c-.18.11-.35.22-.54.32-.45.27-.91.55-1.35.86a2.8,2.8,0,0,0-1.23,2.68c0,.14,0,.29.07.44l.6,3c.18.9.37,1.82.55,2.74.43,2.11.86,4.24,1.27,6.36A1.33,1.33,0,0,0,47,38l.18.08.19.08c.24.09.36.15.34.23S47.39,38.47,47.25,38.48Z"/><path class="cls-2" d="M11.82,5.67a.24.24,0,0,0-.05.18.25.25,0,0,0,.11.15l.3.15c.44.2.78.36.93.94a.2.2,0,0,0,.18.15h0a.22.22,0,0,0,.19-.12c.36-.69.69-1.47-.08-1.9A1.23,1.23,0,0,0,11.82,5.67ZM31.51,24.54,26.1,16.63c-.27-.39-.4-.59-.13-1a9.56,9.56,0,0,0,.83-8.92A10.91,10.91,0,0,0,19.16.31a10.08,10.08,0,0,0-5.75.36c-3,1.07-5.42,1-7.72-.26A5.27,5.27,0,0,0,2.62.07,2.69,2.69,0,0,0,.28,2.38,7.88,7.88,0,0,0,2.05,9.75a13,13,0,0,0,3.28,2.63l.71.45a17.4,17.4,0,0,1,1.51,1.11,2.09,2.09,0,0,1,.8,2.25c-1,5.25-2.1,11-3.38,18.14a.91.91,0,0,1-.84.9,4,4,0,0,0-3.2,3.34l0,.15a.94.94,0,0,0,.06.82.87.87,0,0,0,.7.24h0c2.35,0,4.71-.05,7.06-.06l2.7,0a.47.47,0,0,0,.39-.6v0l0-.18c.22-.82.42-1.66.6-2.47a34.08,34.08,0,0,1,1-3.89,6.81,6.81,0,0,0,1.21,2.11c.12.13.12.19.12.19a.92.92,0,0,1-.2.16l-.11.08a4.45,4.45,0,0,0-1.93,3.28,1.25,1.25,0,0,0,.09,1.1c.19.24.52.33,1.07.31,1.23-.07,2.49-.06,3.72-.06H26.9a1.42,1.42,0,0,1-1.14-1c0-.09-.1-.13-.23-.2l-.1-.07L25,38.11l-.26-.17H21.92l-2.64,0h-1c-.85,0-1.72,0-2.57,0a1.55,1.55,0,0,0-.37,0c-.39.06-.48,0-.53-.1s.13-.52.46-.85l.06-.06A3.19,3.19,0,0,1,17,36.19c.29,0,.6-.07.93-.1l.48,0a.22.22,0,0,0,.18-.14.21.21,0,0,0-.05-.22L17.84,35a17.88,17.88,0,0,1-1.34-1.44,4.74,4.74,0,0,1-1.08-4.24,4.84,4.84,0,0,1,3.11-3.21,9.28,9.28,0,0,1,3.88-.45.19.19,0,0,0,.21-.14.21.21,0,0,0-.08-.24,4.93,4.93,0,0,0-4.64-.55c-3.43,1-4.94,3.75-6,6.32a35.46,35.46,0,0,0-1.57,5.63l-.12.54c-.14.64-.37.84-1,.88a38.55,38.55,0,0,1-4.12.05H4.91c-.42,0-.78,0-.82-.22s.14-.3.6-.49l.3-.12.28-.13a1.94,1.94,0,0,0,1.4-1.5C7.6,30.85,8.59,26,9.54,21.29l.91-4.5A4.35,4.35,0,0,0,8.68,12c-.68-.48-1.4-.91-2.1-1.33l-.85-.52A7.23,7.23,0,0,1,2.1,4.32c0-.27,0-.38.06-.42a.37.37,0,0,1,.22,0l.23,0C3.42,4,4,4,4.28,3.68S4.63,3,4.6,2.26A8.9,8.9,0,0,1,6.65,3l.17.08a6.48,6.48,0,0,0,5.06.17C12.42,3,13,2.87,13.55,2.7l.8-.25.1-.06a.56.56,0,0,1,.15-.08,8,8,0,0,1,6.79,1.1,8.58,8.58,0,0,1,4,6.08,7,7,0,0,1-2.5,6.6c-.72.6-1.26.76-1.83.52s-.85-.79-.86-1.78v-.09c-.12-8-.55-8.1-.83-8.14a.18.18,0,0,0-.16,0,.16.16,0,0,0-.08.14l-.1.88c-.24,2.31-.75,7.11-.64,8.55a3,3,0,0,0,1.18,2.33,3,3,0,0,0,2.6.25,7.64,7.64,0,0,0,1-.42l.44-.21.08-.05c.23-.28.43-.41.58-.41s.38.2.63.58c1.64,2.48,3.34,5,5,7.42l.78,1.15,1.23-1.79Z"/></g></g></svg>