<svg xmlns="http://www.w3.org/2000/svg" xmlns:xlink="http://www.w3.org/1999/xlink" viewBox="0 0 81.68 43.86"><defs><style>.cls-1{fill:url(#linear-gradient);}.cls-2{fill:url(#linear-gradient-2);}</style><linearGradient id="linear-gradient" x1="13.8" y1="31.38" x2="67.84" y2="31.38" gradientUnits="userSpaceOnUse"><stop offset="0" stop-color="#00ac8f"/><stop offset="0.45" stop-color="#00ace1"/><stop offset="1" stop-color="#2c3795"/></linearGradient><linearGradient id="linear-gradient-2" x1="0" y1="20.01" x2="81.68" y2="20.01" xlink:href="#linear-gradient"/></defs><g id="Layer_2" data-name="Layer 2"><g id="Layer_1-2" data-name="Layer 1"><path class="cls-1" d="M66.79,19.26a.48.48,0,0,0-.57-.34l-2.51.59a.56.56,0,0,0-.31.23.5.5,0,0,0,0,.38A23.3,23.3,0,0,1,64,23.27a23.56,23.56,0,0,1,.23,2.58V26c0,.24,0,.48,0,.72a23.39,23.39,0,0,1-.81,6.1L40.82,40.35,18.16,32.78a23.41,23.41,0,0,1-.82-6.1c0-.26,0-.51,0-.84a23.41,23.41,0,0,1,.22-2.57,25,25,0,0,1,.69-3.15.5.5,0,0,0,0-.38.52.52,0,0,0-.31-.23l-2.51-.59a.48.48,0,0,0-.57.34,26.47,26.47,0,0,0-.92,4.79c-.08.89-.13,1.77-.13,2.65a27,27,0,0,0,.59,5.59,26.52,26.52,0,0,0,.78,2.86.5.5,0,0,0,.31.31l24.94,8.33a1.09,1.09,0,0,0,.4.07,1,1,0,0,0,.39-.07l24.95-8.33a.5.5,0,0,0,.31-.31,28.24,28.24,0,0,0,.77-2.86,27.76,27.76,0,0,0,.6-5.61c0-.86,0-1.74-.13-2.63A27.36,27.36,0,0,0,66.79,19.26Z"/><path class="cls-2" d="M81.38,33.12v0a7.19,7.19,0,0,0-5-5.59V12.7l4.41-1a1.12,1.12,0,0,0,0-2.19L41.08,0a1.14,1.14,0,0,0-.52,0L.87,9.46a1.12,1.12,0,0,0,0,2.19l39.69,9.43a1.14,1.14,0,0,0,.52,0l32.39-7.69V27.51a7.25,7.25,0,0,0-5,5.67c-.11.7-.23,1.52-.29,2.41a3.79,3.79,0,0,0,1.16,3c1.13,1.1,3,1.56,5.58,1.43.31,0,.61,0,.89,0,2.18,0,3.73-.47,4.74-1.45a3.87,3.87,0,0,0,1.16-3C81.62,34.68,81.49,33.84,81.38,33.12ZM40.82,9a1.45,1.45,0,0,0,0,2.9H67.13L40.82,18.15l-32-7.59,32-7.6L66.3,9Zm38,26.64a.93.93,0,0,1-.27.83h0c-.3.29-1.15.74-3.57.61h-.1c-2.38.13-3.22-.33-3.52-.61a1,1,0,0,1-.28-.77c0-.69.16-1.41.25-2,.45-2,2-3.5,3.64-3.5s3.16,1.48,3.6,3.41C78.63,34.27,78.74,35,78.78,35.65Z"/></g></g></svg>