<svg xmlns="http://www.w3.org/2000/svg" xmlns:xlink="http://www.w3.org/1999/xlink" viewBox="0 0 64.71 40.93"><defs><style>.cls-1{fill:url(#linear-gradient);}</style><linearGradient id="linear-gradient" y1="20.47" x2="64.71" y2="20.47" gradientUnits="userSpaceOnUse"><stop offset="0" stop-color="#00ac8f"/><stop offset="0.45" stop-color="#00ace1"/><stop offset="1" stop-color="#2c3795"/></linearGradient></defs><g id="Layer_2" data-name="Layer 2"><g id="Layer_1-2" data-name="Layer 1"><path class="cls-1" d="M12.57,15A7.26,7.26,0,1,0,5.31,7.78,7.27,7.27,0,0,0,12.57,15Zm0-12.12A4.87,4.87,0,1,1,7.7,7.78,4.87,4.87,0,0,1,12.57,2.92ZM21.9,29.24h0V21.8l5.9-2.72a3.64,3.64,0,0,0,2.06-3.82l7.82-3.65a1,1,0,0,0,.48-1.32,1,1,0,0,0-1.33-.49L29,13.42a3.6,3.6,0,0,0-2.32-1.3,2.31,2.31,0,0,0-.74,0h-.12a3.52,3.52,0,0,0-1.15.3S8.1,18,6.46,19a14,14,0,0,0-4.68,4.71A11.08,11.08,0,0,0,0,29.2C0,31.6,0,34,0,36.32v.26a3.47,3.47,0,0,0,1.51,2.88,3.6,3.6,0,0,0,3.78.27A4.15,4.15,0,0,0,6,39.3v.09a1.56,1.56,0,0,0,.42,1.13,1.53,1.53,0,0,0,1.1.41H20.41a1.43,1.43,0,0,0,1.13-.44,1.41,1.41,0,0,0,.36-1.11,1.82,1.82,0,0,1,0-.33V29.24Zm-2.35-8.79-.06,0v9h0v9H8.39c0-1.55,0-3.1,0-4.65V31.37a3.18,3.18,0,0,0,0-.59,1.7,1.7,0,0,0-1.84-1.43A1.65,1.65,0,0,0,5,31.08c0,.73,0,1.47,0,2.21v1.18c0,.63,0,1.29,0,1.92a1.19,1.19,0,0,1-.69,1.19,1.2,1.2,0,0,1-1.36-.08,1.08,1.08,0,0,1-.49-1v-.26c0-2.29-.06-4.67,0-7a8.77,8.77,0,0,1,1.39-4.35A11.66,11.66,0,0,1,7.72,21c1.11-.69,17.9-6.58,17.9-6.58a1.39,1.39,0,0,1,.6-.14,1.45,1.45,0,0,1,1.24.73l0,.06,0,0,0,.05a1.45,1.45,0,0,1-.71,1.91ZM59.61,0H28.1A5.11,5.11,0,0,0,23,5.1v6.73l3-1.12V5.1A2.1,2.1,0,0,1,28.1,3H59.61a2.11,2.11,0,0,1,2.1,2.1V27.85a2.11,2.11,0,0,1-2.1,2.1H28.1a2.1,2.1,0,0,1-2.1-2.1V21.06l-3,1.29v5.5A5.1,5.1,0,0,0,28.1,33H59.61a5.1,5.1,0,0,0,5.1-5.1V5.1A5.11,5.11,0,0,0,59.61,0Z"/></g></g></svg>