<svg xmlns="http://www.w3.org/2000/svg" xmlns:xlink="http://www.w3.org/1999/xlink" viewBox="0 0 39.38 39.38"><defs><style>.cls-1{fill:url(#linear-gradient);}.cls-2{fill:url(#linear-gradient-2);}.cls-3{fill:url(#linear-gradient-3);}.cls-4{fill:url(#linear-gradient-4);}.cls-5{fill:url(#linear-gradient-5);}</style><linearGradient id="linear-gradient" y1="-4213.81" x2="39.33" y2="-4213.81" gradientTransform="matrix(1, 0, 0, -1, 0, -4194.12)" gradientUnits="userSpaceOnUse"><stop offset="0" stop-color="#01a07d"/><stop offset="0.45" stop-color="#089bd8"/><stop offset="1" stop-color="#2d307e"/></linearGradient><linearGradient id="linear-gradient-2" x1="18.02" y1="-4200.96" x2="21.31" y2="-4200.96" xlink:href="#linear-gradient"/><linearGradient id="linear-gradient-3" x1="7.57" y1="-4216.77" x2="31.76" y2="-4216.77" xlink:href="#linear-gradient"/><linearGradient id="linear-gradient-4" x1="4.63" y1="-4211.88" x2="34.72" y2="-4211.88" xlink:href="#linear-gradient"/><linearGradient id="linear-gradient-5" x1="14.93" y1="-4221.65" x2="24.4" y2="-4221.65" xlink:href="#linear-gradient"/></defs><g id="Layer_2" data-name="Layer 2"><g id="Layer_1-2" data-name="Layer 1"><g id="Layer_2-2" data-name="Layer 2"><g id="Layer_1-2-2" data-name="Layer 1-2"><path class="cls-1" d="M36.17,10.53H28.8V3.16A3.18,3.18,0,0,0,25.64,0h-12a3.18,3.18,0,0,0-3.16,3.16v7.37H3.16A3.18,3.18,0,0,0,0,13.69v12a3.18,3.18,0,0,0,3.16,3.16h7.37v7.37a3.18,3.18,0,0,0,3.16,3.16h12a3.18,3.18,0,0,0,3.16-3.16V28.8h7.37a3.18,3.18,0,0,0,3.16-3.16v-12a3.17,3.17,0,0,0-3.18-3.16Zm.53,15.11a.53.53,0,0,1-.53.52h-10v10a.55.55,0,0,1-.53.53h-12a.53.53,0,0,1-.52-.53v-10h-10a.53.53,0,0,1-.53-.52v-12a.53.53,0,0,1,.53-.52h10v-10a.53.53,0,0,1,.52-.53h12a.55.55,0,0,1,.53.53v10h10a.53.53,0,0,1,.53.52Z"/><circle class="cls-2" cx="19.67" cy="6.84" r="1.64"/><path class="cls-3" d="M30.44,21.33H8.89A1.32,1.32,0,0,0,8.66,24H30.44a1.32,1.32,0,0,0,.23-2.63Z"/><path class="cls-4" d="M33.39,16.44H5.94a1.32,1.32,0,0,0,0,2.63H33.39a1.32,1.32,0,1,0,.23-2.63A.89.89,0,0,0,33.39,16.44Z"/><path class="cls-5" d="M23.08,26.21H16.25A1.32,1.32,0,1,0,16,28.84a.89.89,0,0,0,.23,0h6.83a1.32,1.32,0,1,0,.23-2.63A.89.89,0,0,0,23.08,26.21Z"/></g></g></g></g></svg>