<svg xmlns="http://www.w3.org/2000/svg" xmlns:xlink="http://www.w3.org/1999/xlink" viewBox="0 0 58.37 40.46"><defs><style>.cls-1{fill:url(#linear-gradient);}</style><linearGradient id="linear-gradient" y1="20.23" x2="58.37" y2="20.23" gradientUnits="userSpaceOnUse"><stop offset="0" stop-color="#00ac8f"/><stop offset="0.45" stop-color="#00ace1"/><stop offset="1" stop-color="#2c3795"/></linearGradient></defs><g id="Layer_2" data-name="Layer 2"><g id="Layer_1-2" data-name="Layer 1"><path class="cls-1" d="M45.41,14.63h0a12.92,12.92,0,0,0,.06,25.83h0a12.92,12.92,0,1,0-.06-25.83Zm.05,23.14h0A10.29,10.29,0,0,1,35.19,27.48,10.19,10.19,0,0,1,45.37,17.32h0a10.23,10.23,0,1,1,.07,20.45ZM29.38,24.92A16.26,16.26,0,0,1,44.3,11.33l1.05,0,1.81,0a11.82,11.82,0,0,0-6.61-9.83A14.37,14.37,0,0,0,34.42,0c-4,0-7.55,2-10.77,5.49L23.17,5C20.33,1.86,17,0,12.92,0A13.79,13.79,0,0,0,11,.17C4.36,1.07-.29,6.51,0,13.85a16.49,16.49,0,0,0,3,8.6,36.56,36.56,0,0,0,7.54,7.87c4.09,3.31,8.22,6.56,12.33,9.84a1.28,1.28,0,0,0,.78.3,1.51,1.51,0,0,0,.94-.4c1.94-1.59,3.88-3.18,5.84-4.75.37-.29.47-.5.26-1A15.9,15.9,0,0,1,29.38,24.92ZM23.67,37.35l-2.38-1.89c-3-2.36-6-4.81-9-7.23a33,33,0,0,1-7-7.28A13.69,13.69,0,0,1,2.7,13.74C2.47,8,6,3.57,11.38,2.83a11.59,11.59,0,0,1,1.54-.1c3.06,0,5.77,1.32,8.26,4.05l.31.34.17.18a2.68,2.68,0,0,0,2,.88h0a2.7,2.7,0,0,0,2-.86c2.89-3.11,5.77-4.63,8.8-4.63a11.78,11.78,0,0,1,5,1.24,9.08,9.08,0,0,1,4.42,4.73A18.92,18.92,0,0,0,26.72,24.5a18.59,18.59,0,0,0,1,9.59C26.34,35.16,25,36.24,23.67,37.35ZM51.32,26c-.33,0-.65,0-1,0H47v-.79c0-1.11,0-2.23,0-3.34a1.59,1.59,0,0,0-1-1.6,1.55,1.55,0,0,0-2.11,1.53c-.05,1.17,0,2.36,0,3.53,0,.5-.12.7-.66.68-1.22,0-2.44,0-3.66,0a1.51,1.51,0,0,0-1.48,1.4A1.56,1.56,0,0,0,39.2,29a3.44,3.44,0,0,0,.85.06h3.77c0,.33,0,.59,0,.84,0,1.14,0,2.27,0,3.41a1.54,1.54,0,0,0,1.58,1.57A1.57,1.57,0,0,0,47,33.23c0-1.13,0-2.27,0-3.4,0-.23,0-.46,0-.73,1.47,0,2.87,0,4.26,0a1.54,1.54,0,0,0,0-3.08Z"/></g></g></svg>