<svg xmlns="http://www.w3.org/2000/svg" viewBox="0 0 43.23 43.33"><defs><style>.cls-1{fill:#fff;}</style></defs><g id="Layer_2" data-name="Layer 2"><g id="Layer_1-2" data-name="Layer 1"><path class="cls-1" d="M43.23,20.21l-.1-.73q-.1-.8-.24-1.59a20.81,20.81,0,0,0-4.2-9.5,21.39,21.39,0,0,0-13-8c-.5-.1-1-.15-1.52-.21h-.12L23.4.08,23.12,0,23,0H20.16l-.72.1c-.53.07-1.06.14-1.59.23A20.79,20.79,0,0,0,8.46,4.47,20.77,20.77,0,0,0,.39,17.57,21.17,21.17,0,0,0,7.52,38.08a20.88,20.88,0,0,0,11.07,5.05l1.1.14.53.06h2.94a.82.82,0,0,1,.25-.07A20.67,20.67,0,0,0,30,41.61a27.26,27.26,0,0,0,2.77-1.43,1.48,1.48,0,0,0-.93-2.73,4.12,4.12,0,0,0-1.16.5A18.57,18.57,0,0,1,19,40.14,18,18,0,0,1,8,34.32,18.09,18.09,0,0,1,3.17,19.08a18.11,18.11,0,0,1,8.26-13A17.79,17.79,0,0,1,24.17,3.18a18.29,18.29,0,0,1,13,8.24,18,18,0,0,1,3,9,17.8,17.8,0,0,1-1.4,8.39c-.35.81-.78,1.58-1.2,2.34l-.07.12L37,32.1a1.5,1.5,0,0,0,.47,2,1.45,1.45,0,0,0,2-.41,21.44,21.44,0,0,0,3.25-7.81c.12-.65.22-1.33.3-1.92l.13-.89ZM27.12,13.06a5.68,5.68,0,0,0-6.73-4.33,5.62,5.62,0,0,0-4.53,4.67,17,17,0,0,0-.08,2c0,.28,0,.57,0,.86a.54.54,0,0,1-.44.63,4,4,0,0,0-3.23,4.19v9.31a1.51,1.51,0,0,0,1.68,1.69H29.42a1.45,1.45,0,0,0,1.52-1.37V30.4c0-3.18,0-6.48,0-9.76A3.92,3.92,0,0,0,28,17a.85.85,0,0,1-.78-1v-.49A11.33,11.33,0,0,0,27.12,13.06ZM18.7,16.59l0-.77v-.15a13.52,13.52,0,0,1,.17-2.1,2.62,2.62,0,0,1,2.83-1.93,2.7,2.7,0,0,1,2.56,2.65c0,.53,0,1.06,0,1.57v1H18.69ZM28,21.19v7.93H15.08V21.21c0-1,.39-1.39,1.4-1.39H26.59C27.56,19.82,28,20.23,28,21.19ZM21.55,23h0A1.47,1.47,0,0,0,20,24.44a1.52,1.52,0,0,0,.42,1.1A1.49,1.49,0,1,0,21.55,23Z"/></g></g></svg>