<svg xmlns="http://www.w3.org/2000/svg" xmlns:xlink="http://www.w3.org/1999/xlink" viewBox="0 0 79.31 39.5"><defs><style>.cls-1{fill:url(#linear-gradient);}.cls-2{fill:url(#linear-gradient-2);}.cls-3{fill:url(#linear-gradient-3);}.cls-4{fill:url(#linear-gradient-4);}.cls-5{fill:url(#linear-gradient-5);}.cls-6{fill:url(#linear-gradient-6);}.cls-7{fill:url(#linear-gradient-7);}.cls-8{fill:url(#linear-gradient-8);}.cls-9{fill:url(#linear-gradient-9);}.cls-10{fill:url(#linear-gradient-10);}.cls-11{fill:url(#linear-gradient-11);}.cls-12{fill:url(#linear-gradient-12);}.cls-13{fill:url(#linear-gradient-13);}.cls-14{fill:url(#linear-gradient-14);}.cls-15{fill:url(#linear-gradient-15);}.cls-16{fill:url(#linear-gradient-16);}.cls-17{fill:url(#linear-gradient-17);}.cls-18{fill:url(#linear-gradient-18);}.cls-19{fill:url(#linear-gradient-19);}.cls-20{fill:url(#linear-gradient-20);}.cls-21{fill:url(#linear-gradient-21);}.cls-22{fill:url(#linear-gradient-22);}.cls-23{fill:url(#linear-gradient-23);}.cls-24{fill:url(#linear-gradient-24);}.cls-25{fill:url(#linear-gradient-25);}.cls-26{fill:url(#linear-gradient-26);}.cls-27{fill:url(#linear-gradient-27);}.cls-28{fill:url(#linear-gradient-28);}.cls-29{fill:url(#linear-gradient-29);}.cls-30{fill:url(#linear-gradient-30);}</style><linearGradient id="linear-gradient" x1="28.59" y1="12.77" x2="29.09" y2="12.77" gradientUnits="userSpaceOnUse"><stop offset="0" stop-color="#00ac8f"/><stop offset="0.45" stop-color="#00ace1"/><stop offset="1" stop-color="#2c3795"/></linearGradient><linearGradient id="linear-gradient-2" x1="30.25" y1="12.83" x2="30.71" y2="12.83" xlink:href="#linear-gradient"/><linearGradient id="linear-gradient-3" x1="29.7" y1="12.59" x2="30.22" y2="12.59" xlink:href="#linear-gradient"/><linearGradient id="linear-gradient-4" x1="29.28" y1="12.55" x2="29.65" y2="12.55" xlink:href="#linear-gradient"/><linearGradient id="linear-gradient-5" x1="49.19" y1="19.82" x2="49.28" y2="19.82" xlink:href="#linear-gradient"/><linearGradient id="linear-gradient-6" x1="48.9" y1="19.68" x2="49.01" y2="19.68" xlink:href="#linear-gradient"/><linearGradient id="linear-gradient-7" x1="48.36" y1="19.57" x2="48.44" y2="19.57" xlink:href="#linear-gradient"/><linearGradient id="linear-gradient-8" x1="47.84" y1="19.66" x2="47.88" y2="19.66" xlink:href="#linear-gradient"/><linearGradient id="linear-gradient-9" x1="48.61" y1="19.59" x2="48.73" y2="19.59" xlink:href="#linear-gradient"/><linearGradient id="linear-gradient-10" x1="30.22" y1="12.65" x2="30.25" y2="12.65" xlink:href="#linear-gradient"/><linearGradient id="linear-gradient-11" x1="29.65" y1="12.52" x2="29.7" y2="12.52" xlink:href="#linear-gradient"/><linearGradient id="linear-gradient-12" x1="29.09" y1="12.6" x2="29.28" y2="12.6" xlink:href="#linear-gradient"/><linearGradient id="linear-gradient-13" x1="41.39" y1="22.08" x2="41.39" y2="22.08" xlink:href="#linear-gradient"/><linearGradient id="linear-gradient-14" x1="41.39" y1="22.97" x2="42.41" y2="22.97" xlink:href="#linear-gradient"/><linearGradient id="linear-gradient-15" x1="37.34" y1="29.58" x2="37.92" y2="29.58" xlink:href="#linear-gradient"/><linearGradient id="linear-gradient-16" x1="41.39" y1="22.58" x2="41.96" y2="22.58" xlink:href="#linear-gradient"/><linearGradient id="linear-gradient-17" x1="49.01" y1="19.75" x2="49.19" y2="19.75" xlink:href="#linear-gradient"/><linearGradient id="linear-gradient-18" x1="49.28" y1="19.95" x2="49.51" y2="19.95" xlink:href="#linear-gradient"/><linearGradient id="linear-gradient-19" x1="48.73" y1="19.63" x2="48.9" y2="19.63" xlink:href="#linear-gradient"/><linearGradient id="linear-gradient-20" x1="47.88" y1="19.61" x2="48.36" y2="19.61" xlink:href="#linear-gradient"/><linearGradient id="linear-gradient-21" x1="48.44" y1="19.57" x2="48.61" y2="19.57" xlink:href="#linear-gradient"/><linearGradient id="linear-gradient-22" x1="47.4" y1="19.81" x2="47.84" y2="19.81" xlink:href="#linear-gradient"/><linearGradient id="linear-gradient-23" x1="37.92" y1="17.67" x2="38.2" y2="17.67" xlink:href="#linear-gradient"/><linearGradient id="linear-gradient-24" x1="41.96" y1="10.92" x2="42.54" y2="10.92" gradientTransform="translate(9.35 -17.74) rotate(26.57)" xlink:href="#linear-gradient"/><linearGradient id="linear-gradient-25" x1="0" y1="19.75" x2="44.46" y2="19.75" xlink:href="#linear-gradient"/><linearGradient id="linear-gradient-26" x1="40.81" y1="21.58" x2="41.39" y2="21.58" xlink:href="#linear-gradient"/><linearGradient id="linear-gradient-27" x1="42.41" y1="23.97" x2="42.54" y2="23.97" xlink:href="#linear-gradient"/><linearGradient id="linear-gradient-28" x1="37.92" y1="30.58" x2="38.5" y2="30.58" xlink:href="#linear-gradient"/><linearGradient id="linear-gradient-29" x1="36.77" y1="28.58" x2="37.34" y2="28.58" xlink:href="#linear-gradient"/><linearGradient id="linear-gradient-30" x1="34.84" y1="19.75" x2="79.31" y2="19.75" xlink:href="#linear-gradient"/></defs><g id="Layer_2" data-name="Layer 2"><g id="Layer_1-2" data-name="Layer 1"><path class="cls-1" d="M28.59,12.92a1.36,1.36,0,0,1,.5-.3A1.36,1.36,0,0,0,28.59,12.92Z"/><path class="cls-2" d="M30.25,12.66a1.5,1.5,0,0,1,.46.33A1.5,1.5,0,0,0,30.25,12.66Z"/><path class="cls-3" d="M29.7,12.53a1.32,1.32,0,0,1,.52.12A1.32,1.32,0,0,0,29.7,12.53Z"/><path class="cls-4" d="M29.62,12.52a1.28,1.28,0,0,0-.34.06,1.59,1.59,0,0,1,.37-.06Z"/><path class="cls-5" d="M49.19,19.8l.09.05Z"/><path class="cls-6" d="M48.9,19.66l.11,0Z"/><path class="cls-7" d="M48.4,19.56h0Z"/><path class="cls-8" d="M47.84,19.67h0Z"/><path class="cls-9" d="M48.61,19.58l.12,0Z"/><path class="cls-10" d="M30.22,12.65h0Z"/><path class="cls-11" d="M29.65,12.52h0Z"/><path class="cls-12" d="M29.09,12.62a1.06,1.06,0,0,1,.19,0A1.06,1.06,0,0,0,29.09,12.62Z"/><polygon class="cls-13" points="41.38 22.08 41.38 22.08 41.38 22.08 41.38 22.08"/><polygon class="cls-14" points="41.38 22.08 41.96 23.08 41.96 23.08 42.41 23.86 41.38 22.08 41.38 22.08"/><polygon class="cls-15" points="37.34 29.08 37.92 30.08 37.34 29.08 37.34 29.08"/><rect class="cls-16" x="41.67" y="22" height="1.15"/><path class="cls-17" d="M49,19.7a.64.64,0,0,1,.18.1A.64.64,0,0,0,49,19.7Z"/><path class="cls-18" d="M49.28,19.85a1.51,1.51,0,0,1,.23.21A1.51,1.51,0,0,0,49.28,19.85Z"/><path class="cls-19" d="M48.73,19.6l.17.06Z"/><path class="cls-20" d="M47.88,19.66a1.36,1.36,0,0,1,.48-.09A1.36,1.36,0,0,0,47.88,19.66Z"/><path class="cls-21" d="M48.44,19.57h0Z"/><path class="cls-22" d="M47.4,20a1.57,1.57,0,0,1,.44-.28A1.57,1.57,0,0,0,47.4,20Z"/><polygon class="cls-23" points="38.2 17.91 37.92 17.43 37.92 17.42 37.92 17.43 37.92 17.43 38.2 17.91"/><rect class="cls-24" x="42.25" y="10.35" height="1.15" transform="translate(-0.43 20.05) rotate(-26.57)"/><path class="cls-25" d="M30.22,12.65a1.32,1.32,0,0,0-.52-.12h-.05a1.59,1.59,0,0,0-.37.06,1.06,1.06,0,0,0-.19,0,1.36,1.36,0,0,0-.5.3L17.53,23.24l-2.86-3.18a1.51,1.51,0,0,0-.23-.21l-.09-.05a.81.81,0,0,0-.18-.1l-.11,0-.17-.06-.13,0h-.25a1.27,1.27,0,0,0-.47.09h0a1.78,1.78,0,0,0-.45.28,1.51,1.51,0,0,0-.11,2.12l3.88,4.31a1.52,1.52,0,0,0,1.05.5h.07a1.5,1.5,0,0,0,1-.41L30.64,15.11a1.49,1.49,0,0,0-.39-2.45ZM44,18,34.65,1.76A3.73,3.73,0,0,0,31.6,0H12.86a3.73,3.73,0,0,0-3,1.76L.44,18a3.74,3.74,0,0,0,0,3.53L9.81,37.74a3.73,3.73,0,0,0,3,1.76H31.6a3.73,3.73,0,0,0,3-1.76l3.85-6.66-.58-1-.58-1-.57-1-4.71,8.16a.92.92,0,0,1-.46.26H12.87a.88.88,0,0,1-.46-.26L3,20a1,1,0,0,1,0-.53L12.41,3.27A.84.84,0,0,1,12.86,3H31.59a.9.9,0,0,1,.47.27l9.36,16.21a.83.83,0,0,1,0,.54l-.61,1.06.58,1h0l1,1.78.13.22L44,21.51A3.72,3.72,0,0,0,44,18Z"/><polygon class="cls-26" points="41.38 22.08 40.81 21.08 40.81 21.08 41.38 22.08"/><polygon class="cls-27" points="42.41 23.86 42.54 24.08 42.54 24.08 42.41 23.86"/><polygon class="cls-28" points="37.92 30.08 38.5 31.08 38.5 31.08 37.92 30.08"/><rect class="cls-29" x="37.05" y="28" height="1.15"/><path class="cls-30" d="M78.86,18,69.5,1.76A3.75,3.75,0,0,0,66.44,0H47.71a3.75,3.75,0,0,0-3.06,1.76L40.81,8.42l.58,1,.57,1,.58,1,4.71-8.15A.84.84,0,0,1,47.71,3H66.44a.87.87,0,0,1,.46.27l9.36,16.21a.91.91,0,0,1,0,.54L66.9,36.24a.88.88,0,0,1-.46.26H47.71a.88.88,0,0,1-.46-.26L38.5,21.08,37.89,20a.87.87,0,0,1,0-.53l.62-1.07-.3-.51-.28-.49h0l-1.15-2L35.29,18a3.74,3.74,0,0,0,0,3.53l9.36,16.22a3.75,3.75,0,0,0,3.06,1.76H66.44a3.75,3.75,0,0,0,3.06-1.76l9.36-16.23A3.72,3.72,0,0,0,78.86,18ZM51.17,26.38a1.48,1.48,0,0,0,1,.5h.07a1.48,1.48,0,0,0,1-.41L65.49,15.11A1.51,1.51,0,0,0,65.56,13a1.67,1.67,0,0,0-.47-.33h0a1.4,1.4,0,0,0-.52-.12h-.09a1.35,1.35,0,0,0-.34.06,1.29,1.29,0,0,0-.19,0,1.41,1.41,0,0,0-.49.3L52.37,23.24l-2.86-3.18a1.51,1.51,0,0,0-.23-.21l-.09-.05a.64.64,0,0,0-.18-.1l-.11,0-.17-.06-.12,0h-.25a1.36,1.36,0,0,0-.48.09h0a1.57,1.57,0,0,0-.44.28,1.5,1.5,0,0,0-.12,2.12Z"/></g></g></svg>