<svg xmlns="http://www.w3.org/2000/svg" xmlns:xlink="http://www.w3.org/1999/xlink" viewBox="0 0 56 41.05"><defs><style>.cls-1{fill:url(#linear-gradient);}</style><linearGradient id="linear-gradient" y1="20.52" x2="56" y2="20.52" gradientUnits="userSpaceOnUse"><stop offset="0" stop-color="#00ac8f"/><stop offset="0.45" stop-color="#00ace1"/><stop offset="1" stop-color="#2c3795"/></linearGradient></defs><g id="Layer_2" data-name="Layer 2"><g id="Layer_1-2" data-name="Layer 1"><path class="cls-1" d="M39,5.9a1.18,1.18,0,0,0,1.52.59,1.14,1.14,0,0,0,.61-.63l1.59-4a1.1,1.1,0,0,0,0-.87,1.15,1.15,0,0,0-.63-.63,1.1,1.1,0,0,0-.89,0,1.12,1.12,0,0,0-.62.64L39,5a1.13,1.13,0,0,0,0,.79S39,5.86,39,5.9Zm3.42,1.7a1.42,1.42,0,0,0,0,.22,1.21,1.21,0,0,0,.39.53,1.1,1.1,0,0,0,.85.24,1.08,1.08,0,0,0,.76-.43l4-5.13a1.15,1.15,0,0,0,.24-.84,1.12,1.12,0,0,0-.43-.78,1.17,1.17,0,0,0-.86-.25,1.15,1.15,0,0,0-.77.44l-4,5.14A1.11,1.11,0,0,0,42.39,7.6ZM14.91,5.86a1.08,1.08,0,0,0,.61.63,1.17,1.17,0,0,0,.88,0A1.19,1.19,0,0,0,17,5.9a.49.49,0,0,0,0-.11,1.13,1.13,0,0,0,0-.79l-1.6-4a1.13,1.13,0,0,0-.61-.64,1.1,1.1,0,0,0-.89,0,1.14,1.14,0,0,0-.64,1.5Zm30.28,4.33a1.13,1.13,0,0,0,0,.55,1.24,1.24,0,0,0,.16.3,1.11,1.11,0,0,0,.74.47,1.14,1.14,0,0,0,.86-.2l3.52-2.49A1.18,1.18,0,0,0,51,8.08a1.15,1.15,0,0,0-1.81-1.14L45.65,9.43A1.08,1.08,0,0,0,45.19,10.19Zm1.94,3.28a1.17,1.17,0,0,0-.05.88,1.14,1.14,0,0,0,.58.66h0a1.17,1.17,0,0,0,.88.05L54.71,13a1.16,1.16,0,0,0,.66-.57,1.13,1.13,0,0,0,.06-.9h0a1.13,1.13,0,0,0-.58-.67,1.19,1.19,0,0,0-.89-.05l-6.17,2.12A1.1,1.1,0,0,0,47.13,13.47ZM11.56,8.16a1.15,1.15,0,0,0,1.62.19,1.11,1.11,0,0,0,.38-.53,1.42,1.42,0,0,0,0-.22,1.07,1.07,0,0,0-.23-.86l-4-5.14a1.13,1.13,0,0,0-.77-.44,1.15,1.15,0,0,0-.85.25,1.13,1.13,0,0,0-.44.78A1.15,1.15,0,0,0,7.54,3Zm37.31,8.63a1.13,1.13,0,0,0-.81.38,1.19,1.19,0,0,0-.29.83,1.91,1.91,0,0,0,.06.33,1.33,1.33,0,0,0,.31.47,1.14,1.14,0,0,0,.83.29l4.31-.19a1.15,1.15,0,0,0,1.1-1.2,1.14,1.14,0,0,0-1.2-1.1ZM1.29,13l6.18,2.11A1.14,1.14,0,0,0,8.34,15h0a1.14,1.14,0,0,0,.58-.66,1.16,1.16,0,0,0,0-.88,1.15,1.15,0,0,0-.67-.59L2,10.76a1.19,1.19,0,0,0-.89.05,1.2,1.2,0,0,0-.58.67h0A1.15,1.15,0,0,0,1.29,13Zm50,13.94-3.72-2.18a1.11,1.11,0,0,0-.89-.11,1.14,1.14,0,0,0-.69.53,1.11,1.11,0,0,0-.12.87l0,.09a1.12,1.12,0,0,0,.5.61l3.72,2.18A1.16,1.16,0,0,0,51,29a1.12,1.12,0,0,0,.71-.53,1.14,1.14,0,0,0,.13-.88A1.12,1.12,0,0,0,51.29,26.89Zm-5.87,5.26a4.46,4.46,0,0,0-3.31-3.33c-.56-.17-.71-.24-.72-.43a15.4,15.4,0,0,0-4-11.49,12.14,12.14,0,0,0-5.35-3.24A10.23,10.23,0,0,0,33,12.49a10.68,10.68,0,0,0,1.85-5.64,6.86,6.86,0,0,0-13.71,0A10.59,10.59,0,0,0,23,12.49a10.17,10.17,0,0,0,.93,1.17,12.14,12.14,0,0,0-5.35,3.24,15.44,15.44,0,0,0-4,11.49c0,.19-.16.26-.71.43a4.45,4.45,0,0,0-3.32,3.33v0a4.94,4.94,0,0,0,.86,4.36c1.35,1.71,4,3,7.85,3.71a48.64,48.64,0,0,0,8.56.79h.31a48.45,48.45,0,0,0,8.55-.79c3.87-.75,6.51-2,7.85-3.71a4.94,4.94,0,0,0,.87-4.36ZM23.72,6.85a4.28,4.28,0,0,1,8.56,0c0,2.61-2.15,6.24-4.28,6.24S23.72,9.46,23.72,6.85Zm1.9,31.54c-4.3-.28-8.75-.56-12-3.35a1.89,1.89,0,0,1-.42-2.48,2.27,2.27,0,0,1,1.71-1.31c3-.48,8,4.34,10.49,6.66l.52.5ZM28,36.79c-1.72-1.61-2.94-2.66-3.83-3.43a8.38,8.38,0,0,1-1.7-1.65c-.14-.29-.08-.54.15-1.27.43-1.37,1.23-3.92,1.09-10.36a1.26,1.26,0,0,0-.65-1.15,1.37,1.37,0,0,0-1.35.06,1.25,1.25,0,0,0-.55,1.19A33.83,33.83,0,0,1,20.05,30.3,13.27,13.27,0,0,0,17.34,29c-.14,0-.16-.06-.16-.25h0a13.06,13.06,0,0,1,3.14-9.92,10,10,0,0,1,7.51-3.18h.34a10,10,0,0,1,7.51,3.18,13,13,0,0,1,3.14,9.92h0c0,.19,0,.21-.16.25A13.52,13.52,0,0,0,36,30.3a34.17,34.17,0,0,1-1.1-10.12A1.29,1.29,0,0,0,34.3,19a1.38,1.38,0,0,0-1.36-.06,1.28,1.28,0,0,0-.65,1.15c-.14,6.44.66,9,1.09,10.36.23.73.3,1,.15,1.27a8.52,8.52,0,0,1-1.69,1.65C30.94,34.13,29.73,35.18,28,36.79ZM42.39,35c-3.26,2.79-7.71,3.07-12,3.35l-.3,0,.53-.5c2.32-2.21,7-6.7,10.06-6.7a2.09,2.09,0,0,1,.43,0,2.27,2.27,0,0,1,1.7,1.31A1.88,1.88,0,0,1,42.39,35ZM55.84,23a1.15,1.15,0,0,0-.72-.53l-6.33-1.58a1.18,1.18,0,0,0-.88.14,1.15,1.15,0,0,0-.51.71,1.11,1.11,0,0,0,0,.65.91.91,0,0,0,.11.22,1.08,1.08,0,0,0,.71.52l6.32,1.58A1.16,1.16,0,0,0,56,23.83,1.17,1.17,0,0,0,55.84,23ZM9,11.31a1.15,1.15,0,0,0,.86.2,1.08,1.08,0,0,0,.74-.47,1.24,1.24,0,0,0,.16-.3,1.14,1.14,0,0,0-.42-1.31L6.84,6.94A1.14,1.14,0,0,0,6,6.73,1.16,1.16,0,0,0,5,8.08a1.14,1.14,0,0,0,.47.74ZM2.83,16.6a1.16,1.16,0,0,0-.84.3,1.12,1.12,0,0,0-.37.8,1.09,1.09,0,0,0,.31.84,1.11,1.11,0,0,0,.8.36l4.3.19a1.13,1.13,0,0,0,.83-.29,1.21,1.21,0,0,0,.31-.47A1,1,0,0,0,8.23,18a1.19,1.19,0,0,0-.29-.83,1.13,1.13,0,0,0-.81-.38Zm6.49,8a1.12,1.12,0,0,0-.89.11L4.71,26.89a1.15,1.15,0,0,0-.41,1.59A1.14,1.14,0,0,0,5,29a1.12,1.12,0,0,0,.86-.13L9.6,26.7a1.13,1.13,0,0,0,.51-.61.29.29,0,0,0,0-.09,1.15,1.15,0,0,0-.81-1.4Zm-.84-2a1.47,1.47,0,0,0,.1-.22,1.11,1.11,0,0,0,0-.65A1.15,1.15,0,0,0,8.09,21a1.17,1.17,0,0,0-.88-.14L.88,22.42A1.15,1.15,0,0,0,.16,23a1.12,1.12,0,0,0-.12.88,1.11,1.11,0,0,0,.54.71,1.12,1.12,0,0,0,.86.12l6.33-1.58A1.1,1.1,0,0,0,8.48,22.56Z"/></g></g></svg>