<svg xmlns="http://www.w3.org/2000/svg" xmlns:xlink="http://www.w3.org/1999/xlink" viewBox="0 0 42.59 42.55"><defs><style>.cls-1{fill:url(#linear-gradient);}</style><linearGradient id="linear-gradient" y1="21.28" x2="42.59" y2="21.28" gradientUnits="userSpaceOnUse"><stop offset="0" stop-color="#00ac8f"/><stop offset="0.45" stop-color="#00ace1"/><stop offset="1" stop-color="#2c3795"/></linearGradient></defs><g id="Layer_2" data-name="Layer 2"><g id="Layer_1-2" data-name="Layer 1"><path class="cls-1" d="M27,16.91a.8.8,0,0,1-.89-.64c-.39-1.18-.79-2.36-1.19-3.54-.27-.8-.55-1.61-.82-2.42a1.43,1.43,0,0,0-.83-1,1.25,1.25,0,0,0-.95,0,1.61,1.61,0,0,0-.77,1c-.6,1.79-1.21,3.58-1.81,5.38L19,18.06l-.84,2.49-.32.94h-.5l-.22-.67-.63-2c-.58-1.83-1.17-3.65-1.74-5.48a1.3,1.3,0,0,0-1.19-1.08,1.27,1.27,0,0,0-1.28.84c-.28.54-.57,1.08-.86,1.62l-.9,1.69a.79.79,0,0,1-.79.47c-.53,0-1,0-1.58,0H7.62a1.31,1.31,0,0,0-1.46,1.26A1.23,1.23,0,0,0,6.5,19a1.59,1.59,0,0,0,1.1.42H9q.9,0,1.8,0h0a1.36,1.36,0,0,0,1.39-.92c.13-.32.27-.63.43-1l.46-1,.32.71c0,.11.08.18.11.27L15,22.17c.42,1.35.85,2.69,1.28,4a1.28,1.28,0,0,0,1.22.95h0a1.31,1.31,0,0,0,1.21-.92l.06-.19,0-.12,3.55-10.52.12-.33.18-.51.28.29a1.46,1.46,0,0,1,.34.59l.29.93c.21.7.43,1.4.66,2.09a1.25,1.25,0,0,0,1.34,1c1.1,0,2.21,0,3.32,0a1.27,1.27,0,1,0,0-2.52h-.31C28.06,16.89,27.53,16.89,27,16.91ZM40.79,34.46,39,33.05l-5.77-4.44.13-.19a18.23,18.23,0,1,0-30.18-.06A17.66,17.66,0,0,0,13.3,35.7,18.08,18.08,0,0,0,28,33.53l.18-.11,1.21,1.41,5.17,6a4.49,4.49,0,0,0,3.69,1.69,4.65,4.65,0,0,0,4.13-3.22A4.44,4.44,0,0,0,40.79,34.46ZM28.71,28.77a14.9,14.9,0,0,1-10.54,4.32h-.05A14.92,14.92,0,0,1,18.2,3.25h0A14.92,14.92,0,0,1,28.71,28.77Z"/></g></g></svg>