<svg xmlns="http://www.w3.org/2000/svg" xmlns:xlink="http://www.w3.org/1999/xlink" viewBox="0 0 88.67 44.62"><defs><style>.cls-1{fill:none;}.cls-2{fill:url(#linear-gradient);}</style><linearGradient id="linear-gradient" y1="22.31" x2="86.01" y2="22.31" gradientUnits="userSpaceOnUse"><stop offset="0" stop-color="#00ac8f"/><stop offset="0.45" stop-color="#00ace1"/><stop offset="1" stop-color="#2c3795"/></linearGradient></defs><g id="Layer_2" data-name="Layer 2"><g id="Layer_1-2" data-name="Layer 1"><rect class="cls-1" width="88.67" height="44.62"/><path class="cls-2" d="M35.79,25.51H32V18.58a1.08,1.08,0,0,0-.32-.78,1.1,1.1,0,0,0-1.56,0,1.06,1.06,0,0,0-.31.77v7.8a1.29,1.29,0,0,0,.39.94,1.31,1.31,0,0,0,.93.39h4.67a1.11,1.11,0,0,0,.77-.31,1.05,1.05,0,0,0,.33-.78,1.11,1.11,0,0,0-1.1-1.11ZM19,17.72a1.3,1.3,0,0,0-.39.58L16.92,24l-1.74-5.66a1.21,1.21,0,0,0-.44-.62,1.23,1.23,0,0,0-1.44,0,1.1,1.1,0,0,0-.44.62L11.12,24,9.38,18.3A1.18,1.18,0,0,0,9,17.73a1.12,1.12,0,0,0-1.47.06,1,1,0,0,0-.3.77,1.62,1.62,0,0,0,.06.37l2.58,7.92a1.42,1.42,0,0,0,.48.67,1.31,1.31,0,0,0,1.55,0,1.34,1.34,0,0,0,.47-.68L14,21.65l1.63,5.18a1.3,1.3,0,0,0,1.25.94,1.23,1.23,0,0,0,.77-.25,1.38,1.38,0,0,0,.48-.68l2.59-7.93a1.89,1.89,0,0,0,.05-.33,1,1,0,0,0-.3-.79A1.12,1.12,0,0,0,19,17.72Zm25.16,7.42a6.21,6.21,0,0,1-1,.42A4.28,4.28,0,0,1,42,25.7a3.3,3.3,0,0,1-1.67-.4,2.46,2.46,0,0,1-1-1.07,3.86,3.86,0,0,1,0-3.21,2.46,2.46,0,0,1,1-1.07,3.3,3.3,0,0,1,1.67-.4,4.23,4.23,0,0,1,1.14.14,5.89,5.89,0,0,1,1,.43,1.07,1.07,0,0,0,1.2-.2,1,1,0,0,0,.29-.7,1,1,0,0,0-.55-.93,7.25,7.25,0,0,0-1.5-.65,6.21,6.21,0,0,0-1.74-.23,5.31,5.31,0,0,0-2.59.63,4.65,4.65,0,0,0-1.84,1.84,5.57,5.57,0,0,0-.66,2.75,5.53,5.53,0,0,0,.66,2.74,4.65,4.65,0,0,0,1.84,1.84,5.31,5.31,0,0,0,2.59.63,6.16,6.16,0,0,0,1.74-.23,7.25,7.25,0,0,0,1.5-.65,1,1,0,0,0,.55-.93,1,1,0,0,0-.29-.71A1.07,1.07,0,0,0,44.19,25.14ZM27.78,19.66a1,1,0,0,0,.74-.3,1,1,0,0,0,.32-.75,1.08,1.08,0,0,0-.31-.76,1,1,0,0,0-.75-.31H22.51a1.09,1.09,0,0,0-.78.33,1.11,1.11,0,0,0-.31.78v8a1.09,1.09,0,0,0,1.09,1.09h5.27a1.07,1.07,0,0,0,.74-.3,1,1,0,0,0,.32-.75,1.07,1.07,0,0,0-.31-.76,1,1,0,0,0-.75-.31H23.62V23.68H27.3a1.08,1.08,0,0,0,.75-.3,1,1,0,0,0,.32-.75,1.07,1.07,0,0,0-.31-.76,1.08,1.08,0,0,0-.76-.31H23.62v-1.9ZM85.06,35.91,77.93,33.1c4-3.11,6.28-6.8,6.28-10.79C84.21,10.94,65.72,2,42.11,2S0,10.94,0,22.31,18.5,42.58,42.11,42.58a83.73,83.73,0,0,0,17.82-1.84q.81.3,1.68.57a29.23,29.23,0,0,0,8.48,1.26,32.2,32.2,0,0,0,15.12-3.93,1.5,1.5,0,0,0-.15-2.73ZM65.63,39.22A26.41,26.41,0,0,1,60,37.59c-1.54.36-3.13.68-4.77.94a81.38,81.38,0,0,1-13.15,1C20.91,39.58,3,31.67,3,22.31S20.91,5,42.11,5,81.21,13,81.21,22.31c0,3.46-2.46,6.73-6.62,9.47a31.81,31.81,0,0,1-3.34,1.9l3.68,1.46,5.79,2.29A27.21,27.21,0,0,1,65.63,39.22Zm11-11.81a1,1,0,0,0,.32-.75,1.07,1.07,0,0,0-.31-.76,1.08,1.08,0,0,0-.76-.31H71.76V23.68h3.69a1.08,1.08,0,0,0,.75-.3,1,1,0,0,0,.31-.75,1,1,0,0,0-.31-.76,1,1,0,0,0-.75-.31H71.76v-1.9h4.16a1,1,0,0,0,.75-.3,1,1,0,0,0,.32-.75,1.06,1.06,0,0,0-1.07-1.07H70.66a1.06,1.06,0,0,0-.78.33,1.07,1.07,0,0,0-.31.78v8a1.08,1.08,0,0,0,1.09,1.09h5.26A1.08,1.08,0,0,0,76.67,27.41ZM53.44,18.08h0a5.64,5.64,0,0,0-5.33,0A4.67,4.67,0,0,0,46.32,20a5.83,5.83,0,0,0,0,5.35,4.67,4.67,0,0,0,1.79,1.87,5.64,5.64,0,0,0,5.33,0,4.67,4.67,0,0,0,1.79-1.87,5.75,5.75,0,0,0,0-5.35A4.67,4.67,0,0,0,53.44,18.08Zm-.1,6.16a2.54,2.54,0,0,1-1,1.08,3.25,3.25,0,0,1-3.13,0,2.52,2.52,0,0,1-1-1.08,3.9,3.9,0,0,1,0-3.23,2.58,2.58,0,0,1,1-1.08,3.26,3.26,0,0,1,3.13,0,2.54,2.54,0,0,1,1,1.08,3.9,3.9,0,0,1,0,3.23Zm13.33-6.76h-.44a1.27,1.27,0,0,0-.77.25,1.46,1.46,0,0,0-.49.61l-2.52,6.28-2.52-6.29a1.5,1.5,0,0,0-.49-.6,1.27,1.27,0,0,0-.77-.25h-.43a1.33,1.33,0,0,0-1,.4,1.36,1.36,0,0,0-.4,1v7.84a1,1,0,0,0,.32.77,1.12,1.12,0,0,0,1.55,0,1.07,1.07,0,0,0,.33-.78V21.79l2.07,5.13a1.37,1.37,0,0,0,.52.62,1.42,1.42,0,0,0,1.56,0,1.41,1.41,0,0,0,.53-.63l2.07-5.12v4.89a1,1,0,0,0,.33.78,1,1,0,0,0,.77.31A1.08,1.08,0,0,0,68,26.68V18.84a1.4,1.4,0,0,0-.39-1A1.33,1.33,0,0,0,66.67,17.48Z"/></g></g></svg>