<svg xmlns="http://www.w3.org/2000/svg" viewBox="0 0 173.1 69.54"><defs><style>.cls-1{fill:#2b2b2b;}.cls-2,.cls-3{fill:#fff;}.cls-3{font-size:29.1px;font-family:Montserrat-Regular, Montserrat;}</style></defs><g id="Layer_2" data-name="Layer 2"><g id="Layer_1-2" data-name="Layer 1"><path class="cls-1" d="M171.1,32,153.49,20.25V14.4A14.44,14.44,0,0,0,139.09,0H14.4A14.44,14.44,0,0,0,0,14.4V55.14a14.44,14.44,0,0,0,14.4,14.4H139.09a14.44,14.44,0,0,0,14.4-14.4V50.26L171,39.58A4.5,4.5,0,0,0,171.1,32Z"/><path class="cls-2" d="M30.62,14.75a12.86,12.86,0,0,1,9,3.05c.83.71,1.24.8,2.13,0,7.44-6.4,19.47-2.46,21.62,7.08a14.76,14.76,0,0,1-2.61,11.95A72.09,72.09,0,0,1,47.09,52a14.51,14.51,0,0,1-4.62,2.58c-2.7.88-4.95-.33-7-1.79a55.67,55.67,0,0,1-11.08-11C22.19,39,19.9,36.45,18.7,33.1,16.13,26,18.83,19,25.46,16c.76-.35,1.6-.51,2.37-.81A13.61,13.61,0,0,1,30.62,14.75Z"/><text class="cls-3" transform="translate(72.31 44.96)">20k+</text></g></g></svg>