<svg xmlns="http://www.w3.org/2000/svg" viewBox="0 0 69.36 69.36"><defs><style>.cls-1{fill:#ac0d7a;}.cls-2{fill:#fff;}</style></defs><g id="Layer_2" data-name="Layer 2"><g id="Layer_1-2" data-name="Layer 1"><rect class="cls-1" width="69.36" height="69.36" rx="14.4"/><path class="cls-2" d="M34.68,23.21c3.73,0,4.18,0,5.65.08a7.76,7.76,0,0,1,2.6.48,4.45,4.45,0,0,1,1.61,1.05,4.3,4.3,0,0,1,1,1.61,7.63,7.63,0,0,1,.49,2.6c.06,1.47.08,1.91.08,5.65s0,4.18-.08,5.65a7.63,7.63,0,0,1-.49,2.6,4.56,4.56,0,0,1-2.65,2.65,7.69,7.69,0,0,1-2.6.49c-1.47.06-1.92.08-5.65.08s-4.18,0-5.65-.08a7.63,7.63,0,0,1-2.6-.49,4.3,4.3,0,0,1-1.61-1,4.45,4.45,0,0,1-1.05-1.61,7.7,7.7,0,0,1-.48-2.6c-.06-1.47-.08-1.92-.08-5.65s0-4.18.08-5.65a7.7,7.7,0,0,1,.48-2.6,4.67,4.67,0,0,1,2.66-2.66,7.7,7.7,0,0,1,2.6-.48c1.47-.06,1.91-.08,5.65-.08m0-2.52c-3.8,0-4.28,0-5.77.08a10.43,10.43,0,0,0-3.39.65A6.91,6.91,0,0,0,23,23a6.75,6.75,0,0,0-1.61,2.48,10.14,10.14,0,0,0-.66,3.39c-.06,1.49-.08,2-.08,5.77s0,4.27.08,5.77a10.14,10.14,0,0,0,.66,3.39,7.11,7.11,0,0,0,4.09,4.09,9.93,9.93,0,0,0,3.39.65c1.49.07,2,.09,5.77.09s4.27,0,5.77-.09a9.93,9.93,0,0,0,3.39-.65,7.11,7.11,0,0,0,4.09-4.09,9.93,9.93,0,0,0,.65-3.39c.07-1.5.09-2,.09-5.77s0-4.28-.09-5.77a9.93,9.93,0,0,0-.65-3.39A6.75,6.75,0,0,0,46.32,23a6.91,6.91,0,0,0-2.48-1.62,10.43,10.43,0,0,0-3.39-.65c-1.5-.06-2-.08-5.77-.08"/><path class="cls-2" d="M43.82,27.21a1.68,1.68,0,1,1-1.67-1.68,1.68,1.68,0,0,1,1.67,1.68"/><path class="cls-2" d="M34.68,27.69a7,7,0,1,0,7,7A7,7,0,0,0,34.68,27.69Zm0,11.65a4.66,4.66,0,1,1,4.66-4.66A4.66,4.66,0,0,1,34.68,39.34Z"/></g></g></svg>