<svg xmlns="http://www.w3.org/2000/svg" viewBox="0 0 69.36 69.36"><defs><style>.cls-1{fill:#be0a1f;}.cls-2{fill:#fff;}</style></defs><g id="Layer_2" data-name="Layer 2"><g id="Layer_1-2" data-name="Layer 1"><rect class="cls-1" width="69.36" height="69.36" rx="14.4"/><path class="cls-2" d="M34.68,19.52a15.16,15.16,0,0,0-6.09,29,13.56,13.56,0,0,1,.27-3.48l1.95-8.26a5.78,5.78,0,0,1-.49-2.4c0-2.24,1.31-3.92,2.93-3.92a2,2,0,0,1,2,2.27c0,1.39-.88,3.46-1.34,5.38a2.35,2.35,0,0,0,2.4,2.92c2.87,0,4.8-3.68,4.8-8.06,0-3.32-2.23-5.8-6.3-5.8a7.18,7.18,0,0,0-7.47,7.25,4.38,4.38,0,0,0,1,3,.73.73,0,0,1,.22.84c-.07.28-.24,1-.31,1.22a.53.53,0,0,1-.76.38c-2.12-.87-3.1-3.18-3.1-5.79,0-4.31,3.63-9.47,10.83-9.47,5.79,0,9.6,4.19,9.6,8.68,0,6-3.31,10.39-8.18,10.39A4.31,4.31,0,0,1,33,41.8s-.89,3.5-1.07,4.17a12.49,12.49,0,0,1-1.53,3.25,15.16,15.16,0,1,0,4.3-29.7Z"/></g></g></svg>