<svg xmlns="http://www.w3.org/2000/svg" viewBox="0 0 69.36 69.36"><defs><style>.cls-1{fill:#56c1eb;}.cls-2{fill:#fff;}</style></defs><g id="Layer_2" data-name="Layer 2"><g id="Layer_1-2" data-name="Layer 1"><rect class="cls-1" width="69.36" height="69.36" rx="14.4"/><path class="cls-2" d="M50.62,24a12.1,12.1,0,0,1-3.76,1.11,7,7,0,0,0,2.88-3.89A12.92,12.92,0,0,1,45.58,23a6.31,6.31,0,0,0-4.77-2.23,6.8,6.8,0,0,0-6.54,7,8.35,8.35,0,0,0,.16,1.6A18.18,18.18,0,0,1,21,22a7.46,7.46,0,0,0-.88,3.54A7.13,7.13,0,0,0,23,31.41a6.16,6.16,0,0,1-3-.87v.09a7,7,0,0,0,5.24,6.91,6.06,6.06,0,0,1-1.72.23,5.64,5.64,0,0,1-1.23-.12,6.62,6.62,0,0,0,6.11,4.89,12.54,12.54,0,0,1-8.12,3,11.46,11.46,0,0,1-1.56-.1,17.45,17.45,0,0,0,10,3.18c12,0,18.62-10.74,18.62-20,0-.3,0-.6,0-.9A14.47,14.47,0,0,0,50.62,24Z"/></g></g></svg>