<svg xmlns="http://www.w3.org/2000/svg" viewBox="0 0 69.36 69.36"><defs><style>.cls-1{fill:#e6001c;}.cls-2{fill:#fff;}</style></defs><g id="Layer_2" data-name="Layer 2"><g id="Layer_1-2" data-name="Layer 1"><rect class="cls-1" width="69.36" height="69.36" rx="14.4"/><path class="cls-2" d="M49,27.66a3.4,3.4,0,0,0-.07-.34c0-.05,0-.1,0-.15a2.84,2.84,0,0,0-2.69-1.93h.2a87.18,87.18,0,0,0-23.42,0h.2a2.83,2.83,0,0,0-2.69,1.93s0,.1-.05.15a3.4,3.4,0,0,0-.07.34,56.55,56.55,0,0,0-.51,7,56.55,56.55,0,0,0,.51,7c0,.11,0,.22.07.33l.05.15a2.83,2.83,0,0,0,2.69,1.94H23a89.46,89.46,0,0,0,11.71.79,89.66,89.66,0,0,0,11.71-.79h-.2a2.84,2.84,0,0,0,2.69-1.94s0-.1,0-.15,0-.22.07-.33a56.55,56.55,0,0,0,.51-7A56.55,56.55,0,0,0,49,27.66Zm-9.93,7.65-6,4.35a.71.71,0,0,1-.42.14.8.8,0,0,1-.33-.08.71.71,0,0,1-.39-.64v-8.7a.71.71,0,0,1,.39-.64.72.72,0,0,1,.75.06l6,4.35a.71.71,0,0,1,0,1.16Z"/></g></g></svg>