<?xml version="1.0" encoding="utf-8"?>
<!-- Generator: Adobe Illustrator 25.1.0, SVG Export Plug-In . SVG Version: 6.00 Build 0)  -->
<svg version="1.1" id="Layer_1" xmlns="http://www.w3.org/2000/svg" xmlns:xlink="http://www.w3.org/1999/xlink" x="0px" y="0px"
	 viewBox="0 0 285 285" style="enable-background:new 0 0 285 285;" xml:space="preserve">
<style type="text/css">
	.st0{fill:none;}
	.st1{fill:#00AEEF;}
</style>
<g id="Layer_2_1_">
	<g id="Layer_1-2">
		<path class="st0" d="M83.3,139.6c-0.1,0-0.2,0-0.3-0.1c-0.2-0.1-0.4-0.2-0.6-0.2c-0.6,0.1-1.1,0.7-1.1,1.4c0,0.8,0,1.6,0,2.5
			c0,2.7-0.1,5.4-0.5,8.2c-0.6,5.3-1.7,10.4-3.4,15.4c-0.8,2.4-1.8,4.7-2.8,7c-0.2,0.5-0.4,1.1-0.7,1.6c-1.4,2.8-3.1,5.3-5.1,7.5
			c-6.4,7.1-14.2,12.3-22.7,14.9c-3,0.9-0.2,2.3-0.2,2.3c0.5,0.3,1.6,1,2.5,1.6l2,1.3c2.5,1.4,5,2.5,7.6,3.5c0.1,0,0.2,0,0.4,0
			c0.2,0,0.5-0.1,0.6-0.2c2.3-1.8,4.5-3.8,6.6-6c4.1-4.3,7.7-9.3,10.6-14.9c1.5-2.8,2.7-5.7,3.8-8.7l0.1-0.4
			c1.7-5,2.9-10.3,3.6-15.7c0.2-1.5,0.3-3,0.4-4.5c0.1-1.5,0.2-3.1,0.2-4.6c0-3.6-0.3-7.2-0.8-10.8
			C83.7,140.1,83.5,139.8,83.3,139.6z"/>
		<path class="st0" d="M307.5,36.9c0,0.3,0.1,0.7,0.1,1l0.1,0.2v0.3c0,0.4-0.1,0.8-0.3,1.2c-0.2,0.3-0.4,0.6-0.6,1
			c-0.6,0.8-1.2,1.5-1.9,2.2c-1,1.1-2.1,2.2-3.2,3.3l-0.6,0.6c0.2,0.4,0.4,0.9,0.3,1.4c0,0.5-0.1,1-0.2,1.6c-0.5,1.8-1.2,3.5-2,5.1
			c-1,2.3-2,4.8-1.9,5.7c0,0.3,0,0.3,0,0.3l1.3,0.9l-1.1,1.1l-3.4,3.6c-2.3,2.5-4.9,5.3-7.1,8c-1.1,1.4-2.2,2.8-3.1,4.1
			c-1.3,1.9-2.4,3.8-3.5,5.8c-1.1,2.1-2.2,4.2-3.3,6.4l-1.2,2c-1.3,2.1-2.5,4.2-3.7,6.3c0.2,0.4,0.4,0.8,0.6,1.2
			c0.4,0.8,0.7,1.6,1.2,2.5c1.1,2.3,2.1,4.6,3,7c2.8,7.1,4.7,14.6,5.7,22.4c0.1,1,0.2,1.9,0.3,2.9c0.1,1,0.2,1.7,0.3,2.6
			c0.2,2.5,0.3,5,0.3,7.5c0,0.2,0,0.5,0,0.7c0,4.1-0.3,8.2-0.8,12.2c-0.5,4.2-1.3,8.3-2.3,12.3c-0.4,1.7-1,3.3-1.5,4.9
			c-0.5,1.6-1.2,3.3-1.8,5c-3.3,8.7-7.8,16.7-13.2,23.7c-1.1,1.4-2.1,2.6-3.2,3.9c-1.7,1.9-3.5,3.7-5.3,5.4
			c-1.8,1.7-3.7,3.3-5.7,4.8c-4,3-8.2,5.5-12.5,7.5c-1.9,0.9-3.8,1.7-5.7,2.4c-6.8,2.4-13.9,3.7-21.1,3.7H74.7
			c-3.3,0-6.6-0.3-9.9-0.8c-1.6-0.3-3.2-0.6-4.8-1c-1.6-0.4-3.2-0.8-4.7-1.4c-2-0.7-4-1.4-5.9-2.3c-2.2-0.9-4.4-2-6.6-3.2
			c-4.3-2.4-8.3-5.4-12.1-8.7c-1.9-1.7-3.7-3.4-5.4-5.3c-1.2-1.2-2.3-2.5-3.3-3.8c-1.7-2-3.2-4.1-4.7-6.4c-1.5-2.2-3-4.8-4.4-7.3
			c-1.2-2.3-2.3-4.6-3.4-7c-0.2-0.5-0.4-1.1-0.6-1.7c-0.8-2-1.7-4-2.3-6.2c-0.5-1.6-1.1-3.2-1.5-4.9c-1.2-4.2-2-8.5-2.6-12.9
			c-0.6-4.5-0.9-9-0.9-13.5c0-0.8,0.1-1.5,0.1-2.2c0-2.2,0.1-4.5,0.3-6.7c0.1-1.4,0.3-2.6,0.5-3.9c0.1-0.5,0.1-1,0.2-1.5
			c1.6-11.2,5.1-22,10.3-31.7c0.1-0.2,0.2-0.3,0.2-0.4c0.7-1.4,1.5-2.6,2.2-3.9c2.4-3.9,5-7.6,7.9-11c0.4-0.5,0.9-1,1.4-1.5
			c2.2-2.5,4.6-4.8,7-6.9l0.3-0.3c1.9-1.6,3.8-3.1,5.8-4.5c0.9-0.6,1.7-1.1,2.6-1.6c4.6-2.9,9.5-5.3,14.5-7c1.4-0.5,2.9-1,4.4-1.4
			c0.7-0.2,1.5-0.3,2.2-0.4c1.8-0.4,3.6-0.8,5.5-1.1c2.6-0.3,5.3-0.4,7.9-0.4h135.7c1.6,0,3.1,0,4.7,0.2c4.6,0.4,9.1,1.2,13.5,2.6
			l0.4,0.2c1.3,0.4,2.6,0.9,3.9,1.4c9,3.4,17.3,8.9,24.6,16c2.9-4.1,5.9-8.1,8.8-12.1c2.6-3.5,5.3-7,8.1-10.5
			c3.3-4.2,6.7-8.3,10.2-12.3c5.4-6.2,11.1-12,17.1-17.5c2-1.8,3.9-3.5,6-5.2l1.7-1.4v-67.5H-24.3V345h333.5V29.9
			c-1.1,1.8-1.7,3.9-1.9,6.1C307.4,36.3,307.5,36.6,307.5,36.9z"/>
		<path class="st0" d="M264.3,136.8c-0.2-1.9-0.5-3.8-0.8-5.7c-0.7-3.7-1.6-7.3-2.8-10.8c-4.5,8.6-8.8,17.2-13,25.7l-2.3,3.5
			c0,0.2,0.1,0.4,0.1,0.6c0,0.1,0,0.3,0,0.4v0.2l-0.1,0.2l-0.8,1.8c-0.9,1.6-1.9,3.1-2.8,4.4c-0.4,0.7-0.9,1.4-1.2,2
			c-0.4,0.6-0.7,1.2-1,1.8l0.8,0.1L230,181.3l-1.2,1.7l-1.9,2.8l-0.9,1.4l-0.6,0.8l-0.7,1l0,0l-0.1,0.2l-0.2,0.2l-0.3,0.2h-0.3
			l-11.5-0.1h-2.8h-7.1h-0.7l0,0h-1.6l-0.3-0.1c-0.4-0.2-0.6-0.6-0.6-1.1c0-0.3-20.6-45-27.8-61.5c-0.6-1.5-1-3.1-1.3-4.8
			c-0.4-1.9-0.7-4-1.2-6.1v-0.1v-0.1l-0.1-3.4h0.2l-0.2-0.4l0.2-1.7V110l0.1-0.2l0.4-3.2l0.4,0.8v-0.2l1.2,2c0.7,1.4,1.4,2.8,2,4.3
			c0.2-0.2,0.5-0.3,0.8-0.3c0.3,0,0.6,0.1,0.9,0.3c0.8,0.6,1.6,1.4,2.2,2.4c0.3,0.4,0.6,0.8,0.9,1.3l0,0l0,0c0,0,0-0.1,0-0.1
			c0-0.3,0.1-0.6,0.2-0.8l0.8-2.3l1,2.2c0.1,0.2,0.2,0.4,0.3,0.6c0.1-0.1,0.3-0.2,0.4-0.2l0.7-0.2l0.4,0.8c0.7,1.5,1.2,2.6,1.7,3.7
			c0.3-0.3,0.6-0.5,0.9-0.6l0,0c0-0.1,0-0.2,0-0.3v-0.1v-0.1c0.1-1,0-2.1,0-3.2c0-1,0.1-1.9,0.3-2.9c0.1-0.3,0.3-0.6,0.5-0.9l0,0
			c0.3-0.3,0.6-0.4,1-0.5h0.1c0.4,0.1,0.7,0.2,1,0.4c1.3,1,2.4,2.3,3.3,3.8c0.5,0.5,0.9,1.1,1.3,1.8c0.2,0.2,0.3,0.5,0.5,0.8l0,0
			l-0.5-2.5v-0.1l0,0l4.4,5.8l6.1,8c4.2,6.7,8.1,13.7,11.5,21c3.4-6.1,7-12.5,10.5-18.7c1.4-2.3,2.7-4.7,4.1-7
			c1.5-2.5,2.9-5,4.4-7.4c5-8.3,9.6-15.8,13.1-21.4c-3.9-4-8.3-7.3-13.1-9.8c-1.4-0.8-2.9-1.5-4.4-2.1c-2.9-1.2-5.8-2.1-8.8-2.8
			c-1.5-0.3-3.1-0.6-4.6-0.7c-1.6-0.2-3.1-0.2-4.7-0.2H74.7c-5.3,0-10.5,0.9-15.6,2.8c-1.5,0.5-2.9,1.1-4.4,1.8s-2.9,1.4-4.4,2.3
			c-1.4,0.8-2.8,1.8-4.1,2.8c1.2-0.3,2.6-0.5,4-0.7c1.4-0.2,2.9-0.4,4.5-0.5s2.9-0.2,4.4-0.3l0,0c2,0,4.1,0,6.3,0c1,0,2.1,0,3.1,0.1
			c1.6,0.1,3.2,0.2,4.8,0.4c1,0.1,2,0.2,3.1,0.3c1.7,0.2,3.5,0.5,5.2,0.8c0.8,0.2,1.7,0.3,2.5,0.5c2.5,0.5,5,1.2,7.2,1.9
			c1.5,0.5,3,1,4.4,1.6c2.2,0.9,4.3,2.1,6.3,3.6c1.7,1.2,3.2,2.7,4.4,4.5c2.1,3.2,3.7,5.9,5,8.3c0.8,1.5,1.5,2.8,2.1,3.9
			c0.6,1.1,1,2.1,1.3,2.8c0.2,0.4,0.3,0.7,0.4,1l8.1,0.2l4.4,0.2c3.8,0.1,7.4,0.3,10.7,0.5c5,0.3,9.4,0.7,13,1.4
			c3,0.4,5.8,1.3,8.6,2.7c1.4,0.6,2.6,1.9,3.2,3.5c0.9,2.6-0.6,5.2-1.6,7.4v23.6c-0.4,1.7-0.9,3.3-1.6,4.8c-1.4,3.1-3.1,6-5.2,8.6
			c-1.1,1.4-2.3,2.8-3.5,4c-0.7,0.7-1.4,1.4-2.2,2.1c-1.7,1.5-3.4,2.9-5.2,4.1c-1,0.7-2,1.4-3.1,2.1c-2.2,1.4-4.5,2.8-7.1,4
			c-4.4,2.1-8.9,3.9-13.4,5.4c-1.3,0.4-2.6,0.9-3.8,1.4c-3.1,1.1-6.1,2.8-8.9,4.9c-3,2.3-5.2,5.7-6.4,9.7h109.3
			c11.5,0,22.7-4.3,31.9-12.3c1.3-1.1,2.6-2.3,3.8-3.6c7.4-7.5,12.9-17.3,15.9-28.2c0.5-1.7,0.9-3.3,1.2-5.1
			c0.3-1.7,0.7-3.7,0.9-5.6c0.2-1.9,0.4-3.9,0.5-5.8c0-1.2,0.2-2.4,0.2-3.6c0-0.8-0.1-1.5-0.1-2.2
			C264.6,140.7,264.5,138.7,264.3,136.8z"/>
		<path class="st1" d="M307.6,21.4c-2,1.7-4,3.4-5.9,5.2c-5.9,5.4-11.6,11.3-17,17.4c-3.5,4-6.9,8.1-10.2,12.3
			c-2.7,3.5-5.4,6.9-8.1,10.5c-3,4-5.9,8-8.8,12.1c-7.2-7.1-15.6-12.6-24.6-16c-1.3-0.5-2.6-1-3.9-1.4l-0.5-0.1
			c-4.4-1.3-9-2.2-13.5-2.6c-1.5-0.1-3.1-0.2-4.7-0.2H74.7c-2.7,0-5.3,0.2-7.9,0.5c-1.8,0.2-3.7,0.7-5.5,1.1
			c-0.7,0.2-1.5,0.2-2.2,0.4c-1.5,0.4-2.9,0.9-4.4,1.4c-5,1.7-9.9,4-14.5,7c-0.9,0.6-1.8,1-2.6,1.6c-2,1.4-3.9,2.9-5.8,4.5l-0.3,0.3
			c-2.5,2.1-4.8,4.4-7,6.9c-0.5,0.5-1,1-1.4,1.5c-2.9,3.4-5.6,7.1-7.9,11c-0.8,1.3-1.5,2.6-2.2,3.9c-0.1,0.1-0.2,0.3-0.2,0.4
			c-5.1,9.7-8.6,20.4-10.3,31.7c-0.1,0.5-0.1,1-0.2,1.5c-0.2,1.3-0.4,2.6-0.5,3.9c-0.2,2-0.2,4.3-0.2,6.5c0,0.7-0.1,1.5-0.1,2.2
			c0,4.5,0.3,9.1,0.9,13.5c0.6,4.4,1.5,8.7,2.6,12.9c0.4,1.7,1,3.3,1.5,4.9c0.7,2.1,1.5,4.1,2.3,6.2c0.2,0.5,0.4,1.1,0.6,1.7
			c1.1,2.4,2.2,4.7,3.4,7c1.4,2.5,2.8,4.9,4.4,7.3s3.1,4.3,4.7,6.4c1.1,1.4,2.2,2.6,3.3,3.8c1.7,1.9,3.5,3.6,5.4,5.3
			c3.8,3.4,7.8,6.3,12.1,8.8c2.1,1.2,4.3,2.3,6.6,3.3c1.9,0.9,3.9,1.6,5.9,2.3c1.5,0.5,3.1,1,4.7,1.4s3.2,0.7,4.8,1
			c3.3,0.5,6.6,0.8,9.9,0.8h135.7c7.1,0,14.2-1.2,21.1-3.7c1.9-0.7,3.9-1.5,5.7-2.4c4.4-2,8.6-4.5,12.5-7.5c2-1.5,3.9-3.1,5.7-4.8
			c1.8-1.7,3.6-3.5,5.3-5.4c1.1-1.3,2.2-2.5,3.2-3.9c5.5-7,10-15,13.2-23.7c0.6-1.7,1.3-3.3,1.8-5s1.1-3.2,1.5-4.9
			c1-4,1.8-8.1,2.3-12.3c0.5-4,0.8-8.1,0.8-12.2c0-0.2,0-0.4,0-0.7c0-2.5-0.1-5-0.3-7.5c-0.1-0.9-0.2-1.7-0.3-2.6
			c-0.1-0.9-0.2-1.9-0.3-2.9c-1-7.8-2.9-15.3-5.6-22.5c-0.9-2.4-1.9-4.7-3-7c-0.4-0.8-0.7-1.7-1.2-2.5c-0.2-0.4-0.4-0.8-0.6-1.2
			c1.2-2.1,2.4-4.2,3.7-6.3l1.2-2c1.1-2.2,2.2-4.4,3.3-6.4c1.1-2,2.2-4,3.5-5.8c0.9-1.4,2-2.7,3.1-4.1c2.2-2.8,4.7-5.5,7.1-8
			l3.4-3.6l1.1-1.1l-1.3-0.9c0,0,0,0,0-0.3c-0.1-0.9,0.9-3.4,1.9-5.7c0.8-1.6,1.4-3.3,2-5.1c0.1-0.5,0.2-1,0.2-1.6
			c0-0.5-0.1-1-0.3-1.4l0.6-0.6c1.1-1.1,2.2-2.2,3.2-3.3c0.7-0.7,1.3-1.4,1.9-2.2c0.2-0.4,0.5-0.6,0.6-1c0.2-0.4,0.3-0.8,0.3-1.2
			v-0.3l-0.1-0.2c-0.1-0.3-0.1-0.7-0.1-1c-0.1-0.3-0.1-0.6-0.1-0.8c0.1-2.2,0.7-4.3,1.8-6.1V20L307.6,21.4z M84.3,155.9
			c-0.1,1.5-0.2,3-0.4,4.5c-0.7,5.4-1.9,10.6-3.6,15.7l-0.1,0.4c-1.1,3-2.3,6-3.8,8.8c-2.9,5.6-6.5,10.6-10.6,14.9
			c-2.1,2.2-4.3,4.2-6.6,6c-0.2,0.1-0.4,0.2-0.6,0.2c-0.1,0-0.2,0-0.4,0c-2.6-0.9-5.2-2.1-7.6-3.5l-2-1.3c-0.9-0.6-2-1.3-2.5-1.6
			c0,0-2.8-1.4,0.2-2.3c8.5-2.6,16.3-7.8,22.7-14.9c2-2.3,3.7-4.8,5.1-7.6c0.3-0.5,0.4-1.1,0.7-1.6c1.1-2.3,2-4.6,2.8-7
			c1.7-4.9,2.8-10,3.4-15.3c0.3-2.7,0.5-5.4,0.5-8.2c0-0.8,0-1.6,0-2.5c0-0.7,0.5-1.3,1.1-1.4c0.2,0,0.4,0.1,0.6,0.2
			c0.1,0,0.2,0,0.3,0.1c0.2,0.2,0.4,0.5,0.4,0.9c0.5,3.6,0.8,7.2,0.8,10.8C84.5,152.8,84.5,154.3,84.3,155.9z M264.6,148.4
			c-0.1,2-0.3,3.9-0.5,5.8c-0.2,1.9-0.6,3.8-0.9,5.6c-0.4,1.9-0.7,3.4-1.2,5.1c-3.1,10.9-8.6,20.6-15.9,28.2
			c-1.2,1.3-2.5,2.4-3.8,3.6c-9.3,8-20.5,12.3-31.9,12.3H101c1.2-4,3.4-7.4,6.4-9.7c2.7-2.1,5.7-3.8,8.9-4.9
			c1.2-0.5,2.5-0.9,3.8-1.4c4.6-1.4,9.1-3.2,13.4-5.4c2.6-1.3,5-2.6,7.1-4c1.1-0.7,2.1-1.4,3.1-2.1c1.8-1.3,3.5-2.6,5.2-4.1
			c0.8-0.7,1.5-1.4,2.2-2.1c1.2-1.3,2.4-2.6,3.5-4c2.1-2.6,3.8-5.4,5.2-8.6c0.7-1.5,1.2-3.1,1.6-4.8v-23.6c1-2.2,2.5-4.9,1.6-7.4
			c-0.7-1.6-1.8-2.8-3.2-3.5c-2.7-1.4-5.6-2.3-8.6-2.7c-3.6-0.6-8-1.1-13-1.4c-3.3-0.2-6.9-0.4-10.7-0.5l-4.4-0.2l-8.1-0.2
			c-0.1-0.3-0.3-0.6-0.4-1c-0.3-0.8-0.8-1.7-1.3-2.8c-0.6-1.1-1.3-2.4-2.1-3.9c-1.3-2.3-2.9-5-5-8.3c-1.2-1.8-2.7-3.3-4.4-4.5
			c-2-1.4-4.1-2.6-6.3-3.6c-1.4-0.6-2.9-1.1-4.4-1.6c-2.3-0.8-4.7-1.4-7.2-1.9c-0.8-0.2-1.7-0.3-2.5-0.5c-1.7-0.3-3.4-0.6-5.2-0.8
			c-1-0.1-2-0.2-3.1-0.3c-1.6-0.2-3.2-0.3-4.8-0.4c-1.1,0-2.1-0.1-3.1-0.1c-2.1,0-4.2-0.1-6.3,0l0,0c-1.5,0-3,0.2-4.4,0.3
			s-3.1,0.3-4.5,0.5s-2.8,0.5-4,0.7c1.3-1,2.7-1.9,4.1-2.8c1.4-0.8,2.9-1.6,4.4-2.3c1.4-0.7,2.9-1.3,4.4-1.8
			c5.1-1.8,10.3-2.7,15.6-2.8h135.7c1.6,0,3.2,0.1,4.7,0.2s3.1,0.4,4.6,0.7c3,0.6,6,1.5,8.8,2.8c1.5,0.6,2.9,1.4,4.4,2.1
			c4.7,2.5,9.1,5.8,13.1,9.8c-3.5,5.7-8.1,13.1-13.1,21.4c-1.4,2.4-2.9,4.8-4.4,7.4c-1.4,2.3-2.7,4.6-4.1,7
			c-3.6,6.3-7.2,12.6-10.5,18.7c-3.5-7.3-7.3-14.3-11.5-21l-6-8l-4.4-5.8l0,0v0.1l0.5,2.5l0,0c-0.2-0.3-0.3-0.5-0.5-0.8
			c-0.4-0.7-0.8-1.3-1.3-1.8c-0.9-1.5-2-2.8-3.3-3.8c-0.3-0.2-0.7-0.3-1-0.4h-0.1c-0.4,0-0.7,0.2-1,0.5l0,0
			c-0.2,0.2-0.4,0.5-0.5,0.9c-0.2,0.9-0.3,1.9-0.3,2.9c0,1,0,2.1,0,3.2v0.1v0.1c0,0.1,0,0.2,0,0.3l0,0c-0.3,0.1-0.6,0.3-0.9,0.6
			c-0.5-1.1-1-2.2-1.7-3.7l-0.4-0.8l-0.7,0.2c-0.1,0-0.3,0.1-0.4,0.2c-0.1-0.2-0.2-0.4-0.3-0.6l-1-2.2l-0.8,2.3
			c-0.1,0.3-0.1,0.6-0.2,0.8c0,0,0,0.1,0,0.1l0,0l0,0c-0.3-0.5-0.6-0.9-0.9-1.3c-0.6-0.9-1.3-1.7-2.2-2.4c-0.3-0.2-0.6-0.3-0.9-0.3
			c-0.3,0-0.6,0.1-0.8,0.3c-0.6-1.5-1.2-2.9-2-4.3l-1.2-2v0.2l-0.4-0.8l-0.4,3.2l-0.1,0.2v0.1l-0.2,1.7l0.2,0.4h-0.2l0.1,3.4v0.1
			v0.1c0.5,2.1,0.8,4.1,1.2,6.1c0.3,1.6,0.7,3.2,1.3,4.8c7.1,16.5,27.8,61.2,27.8,61.5c0,0.5,0.2,0.9,0.6,1.1l0.3,0.1h1.6l0,0h0.7
			h7.1h2.8l11.5,0.4h0.3l0.3-0.2l0.2-0.2l0.1-0.2l0,0l0.7-1l0.6-0.8l0.9-1.4l1.9-2.8l1.2-1.7l10.3-20l-0.8-0.1
			c0.3-0.6,0.6-1.2,1-1.8c0.4-0.6,0.8-1.3,1.2-2c0.9-1.4,1.8-2.9,2.8-4.4l0.8-1.8l0.1-0.2v-0.2c0-0.1,0-0.3,0-0.4
			c0-0.2,0-0.4-0.1-0.6l2.3-3.5c4.2-8.6,8.4-17.1,13-25.7c1.2,3.5,2.2,7.1,2.8,10.8c0.3,1.9,0.6,3.8,0.8,5.7
			c0.2,1.9,0.3,3.9,0.4,5.8c0,0.7,0.1,1.5,0.1,2.2C264.8,146.1,264.7,147.2,264.6,148.4L264.6,148.4z"/>
	</g>
</g>
</svg>
